<?xml version="1.0" encoding="utf-8"?>
<!-- Generator: Adobe Illustrator 23.0.2, SVG Export Plug-In . SVG Version: 6.00 Build 0)  -->
<svg version="1.1" id="Layer_1" xmlns="http://www.w3.org/2000/svg" xmlns:xlink="http://www.w3.org/1999/xlink" x="0px" y="0px"
	 viewBox="0 0 547 74" style="enable-background:new 0 0 547 74;" xml:space="preserve">
<style type="text/css">
	.st0{fill:#027BFF;}
</style>
<g>
	<path d="M30.4,14.8v41.6h-10V14.8H4.3V5.4h42.3v9.4H30.4z"/>
	<path d="M69.2,30.5c-1.1-0.2-2-0.3-2.9-0.3c-4.9,0-9.1,2.4-9.1,10v16.2h-9.6V21h9.3v5.3c2.2-4.7,7.1-5.5,10.1-5.5
		c0.8,0,1.5,0.1,2.2,0.1V30.5z"/>
	<path d="M107.4,46.3c-1.8,6.1-7.4,11.2-16.1,11.2c-9.7,0-18.3-7-18.3-18.9c0-11.3,8.4-18.6,17.4-18.6c10.9,0,17.5,7,17.5,18.4
		c0,1.4-0.1,2.8-0.1,3H82.4c0.2,4.7,4.2,8.1,8.9,8.1c4.5,0,6.9-2.2,8.1-5.4L107.4,46.3z M98.5,34.7c-0.1-3.5-2.4-7-7.9-7
		c-5,0-7.7,3.7-7.9,7H98.5z"/>
	<path d="M134.4,56.4h-9.6L110.3,21h10.5l8.8,23.8l8.4-23.8h10.1L134.4,56.4z"/>
	<path d="M187.4,38.7c0,10.9-8,18.8-18.6,18.8s-18.6-7.9-18.6-18.8c0-10.9,8-18.8,18.6-18.8S187.4,27.8,187.4,38.7z M177.8,38.7
		c0-6.7-4.3-10.1-9-10.1c-4.7,0-9,3.4-9,10.1c0,6.6,4.3,10.1,9,10.1C173.5,48.8,177.8,45.4,177.8,38.7z"/>
	<path d="M216.5,30.5c-1.1-0.2-2-0.3-2.9-0.3c-4.9,0-9.1,2.4-9.1,10v16.2h-9.6V21h9.3v5.3c2.2-4.7,7.1-5.5,10.1-5.5
		c0.8,0,1.5,0.1,2.2,0.1V30.5z"/>
	<path d="M238.6,30.9c0-16.3,12.3-26.6,26-26.6c14.1,0,21.4,8.6,23.4,16.9l-9.4,3c-1.2-4.9-5.2-10.3-14-10.3
		c-7.6,0-15.7,5.5-15.7,17.1c0,10.9,7.6,16.8,15.8,16.8c8.7,0,13-5.7,14.3-10.4l9.3,2.8c-1.9,7.8-9.3,17.4-23.6,17.4
		C250.4,57.5,238.6,47.2,238.6,30.9z"/>
	<path d="M303.3,36l8.7-1.3c2-0.3,2.7-1.3,2.7-2.5c0-2.5-1.9-4.6-6-4.6c-4.2,0-6.5,2.7-6.8,5.8l-8.5-1.8c0.6-5.5,5.7-11.7,15.2-11.7
		c11.2,0,15.4,6.3,15.4,13.5v17.4c0,1.9,0.2,4.4,0.4,5.6h-8.8c-0.2-0.9-0.4-2.9-0.4-4.2c-1.8,2.8-5.2,5.3-10.4,5.3
		c-7.6,0-12.2-5.1-12.2-10.7C292.7,40.4,297.4,36.9,303.3,36z M314.7,42.1v-1.6l-8,1.2c-2.4,0.4-4.4,1.7-4.4,4.5
		c0,2.1,1.5,4.1,4.6,4.1C310.9,50.3,314.7,48.4,314.7,42.1z"/>
	<path d="M333.7,70.1V21h9.3v4.3c1.6-2.7,5.5-5.1,10.9-5.1c10.4,0,16.3,7.9,16.3,18.4c0,10.7-6.7,18.6-16.7,18.6
		c-4.9,0-8.5-1.9-10.2-4.3v17.1H333.7z M352,28.8c-4.9,0-8.9,3.7-8.9,9.9c0,6.3,4,10,8.9,10s8.8-3.7,8.8-10
		C360.7,32.4,356.9,28.8,352,28.8z"/>
	<path d="M412.2,38.7c0,10.9-8,18.8-18.6,18.8s-18.6-7.9-18.6-18.8c0-10.9,8-18.8,18.6-18.8S412.2,27.8,412.2,38.7z M402.7,38.7
		c0-6.7-4.3-10.1-9-10.1c-4.7,0-9,3.4-9,10.1c0,6.6,4.3,10.1,9,10.1C398.3,48.8,402.7,45.4,402.7,38.7z"/>
	<path d="M417.2,56.4V48L434,29.3h-16.3V21h28.6v8l-17.3,19.1h17.6v8.4H417.2z"/>
	<path d="M452,56.4V48l16.8-18.7h-16.3V21h28.6v8l-17.3,19.1h17.6v8.4H452z"/>
	<path d="M498,36l8.7-1.3c2-0.3,2.7-1.3,2.7-2.5c0-2.5-1.9-4.6-6-4.6c-4.2,0-6.5,2.7-6.8,5.8l-8.5-1.8c0.6-5.5,5.7-11.7,15.2-11.7
		c11.2,0,15.4,6.3,15.4,13.5v17.4c0,1.9,0.2,4.4,0.4,5.6h-8.8c-0.2-0.9-0.4-2.9-0.4-4.2c-1.8,2.8-5.2,5.3-10.4,5.3
		c-7.6,0-12.2-5.1-12.2-10.7C487.4,40.4,492.1,36.9,498,36z M509.4,42.1v-1.6l-8,1.2c-2.4,0.4-4.4,1.7-4.4,4.5
		c0,2.1,1.5,4.1,4.6,4.1C505.6,50.3,509.4,48.4,509.4,42.1z"/>
	<path class="st0" d="M534.4,43.8c3.7,0,6.6,3,6.6,6.6c0,3.6-3,6.6-6.6,6.6c-3.6,0-6.6-3-6.6-6.6C527.9,46.8,530.8,43.8,534.4,43.8z
		"/>
</g>
</svg>
