<?xml version="1.0" encoding="utf-8"?>
<!-- Generator: Adobe Illustrator 23.0.1, SVG Export Plug-In . SVG Version: 6.00 Build 0)  -->
<svg version="1.1" id="_x2014_ÎÓÈ_x5F_1" xmlns="http://www.w3.org/2000/svg" xmlns:xlink="http://www.w3.org/1999/xlink"
	 x="0px" y="0px" viewBox="0 0 1814.17 1814.17" style="enable-background:new 0 0 1814.17 1814.17;" xml:space="preserve">
<style type="text/css">
	.st0{fill:#5E97F8;}
	.st1{opacity:0.12;}
	.st2{fill:#1A406A;}
	.st3{opacity:0.12;fill:#1A406A;}
	.st4{fill:#FFFFFF;}
	.st5{fill:#E6EEFC;}
	.st6{fill:#B3CCF9;}
	.st7{fill:#266EF2;}
	.st8{fill:#65C0BA;}
	.st9{opacity:0.1;fill:#1A406A;}
	.st10{fill:#639EF4;}
	.st11{enable-background:new    ;}
	.st12{clip-path:url(#SVGID_2_);}
	.st13{clip-path:url(#SVGID_4_);fill:#E5EEFD;}
	.st14{clip-path:url(#SVGID_4_);fill:#B3CCF9;}
	.st15{clip-path:url(#SVGID_6_);enable-background:new    ;}
	.st16{fill:#CFFDF8;}
	.st17{clip-path:url(#SVGID_8_);}
	.st18{fill:#9FB5D4;}
	.st19{fill:#DDE7F7;}
	.st20{fill:#0C223F;}
	.st21{clip-path:url(#SVGID_10_);enable-background:new    ;}
	.st22{clip-path:url(#SVGID_12_);}
	.st23{clip-path:url(#SVGID_14_);enable-background:new    ;}
	.st24{clip-path:url(#SVGID_16_);}
	.st25{clip-path:url(#SVGID_18_);enable-background:new    ;}
	.st26{clip-path:url(#SVGID_20_);}
	.st27{clip-path:url(#SVGID_22_);}
	.st28{clip-path:url(#SVGID_24_);enable-background:new    ;}
	.st29{fill:#121211;}
	.st30{fill:#161614;}
	.st31{clip-path:url(#SVGID_26_);}
	.st32{clip-path:url(#SVGID_28_);enable-background:new    ;}
	.st33{fill:#FDFDFD;}
	.st34{clip-path:url(#SVGID_30_);}
	.st35{fill:url(#SVGID_31_);}
	.st36{clip-path:url(#SVGID_33_);}
	.st37{clip-path:url(#SVGID_35_);enable-background:new    ;}
	.st38{fill:#799B97;}
	.st39{fill:#97C1BC;}
	.st40{clip-path:url(#SVGID_37_);enable-background:new    ;}
	.st41{fill:#FFB8A3;}
	.st42{fill:url(#SVGID_38_);}
	.st43{fill:url(#SVGID_39_);}
	.st44{clip-path:url(#SVGID_41_);enable-background:new    ;}
	.st45{clip-path:url(#SVGID_43_);fill:#9FB5D4;}
	.st46{clip-path:url(#SVGID_45_);enable-background:new    ;}
	.st47{clip-path:url(#SVGID_47_);enable-background:new    ;}
	.st48{fill:#AAAAAA;}
	.st49{clip-path:url(#SVGID_49_);}
	.st50{clip-path:url(#SVGID_51_);fill:#FDFDFD;}
	.st51{clip-path:url(#SVGID_53_);}
	.st52{fill:url(#SVGID_54_);}
</style>
<g>
	
		<rect x="914.37" y="878.2" transform="matrix(0.5 -0.866 0.866 0.5 -719.636 1472.538)" class="st0" width="2.14" height="962.58"/>
</g>
<g class="st1">
	<path class="st2" d="M1036.22,1524.26c-4.02,13.41-10.89,26.66-18.22,38.68c-8.88,14.57-150.09,121.56-170.99,133.18
		c-35.37,19.67-96.78-5.11-143.28-4.5c-49.46,0.65-84.06,25.42-121.93,4.5c-46.73-25.81-19.99-52.18-7.53-85.42
		c7.13-19.03-19.92-46.79,6.66-61.57c60-33.36,232.14-105.46,303.41-83.99c15.45,4.65,88.34,0.16,108.65,7.65
		C1014.33,1480.67,1044.36,1497.14,1036.22,1524.26z"/>
</g>
<path class="st3" d="M439.64,1520.02c-10.51-3.94-26.77-4.42-38.56-1.44c-21.17-4.13-45.46-1.32-62.25,8.44
	c-6.38,3.71-11.01,8.04-13.93,12.66c-12.66-0.07-28.59,3.95-40.97,10.03c-0.92-1.22-2.96-2.05-6.1-2.27
	c-7.64-0.54-18.78,2.74-24.87,7.31c-6.09,4.57-4.84,8.71,2.81,9.25c3.28,0.23,7.21-0.25,11.11-1.22c-4.43,7.01,0.21,12.5,13,13.4
	c13.65,0.96,32.38-3.62,46.09-10.76c2.98,4.11,7.36,7.96,13.15,11.3c10.31,5.95,23.38,9.32,36.8,10.11
	c-0.2,0.15-0.42,0.29-0.62,0.43c-7.95,5.96-6.31,11.37,3.66,12.07c9.97,0.7,24.5-3.57,32.45-9.53c4.47-3.35,5.91-6.53,4.54-8.79
	c3.16-1.24,6.16-2.66,8.95-4.28c18.49-10.75,22.42-26.72,11.84-39.74c1.04-0.3,2.06-0.61,3.01-0.96
	C451.55,1531.62,451.51,1524.46,439.64,1520.02z"/>
<path class="st4" d="M516.62,743.69V140.69c0-8.53,9.23-13.86,16.62-9.6l724.38,418.22c3.43,1.98,5.54,5.64,5.54,9.6v615.8
	L516.62,743.69z"/>
<polygon class="st5" points="941.33,576.88 571.65,362.55 571.65,691.34 941.33,905.67 "/>
<g>
	<path class="st6" d="M782.63,532.02L554.24,400.75v-67.49l228.39,131.27V532.02z M556.38,399.51l224.11,128.81v-62.56
		L556.38,336.95V399.51z"/>
</g>
<polygon class="st5" points="941.33,911.09 571.65,696.76 571.65,774.39 941.33,988.72 "/>
<polygon class="st5" points="1204.79,1048.23 1204.79,1141.54 978.55,1011.5 978.55,918.18 "/>
<g>
	<path class="st7" d="M1264.22,1176.56l-1.6-0.93L515.55,744.31V140.69c0-4.39,2.27-8.33,6.07-10.52c3.8-2.2,8.35-2.2,12.15,0
		l724.38,418.22c3.75,2.16,6.07,6.2,6.07,10.52V1176.56z M517.68,743.08l744.4,429.78V558.91c0-3.57-1.92-6.89-5.01-8.67
		L532.7,132.02c-3.13-1.81-6.88-1.81-10.01,0c-3.13,1.81-5.01,5.05-5.01,8.67V743.08z"/>
</g>
<path class="st7" d="M516.62,171.46v-30.24c0-8.77,9.49-14.25,17.08-9.86l723.76,417.86c3.52,2.03,5.69,5.79,5.69,9.86v43.39
	L516.62,171.46z"/>
<g>
	<path class="st8" d="M412.18,1405.24c-16.86-9.73-44.1-9.73-60.85,0c-16.75,9.73-16.66,25.51,0.2,35.24
		c16.86,9.73,44.1,9.73,60.84,0C429.12,1430.75,429.04,1414.97,412.18,1405.24L412.18,1405.24z"/>
</g>
<polygon class="st9" points="639.15,527.64 458.95,423.6 458.95,572.23 639.15,676.27 "/>
<polygon class="st4" points="619.59,493.39 439.39,389.36 439.39,537.98 619.59,642.02 "/>
<polygon class="st9" points="1432.26,694.37 1432.26,589.3 1068.3,379.18 1068.3,484.24 "/>
<g>
	<path class="st10" d="M620.66,643.87L438.32,538.6V387.51l182.34,105.27V643.87z M440.46,537.37l178.06,102.8V494.01l-178.06-102.8
		V537.37z"/>
</g>
<polygon class="st4" points="1417.61,667.65 1417.61,562.58 1053.65,352.46 1053.65,457.52 "/>
<polygon class="st5" points="1263.27,624.28 1340.49,668.86 1340.49,743.18 1005.84,549.96 1005.84,475.65 "/>
<g>
	<path class="st10" d="M1418.68,669.5l-1.6-0.93l-364.49-210.44V350.6l1.6,0.93l364.49,210.44V669.5z M1054.72,456.9l361.82,208.9
		V563.2l-361.82-208.9V456.9z"/>
</g>
<polygon class="st9" points="1185.93,1185.7 1185.93,1274.88 1366.12,1378.92 1366.12,1289.74 "/>
<polygon class="st4" points="1160.18,1150.37 1160.18,1239.55 1340.38,1343.59 1340.38,1254.41 "/>
<g>
	<path class="st7" d="M1341.45,1345.44l-182.34-105.27v-91.64l182.34,105.27V1345.44z M1161.25,1238.93l178.06,102.8v-86.71
		l-178.06-102.8V1238.93z"/>
</g>
<polygon class="st9" points="1204.79,702.46 1204.79,862.32 978.55,732.28 978.55,572.42 "/>
<polygon class="st5" points="1204.79,875.75 1204.79,1035.61 978.55,905.57 978.55,745.71 "/>
<g>
	<polygon class="st4" points="1029.88,795.66 1002.85,780.06 1002.76,811.12 1029.79,826.73 1029.88,795.66 	"/>
	<polygon class="st4" points="1069.82,818.72 1042.79,803.12 1042.7,834.18 1069.73,849.79 1069.82,818.72 	"/>
	<polygon class="st4" points="1109.75,841.78 1082.72,826.17 1082.63,857.24 1109.67,872.84 1109.75,841.78 	"/>
	<polygon class="st7" points="1149.69,864.84 1122.66,849.23 1122.57,880.29 1149.6,895.9 1149.69,864.84 	"/>
	<polygon class="st4" points="1189.63,887.89 1162.6,872.29 1162.51,903.35 1189.54,918.96 1189.63,887.89 	"/>
	<polygon class="st4" points="1029.75,840.76 1002.72,825.15 1002.63,856.21 1029.66,871.82 1029.75,840.76 	"/>
	<polygon class="st4" points="1069.69,863.81 1042.66,848.21 1042.57,879.27 1069.6,894.88 1069.69,863.81 	"/>
	<polygon class="st6" points="1109.63,886.87 1082.59,871.26 1082.51,902.33 1109.54,917.93 1109.63,886.87 	"/>
	<polygon class="st4" points="1149.56,909.93 1122.53,894.32 1122.44,925.38 1149.47,940.99 1149.56,909.93 	"/>
	<polygon class="st4" points="1189.5,932.99 1162.47,917.38 1162.38,948.44 1189.41,964.05 1189.5,932.99 	"/>
	<polygon class="st4" points="1029.62,885.85 1002.59,870.24 1002.5,901.3 1029.54,916.91 1029.62,885.85 	"/>
	<polygon class="st4" points="1069.56,908.91 1042.53,893.3 1042.44,924.36 1069.48,939.97 1069.56,908.91 	"/>
	<polygon class="st4" points="1109.5,931.96 1082.47,916.35 1082.38,947.42 1109.41,963.03 1109.5,931.96 	"/>
	<polygon class="st4" points="1149.43,955.02 1122.4,939.41 1122.31,970.47 1149.35,986.08 1149.43,955.02 	"/>
	<polygon class="st4" points="1189.37,978.08 1162.34,962.47 1162.25,993.53 1189.28,1009.14 1189.37,978.08 	"/>
</g>
<polygon class="st4" points="1185.93,676.62 1185.93,836.48 959.68,706.44 959.68,546.58 "/>
<g>
	<path class="st6" d="M1186.99,838.33L958.61,707.06V544.73L1186.99,676V838.33z M960.75,705.82l224.11,128.81v-157.4L960.75,548.42
		V705.82z"/>
</g>
<g>
	<path class="st6" d="M1107.14,430.24c3.49,2.09,6.32,7.03,6.3,11.05l-0.08,27.26c-0.01,4.08-2.92,5.74-6.47,3.69l-30.58-17.65
		c-3.54-2.05-6.44-7.06-6.43-11.13l0.08-27.26c0.01-4.03,2.85-5.69,6.34-3.75l0.04-14.6c0.05-9.73,6.98-13.66,15.46-8.77
		c8.49,4.9,15.37,16.81,15.36,26.56L1107.14,430.24z M1101.14,426.77l0.04-14.55c0.02-5.97-4.19-13.26-9.39-16.26
		c-5.19-3-9.42-0.58-9.44,5.39l-0.04,14.55L1101.14,426.77L1101.14,426.77z M1093.48,445.37c1.94,0.27,3.33-1.08,3.33-3.6
		c0.01-3.26-2.29-7.24-5.12-8.88c-2.84-1.64-5.15-0.32-5.16,2.94c-0.01,2.52,1.37,5.47,3.31,7.44l-0.02,6.79l3.64,2.1
		L1093.48,445.37L1093.48,445.37z"/>
</g>
<path class="st6" d="M658.6,310.6l-136.43-78.77c-14.5-8.37-26.4-1.59-26.44,15.07c-0.05,16.65,11.77,37.13,26.27,45.5l136.43,78.77
	c14.5,8.37,26.4,1.59,26.44-15.06C684.92,339.45,673.1,318.97,658.6,310.6L658.6,310.6z"/>
<g>
	<g class="st11">
		<defs>
			<polygon id="SVGID_1_" class="st11" points="464.88,521.62 465.11,440.7 535.53,481.36 535.3,562.28 			"/>
		</defs>
		<clipPath id="SVGID_2_">
			<use xlink:href="#SVGID_1_"  style="overflow:visible;"/>
		</clipPath>
		<g class="st12">
			<g>
				<defs>
					<path id="SVGID_3_" d="M535.41,521.82c-0.06,22.34-15.87,31.36-35.33,20.13c-19.44-11.23-35.15-38.44-35.09-60.78
						c0.06-22.34,15.87-31.36,35.32-20.14C519.77,472.26,535.48,499.48,535.41,521.82L535.41,521.82z"/>
				</defs>
				<clipPath id="SVGID_4_">
					<use xlink:href="#SVGID_3_"  style="overflow:visible;"/>
				</clipPath>
				<path class="st13" d="M502.23,543.11l-4.28-2.47c0.71,0.46,1.42,0.89,2.14,1.31C500.8,542.36,501.52,542.75,502.23,543.11
					L502.23,543.11z M500.6,501.31c-7.85-4.53-14.2-15.54-14.18-24.57c0.03-9.04,6.42-12.68,14.27-8.14
					c7.86,4.54,14.21,15.54,14.19,24.57C514.85,502.19,508.46,505.85,500.6,501.31L500.6,501.31z M500.31,461.03
					c-19.44-11.23-35.25-2.2-35.32,20.14c-0.03,9.98,3.09,20.94,8.29,31c4.69-9.62,15.16-12.6,27.3-5.59
					c11.9,6.87,22.16,21.46,26.91,36.17c4.93-4.12,7.89-11.29,7.92-20.93C535.48,499.48,519.77,472.26,500.31,461.03L500.31,461.03z
					"/>
				<path class="st14" d="M500.69,468.6c-7.85-4.53-14.24-0.89-14.27,8.14c-0.03,9.02,6.32,20.03,14.18,24.57
					c7.86,4.54,14.25,0.89,14.28-8.14C514.9,484.14,508.55,473.14,500.69,468.6L500.69,468.6z"/>
				<path class="st14" d="M500.58,506.58c-12.14-7.01-22.61-4.03-27.3,5.59c6,11.63,14.78,22.08,24.66,28.47l4.28,2.47
					c10.18,5.18,19.21,4.71,25.27-0.36C522.74,528.04,512.49,513.45,500.58,506.58L500.58,506.58z"/>
			</g>
		</g>
	</g>
</g>
<g>
	<g class="st11">
		<g class="st11">
			<defs>
				<path id="SVGID_5_" class="st11" d="M595.9,1660.71l14.31,8.32c-1.93-1.12-4.6-0.96-7.55,0.74l-14.31-8.32
					C591.3,1659.75,593.97,1659.59,595.9,1660.71z"/>
			</defs>
			<clipPath id="SVGID_6_">
				<use xlink:href="#SVGID_5_"  style="overflow:visible;"/>
			</clipPath>
			<g class="st15">
				<path class="st16" d="M602.67,1669.77l-14.31-8.32c2.95-1.7,5.62-1.86,7.55-0.74l14.31,8.32
					C608.29,1667.91,605.62,1668.07,602.67,1669.77L602.67,1669.77z"/>
			</g>
		</g>
		<g class="st11">
			<defs>
				<path id="SVGID_7_" class="st11" d="M595.18,1694.91l-14.31-8.32c-1.9-1.11-3.09-3.46-3.1-6.8
					c-0.02-6.74,4.72-14.95,10.58-18.33l14.31,8.32c-5.86,3.38-10.6,11.6-10.58,18.33C592.09,1691.45,593.28,1693.8,595.18,1694.91z
					"/>
			</defs>
			<clipPath id="SVGID_8_">
				<use xlink:href="#SVGID_7_"  style="overflow:visible;"/>
			</clipPath>
			<g class="st17">
				<path class="st18" d="M595.18,1694.91l-14.31-8.32c-1.9-1.11-3.09-3.46-3.1-6.8c-0.02-6.74,4.72-14.95,10.58-18.33l14.31,8.32
					c-5.86,3.38-10.6,11.6-10.58,18.33C592.09,1691.45,593.28,1693.8,595.18,1694.91L595.18,1694.91z"/>
			</g>
		</g>
		<g>
			<path class="st19" d="M602.67,1669.77c5.86-3.38,10.63-0.66,10.65,6.08c0.02,6.74-4.72,14.94-10.58,18.32
				c-5.86,3.38-10.63,0.67-10.65-6.06C592.07,1681.37,596.81,1673.15,602.67,1669.77z"/>
		</g>
		<g>
			<path class="st18" d="M602.68,1673.33c4.15-2.4,7.53-0.47,7.54,4.3c0.01,4.77-3.34,10.58-7.49,12.97
				c-4.15,2.4-7.53,0.48-7.54-4.29C595.17,1681.54,598.53,1675.73,602.68,1673.33z"/>
		</g>
	</g>
</g>
<g>
	<path class="st4" d="M731.88,1515.4c0.95,3.71,9.09,4.39,15.3,2.55c6.21-1.84,7.25-19.92,8.15-24.74
		c0.89-4.82-6.47-7.03-10.62-8.25c-4.15-1.22-10.05-1.05-11.4,4.38C731.96,1494.76,730.34,1509.37,731.88,1515.4z"/>
	<path class="st20" d="M726.04,1528.77c-1.04,10.66,1.4,18.78,7.08,19.92c5.68,1.14,11.21-1.51,16.64-3.85
		c5.27-2.27,49.9-23.1,46.17-28.19c-4.62-6.3-43.11-6.63-43.11-6.63s0.22,2.75-8.12,3.92c-8.35,1.17-12.35-3.57-13.42-6.66
		C730.25,1504.36,726.04,1528.77,726.04,1528.77z"/>
</g>
<g>
	<g class="st11">
		<g class="st11">
			<defs>
				<path id="SVGID_9_" class="st11" d="M815.97,1532.33l14.31,8.32c-1.93-1.12-4.61-0.96-7.56,0.74l-14.31-8.32
					C811.36,1531.37,814.04,1531.21,815.97,1532.33z"/>
			</defs>
			<clipPath id="SVGID_10_">
				<use xlink:href="#SVGID_9_"  style="overflow:visible;"/>
			</clipPath>
			<g class="st21">
				<path class="st16" d="M822.73,1541.39l-14.31-8.32c2.95-1.7,5.62-1.86,7.56-0.74l14.31,8.32
					C828.35,1539.53,825.68,1539.68,822.73,1541.39L822.73,1541.39z"/>
			</g>
		</g>
		<g class="st11">
			<defs>
				<path id="SVGID_11_" class="st11" d="M815.24,1566.53l-14.31-8.32c-1.9-1.11-3.09-3.46-3.1-6.8
					c-0.02-6.74,4.72-14.95,10.58-18.33l14.31,8.32c-5.86,3.38-10.6,11.6-10.58,18.33C812.15,1563.07,813.33,1565.42,815.24,1566.53
					z"/>
			</defs>
			<clipPath id="SVGID_12_">
				<use xlink:href="#SVGID_11_"  style="overflow:visible;"/>
			</clipPath>
			<g class="st22">
				<path class="st18" d="M815.24,1566.53l-14.31-8.32c-1.9-1.11-3.09-3.46-3.1-6.8c-0.02-6.74,4.72-14.95,10.58-18.33l14.31,8.32
					c-5.86,3.38-10.6,11.6-10.58,18.33C812.15,1563.07,813.33,1565.42,815.24,1566.53L815.24,1566.53z"/>
			</g>
		</g>
		<g>
			<path class="st19" d="M822.73,1541.39c5.86-3.38,10.63-0.67,10.65,6.07c0.02,6.74-4.72,14.94-10.58,18.33
				c-5.86,3.38-10.63,0.67-10.65-6.06S816.87,1544.77,822.73,1541.39z"/>
		</g>
		<g>
			<path class="st18" d="M822.74,1544.95c4.15-2.4,7.53-0.47,7.55,4.3c0.01,4.77-3.34,10.58-7.5,12.98
				c-4.15,2.4-7.53,0.48-7.55-4.29C815.23,1553.16,818.59,1547.34,822.74,1544.95z"/>
		</g>
	</g>
</g>
<g>
	<g class="st11">
		<g class="st11">
			<defs>
				<path id="SVGID_13_" class="st11" d="M799.75,1652.23l14.31,8.32c-1.93-1.12-4.61-0.96-7.56,0.74l-14.31-8.32
					C795.14,1651.27,797.82,1651.11,799.75,1652.23z"/>
			</defs>
			<clipPath id="SVGID_14_">
				<use xlink:href="#SVGID_13_"  style="overflow:visible;"/>
			</clipPath>
			<g class="st23">
				<path class="st16" d="M806.51,1661.29l-14.31-8.32c2.95-1.7,5.62-1.86,7.56-0.74l14.31,8.32
					C812.13,1659.43,809.46,1659.58,806.51,1661.29L806.51,1661.29z"/>
			</g>
		</g>
		<g class="st11">
			<defs>
				<path id="SVGID_15_" class="st11" d="M799.02,1686.43l-14.31-8.32c-1.91-1.11-3.09-3.46-3.1-6.81
					c-0.02-6.74,4.72-14.95,10.58-18.33l14.31,8.32c-5.86,3.38-10.6,11.6-10.58,18.33C795.93,1682.97,797.12,1685.32,799.02,1686.43
					z"/>
			</defs>
			<clipPath id="SVGID_16_">
				<use xlink:href="#SVGID_15_"  style="overflow:visible;"/>
			</clipPath>
			<g class="st24">
				<path class="st18" d="M799.02,1686.43l-14.31-8.32c-1.91-1.11-3.09-3.46-3.1-6.81c-0.02-6.74,4.72-14.95,10.58-18.33l14.31,8.32
					c-5.86,3.38-10.6,11.6-10.58,18.33C795.93,1682.97,797.12,1685.32,799.02,1686.43L799.02,1686.43z"/>
			</g>
		</g>
		<g>
			<path class="st19" d="M806.51,1661.29c5.86-3.38,10.63-0.67,10.65,6.07c0.02,6.74-4.72,14.95-10.58,18.33s-10.63,0.67-10.65-6.07
				C795.9,1672.88,800.65,1664.67,806.51,1661.29z"/>
		</g>
		<g>
			<path class="st18" d="M806.52,1664.85c4.15-2.4,7.53-0.47,7.55,4.3s-3.34,10.59-7.5,12.98c-4.15,2.4-7.53,0.47-7.55-4.3
				S802.37,1667.25,806.52,1664.85z"/>
		</g>
	</g>
</g>
<g>
	<g class="st11">
		<g class="st11">
			<defs>
				<path id="SVGID_17_" class="st11" d="M605.12,1539.11l14.31,8.32c-1.93-1.12-4.61-0.96-7.56,0.74l-14.31-8.32
					C600.52,1538.15,603.19,1537.99,605.12,1539.11z"/>
			</defs>
			<clipPath id="SVGID_18_">
				<use xlink:href="#SVGID_17_"  style="overflow:visible;"/>
			</clipPath>
			<g class="st25">
				<path class="st16" d="M611.88,1548.17l-14.31-8.32c2.95-1.7,5.63-1.86,7.56-0.74l14.31,8.32
					C617.51,1546.31,614.83,1546.47,611.88,1548.17L611.88,1548.17z"/>
			</g>
		</g>
		<g class="st11">
			<defs>
				<path id="SVGID_19_" class="st11" d="M604.4,1573.31l-14.31-8.32c-1.91-1.11-3.09-3.46-3.1-6.82
					c-0.02-6.74,4.72-14.94,10.58-18.32l14.31,8.32c-5.86,3.38-10.6,11.59-10.58,18.32C601.31,1569.85,602.49,1572.2,604.4,1573.31z
					"/>
			</defs>
			<clipPath id="SVGID_20_">
				<use xlink:href="#SVGID_19_"  style="overflow:visible;"/>
			</clipPath>
			<g class="st26">
				<path class="st18" d="M604.4,1573.31l-14.31-8.32c-1.91-1.11-3.09-3.46-3.1-6.82c-0.02-6.74,4.72-14.94,10.58-18.32l14.31,8.32
					c-5.86,3.38-10.6,11.59-10.58,18.32C601.31,1569.85,602.49,1572.2,604.4,1573.31L604.4,1573.31z"/>
			</g>
		</g>
		<g>
			<path class="st19" d="M611.88,1548.17c5.86-3.38,10.63-0.67,10.65,6.06c0.02,6.74-4.72,14.95-10.58,18.33
				c-5.86,3.38-10.63,0.67-10.65-6.08C601.28,1559.76,606.02,1551.56,611.88,1548.17z"/>
		</g>
		<g>
			<path class="st18" d="M611.89,1551.56c4.24-2.45,7.68-0.49,7.7,4.38c0.01,4.87-3.41,10.8-7.65,13.24
				c-4.24,2.45-7.68,0.48-7.69-4.39C604.23,1559.93,607.65,1554,611.89,1551.56z"/>
		</g>
	</g>
</g>
<g>
	<g class="st11">
		<g class="st11">
			<defs>
				<path id="SVGID_21_" class="st11" d="M592.64,1544.37l-0.66-6.96c0.17,1.76,1.35,3.44,3.56,4.71l0.66,6.96
					C593.99,1547.8,592.81,1546.13,592.64,1544.37z"/>
			</defs>
			<use xlink:href="#SVGID_21_"  style="overflow:visible;fill:#9FB5D4;"/>
			<clipPath id="SVGID_22_">
				<use xlink:href="#SVGID_21_"  style="overflow:visible;"/>
			</clipPath>
			<g class="st27">
				<path class="st19" d="M595.55,1542.12l0.66,6.96c-2.22-1.28-3.4-2.95-3.56-4.71l-0.66-6.96
					C592.15,1539.17,593.33,1540.84,595.55,1542.12L595.55,1542.12z"/>
			</g>
		</g>
		<g class="st11">
			<defs>
				<path id="SVGID_23_" class="st11" d="M827.39,1527.61l0.66,6.96c0.22,2.32-1.31,4.78-4.54,6.68l-0.66-6.96
					C826.07,1532.39,827.61,1529.92,827.39,1527.61z"/>
			</defs>
			<clipPath id="SVGID_24_">
				<use xlink:href="#SVGID_23_"  style="overflow:visible;"/>
			</clipPath>
			<g class="st28">
				<path class="st29" d="M827.39,1527.61l0.66,6.96c0.04,0.41,0.02,0.83-0.05,1.25l-0.66-6.96
					C827.41,1528.44,827.43,1528.02,827.39,1527.61L827.39,1527.61z"/>
				<path class="st30" d="M827.34,1528.86l0.66,6.96c-0.33,1.93-1.84,3.87-4.49,5.42l-0.66-6.96
					C825.49,1532.73,827,1530.79,827.34,1528.86L827.34,1528.86z"/>
			</g>
		</g>
		<g>
			<polygon class="st19" points="684.94,1593.65 685.6,1600.61 596.21,1549.08 595.55,1542.12 			"/>
		</g>
		<g>
			<polygon class="st18" points="822.84,1534.28 823.5,1541.24 724.74,1599.25 724.08,1592.29 			"/>
		</g>
		<g>
			<polygon class="st18" points="703.53,1604.36 704.19,1611.32 605.42,1669.33 604.76,1662.37 			"/>
		</g>
		<g class="st11">
			<defs>
				<path id="SVGID_25_" class="st11" d="M582.29,1665.29l-0.66-6.96c0.17,1.76,1.35,3.44,3.56,4.71c1.69,0.97,3.78,1.6,6.02,1.87
					c4.56,0.56,9.75-0.31,13.55-2.55l0.66,6.96c-3.8,2.24-8.99,3.11-13.55,2.55c-2.24-0.27-4.33-0.9-6.02-1.87
					C583.64,1668.73,582.46,1667.06,582.29,1665.29z"/>
			</defs>
			<clipPath id="SVGID_26_">
				<use xlink:href="#SVGID_25_"  style="overflow:visible;"/>
			</clipPath>
			<g class="st31">
				<path class="st19" d="M604.76,1662.37l0.66,6.96c-2.71,1.6-6.14,2.5-9.53,2.68l-0.66-6.96
					C598.62,1664.87,602.04,1663.96,604.76,1662.37L604.76,1662.37z"/>
				<path class="st19" d="M595.23,1665.05l0.66,6.96c-1.36,0.07-2.72,0.03-4.02-0.13c-2.24-0.27-4.33-0.9-6.02-1.87
					c-2.22-1.28-3.4-2.95-3.56-4.71l-0.66-6.96c0.17,1.76,1.35,3.44,3.56,4.71c1.69,0.97,3.78,1.6,6.02,1.87
					C592.51,1665.08,593.87,1665.12,595.23,1665.05L595.23,1665.05z"/>
			</g>
		</g>
		<g>
			<polygon class="st19" points="792.92,1655.89 793.59,1662.85 704.19,1611.32 703.53,1604.36 			"/>
		</g>
		<g class="st11">
			<defs>
				<path id="SVGID_27_" class="st11" d="M817.03,1648.53l0.66,6.96c0.22,2.32-1.31,4.79-4.54,6.68c-3.8,2.23-8.99,3.1-13.55,2.54
					c-2.24-0.28-4.33-0.9-6.02-1.87l-0.66-6.96c1.69,0.97,3.78,1.6,6.02,1.87c4.55,0.56,9.75-0.31,13.55-2.54
					C815.72,1653.32,817.25,1650.85,817.03,1648.53z"/>
			</defs>
			<use xlink:href="#SVGID_27_"  style="overflow:visible;fill:#9FB5D4;"/>
			<clipPath id="SVGID_28_">
				<use xlink:href="#SVGID_27_"  style="overflow:visible;"/>
			</clipPath>
			<g class="st32">
				<path class="st29" d="M817.03,1648.53l0.66,6.96c0.04,0.41,0.02,0.83-0.05,1.25l-0.66-6.96
					C817.05,1649.37,817.07,1648.95,817.03,1648.53L817.03,1648.53z"/>
				<path class="st18" d="M816.98,1649.79l0.66,6.96c-0.33,1.93-1.84,3.87-4.49,5.43c-2.71,1.59-6.13,2.49-9.52,2.67l-0.66-6.96
					c3.39-0.18,6.81-1.08,9.52-2.67C815.14,1653.66,816.65,1651.72,816.98,1649.79L816.98,1649.79z"/>
				<path class="st19" d="M802.96,1657.89l0.66,6.96c-1.36,0.07-2.72,0.03-4.02-0.13c-2.24-0.28-4.33-0.9-6.02-1.87l-0.66-6.96
					c1.69,0.97,3.78,1.6,6.02,1.87C800.25,1657.92,801.6,1657.96,802.96,1657.89L802.96,1657.89z"/>
			</g>
		</g>
		<g>
			<path class="st33" d="M817.8,1521.02c2.24,0.27,4.33,0.9,6.02,1.87c5.14,2.96,4.7,8.06-0.98,11.39l-98.77,58.01l89.39,51.53
				c5.13,2.96,4.7,8.06-0.98,11.39c-3.8,2.23-8.99,3.1-13.55,2.54c-2.24-0.28-4.33-0.9-6.02-1.87l-89.39-51.53l-98.77,58.01
				c-3.8,2.24-9,3.11-13.55,2.55c-2.24-0.28-4.32-0.9-6.02-1.87c-5.14-2.96-4.7-8.06,0.97-11.4l98.77-58l-89.39-51.53
				c-5.14-2.96-4.7-8.06,0.97-11.4c3.81-2.23,9-3.1,13.55-2.54c2.24,0.28,4.33,0.9,6.02,1.87l89.39,51.53l98.77-58.01
				C808.06,1521.33,813.25,1520.46,817.8,1521.02z"/>
		</g>
	</g>
</g>
<path class="st19" d="M701.29,1593.98l5.31,0.09c8.23,0.14,14.97-6.48,14.97-14.71v-140.17h-34.74v140.07
	C686.83,1587.29,693.26,1593.84,701.29,1593.98z"/>
<g>
	<g class="st11">
		<defs>
			<polygon id="SVGID_29_" class="st11" points="679.46,1439.17 704.11,1424.84 728.93,1439.17 704.27,1453.5 			"/>
		</defs>
		<clipPath id="SVGID_30_">
			<use xlink:href="#SVGID_29_"  style="overflow:visible;"/>
		</clipPath>
		<g class="st34">
			<path class="st33" d="M716.52,1432c-6.85-3.96-17.93-3.96-24.74,0c-6.81,3.96-6.77,10.37,0.08,14.33
				c6.85,3.96,17.93,3.96,24.74,0C723.41,1442.38,723.38,1435.96,716.52,1432L716.52,1432z"/>
		</g>
	</g>
</g>
<path class="st19" d="M702.61,1444.13l3.15,0.01c4.11,0.01,7.44-3.32,7.44-7.43v-79.23l-18.02-10.37v89.59
	C695.19,1440.8,698.51,1444.13,702.61,1444.13z"/>
<path class="st18" d="M702.61,1397.83l3.15,0.01c4.11,0.01,7.44-3.32,7.44-7.43v-79.23l-18.02-10.37v89.59
	C695.19,1394.5,698.51,1397.82,702.61,1397.83z"/>
<linearGradient id="SVGID_31_" gradientUnits="userSpaceOnUse" x1="746.6028" y1="1272.8884" x2="707.1819" y2="1472.9127">
	<stop  offset="0" style="stop-color:#16375B"/>
	<stop  offset="1" style="stop-color:#1A406A"/>
</linearGradient>
<path class="st35" d="M731.25,1494.6c14.15,9.11,24.34,0,24.34,0s109.58-204.99,110.18-213.92c0.6-8.92-97.42-85.89-162.25-82.68
	c-64.83,3.21-84.5,19.1-52.22,48.03c32.28,28.93,91.53,44.29,91.53,44.29L731.25,1494.6z"/>
<g>
	<g class="st11">
		<g class="st11">
			<defs>
				<path id="SVGID_32_" class="st11" d="M549.11,1268.07l0.07-26.14c-0.01,5.15,3.39,10.31,10.19,14.24l-0.07,26.14
					C552.5,1278.38,549.1,1273.22,549.11,1268.07z"/>
			</defs>
			<clipPath id="SVGID_33_">
				<use xlink:href="#SVGID_32_"  style="overflow:visible;"/>
			</clipPath>
			<g class="st36">
				<path class="st19" d="M559.38,1256.17l-0.07,26.14c-6.81-3.93-10.21-9.09-10.19-14.24l0.07-26.14
					C549.17,1247.08,552.57,1252.24,559.38,1256.17L559.38,1256.17z"/>
			</g>
		</g>
		<g class="st11">
			<defs>
				<path id="SVGID_34_" class="st11" d="M870.84,1250.14l-0.07,26.14c-0.01,5.09-3.36,10.17-10.04,14.05l0.07-26.14
					C867.48,1260.31,870.82,1255.23,870.84,1250.14z"/>
			</defs>
			<clipPath id="SVGID_35_">
				<use xlink:href="#SVGID_34_"  style="overflow:visible;"/>
			</clipPath>
			<g class="st37">
				<path class="st38" d="M870.84,1250.14l-0.07,26.14c-0.01,3.07-1.23,6.15-3.68,8.95l0.07-26.14
					C869.6,1256.29,870.83,1253.21,870.84,1250.14L870.84,1250.14z"/>
				<path class="st39" d="M867.16,1259.09l-0.07,26.14c-1.6,1.84-3.72,3.56-6.36,5.1l0.07-26.14
					C863.44,1262.65,865.56,1260.93,867.16,1259.09L867.16,1259.09z"/>
			</g>
		</g>
		<g>
			<polygon class="st18" points="860.8,1264.19 860.73,1290.33 741.76,1359.46 741.84,1333.32 			"/>
		</g>
		<g>
			<polygon class="st19" points="693.01,1333.32 692.93,1359.46 559.3,1282.31 559.38,1256.17 			"/>
		</g>
		<g class="st11">
			<defs>
				<path id="SVGID_36_" class="st11" d="M741.84,1333.32l-0.07,26.14c-13.44,7.81-35.3,7.81-48.83,0l0.07-26.14
					C706.53,1341.13,728.4,1341.13,741.84,1333.32z"/>
			</defs>
			<clipPath id="SVGID_37_">
				<use xlink:href="#SVGID_36_"  style="overflow:visible;"/>
			</clipPath>
			<g class="st40">
				<path class="st18" d="M741.84,1333.32l-0.07,26.14c-4.88,2.83-10.86,4.64-17.16,5.42l0.07-26.14
					C730.97,1337.96,736.96,1336.16,741.84,1333.32L741.84,1333.32z"/>
				<path class="st19" d="M724.68,1338.74l-0.07,26.14c-11.05,1.36-23.05-0.44-31.67-5.42l0.07-26.14
					C701.63,1338.3,713.63,1340.1,724.68,1338.74L724.68,1338.74z"/>
			</g>
		</g>
		<g>
			<path class="st33" d="M860.65,1235.9c13.53,7.81,13.6,20.47,0.15,28.29l-118.96,69.13c-13.44,7.81-35.3,7.81-48.83,0
				l-133.63-77.15c-13.53-7.81-13.6-20.47-0.16-28.28l118.96-69.13c13.45-7.81,35.3-7.82,48.84,0L860.65,1235.9z"/>
		</g>
	</g>
</g>
<g>
	<path class="st6" d="M1000.59,628.79c-7.07-4.08-12.8-14-12.77-22.12c0.02-8.12,5.79-11.42,12.86-7.34
		c7.07,4.08,12.81,14.02,12.78,22.14C1013.44,629.59,1007.66,632.87,1000.59,628.79L1000.59,628.79z M1000.68,598.13
		c-7.64-4.41-13.88-0.85-13.9,7.93c-0.02,8.78,6.17,19.51,13.81,23.93c7.64,4.41,13.89,0.87,13.91-7.92
		C1014.53,613.28,1008.32,602.54,1000.68,598.13L1000.68,598.13z"/>
	<path class="st6" d="M1000.55,643.33c-14.05-8.11-25.43-27.83-25.39-43.97c0.05-16.14,11.51-22.67,25.55-14.56
		c14.05,8.11,25.43,27.83,25.39,43.97C1026.06,644.91,1014.6,651.44,1000.55,643.33L1000.55,643.33z M1000.72,583.58
		c-14.62-8.44-26.55-1.63-26.6,15.17c-0.05,16.8,11.81,37.33,26.43,45.77c14.62,8.44,26.55,1.64,26.6-15.16
		C1027.2,612.57,1015.34,592.02,1000.72,583.58L1000.72,583.58z"/>
</g>
<path class="st20" d="M802.06,1623.16c0.78,3.7,6.6,9.49,10.93,10.44c4.34,0.96,68.55,13.28,88.2,3.24c1.52-0.78,2.89-4.24,0-6.84
	c-2.49-2.24-52.95-25.57-67.03-32.23c-8.04-3.8-20.63-7.76-24.44-1.16C805.93,1603.21,800.63,1616.4,802.06,1623.16z"/>
<path class="st4" d="M812.14,1599.25c0.38,3.81,8.33,5.7,14.74,4.81c6.41-0.89,10.15-18.61,11.76-23.24
	c1.6-4.63-5.34-7.92-9.26-9.75c-3.92-1.83-9.78-2.54-11.93,2.63C815.31,1578.86,811.53,1593.06,812.14,1599.25z"/>
<g>
	<path class="st41" d="M987.31,658.19c0,0-7.91,1.21-9.76,7.72c-1.85,6.5-4.95,24.54-4.24,28.26c0.7,3.71,5.42,8.54,8.8,18.95
		c3.38,10.41,19.48,18.45,26.91,16.93c7.44-1.52,10.26-11.94,11.72-17.8c1.46-5.87,7.96-9.65,7.28-17.86
		c-0.68-8.22-0.91-25.7-4.01-30.87c-3.1-5.17-8.73-23.56-14.54-25.69c-5.82-2.13-3.77-23.67-8.83-23.75
		c-5.52-0.08-9.69,29.11-9.96,32.36C990.42,649.49,987.31,658.19,987.31,658.19z"/>
	<path class="st2" d="M820.76,1123.53c61.6,19.75,169.78,145.86,179.24,172.81s-155.84,285.64-161.54,287.02
		c-14.96,3.63-22.12-6.97-22.12-6.97s17.25-191.76,60.37-257.68c-29.22-9.98-63.91-31.91-139.47-23.46
		c-39.14,4.38-117.79-25.65-135.96-47.77c-18.17-22.12-35.18-61.37-32.56-85.89C571.36,1137.07,762.48,1104.84,820.76,1123.53z"/>
	
		<linearGradient id="SVGID_38_" gradientUnits="userSpaceOnUse" x1="606.3187" y1="801.3065" x2="518.6703" y2="976.6028" gradientTransform="matrix(0.9907 -0.1364 0.1364 0.9907 -101.6851 122.0314)">
		<stop  offset="0" style="stop-color:#4281F3"/>
		<stop  offset="1" style="stop-color:#1C5ED8"/>
	</linearGradient>
	<path class="st42" d="M600.96,812.69c0,0-57.82,34.94-80.4,111.26c-23.38,79.02-16.63,84.66-5.68,94.35
		c11.19,9.9,43.25,7.61,69.09,2.77c25.85-4.83,79.91-172.97,71.33-193.95C646.71,806.15,600.96,812.69,600.96,812.69z"/>
	
		<linearGradient id="SVGID_39_" gradientUnits="userSpaceOnUse" x1="731.6086" y1="898.0798" x2="902.6287" y2="1084.064" gradientTransform="matrix(0.9907 -0.1364 0.1364 0.9907 -101.6851 122.0314)">
		<stop  offset="0" style="stop-color:#4281F3"/>
		<stop  offset="1" style="stop-color:#1C5ED8"/>
	</linearGradient>
	<path class="st43" d="M688.83,787.4c0,0-61.6,4.5-85.9,23.37c-24.3,18.87-97.3,271.6-33.72,372.91
		c63.58,101.31,210.18,11.57,210.18,11.57s54.73-65.45,52.67-73.51c-2.06-8.06-12.22-96.65-7.25-101.65s16.3-35.77,31.99-47.96
		c15.69-12.19,67.31-16.43,81.08-18.32s66.43-42.59,84.96-88.3c18.52-45.71,2.09-149.76-2.16-151.05
		c-4.25-1.29-37.35,5.14-37.35,5.14s3.89,73.38-29.52,104.96c-33.42,31.58-77.42,3.92-77.42,3.92S765.48,777.93,688.83,787.4z"/>
	<path class="st41" d="M741.7,605.19c0,0,39.96-7.53,58.82,9.3c18.86,16.83,22.16,46.04,20.89,59.17
		c-5.7,58.84-30.77,83.68-39.15,87.76c-8.38,4.07-24.46,9.12-33.09,7.84c-7.16-1.06-31.14-13.21-36.3-23.29
		c-5.16-10.08-20.86-43.16-23.57-61.5c-2.71-18.34,7.38-44.31,17.01-51.8C715.96,625.18,731.84,606.42,741.7,605.19z"/>
	<path class="st41" d="M761.84,746.42c-0.21,19.97-2.33,45.64-0.65,52.6c1.68,6.96,7.81,5.11,1.78,13.28
		c-6.02,8.17-41.83,11.93-54.69,10.01c-11.92-1.78-32.33-7.91-30.5-20.79c1.25-8.82,7.24-6.31,13.27-11.41
		c6.02-5.1,11.91-26.35,15.36-32.52c3.45-6.18-3.99-35.36,0.15-36.65C710.7,719.65,762.19,712.81,761.84,746.42z"/>
	<path class="st20" d="M841.06,611.07c21.17,30.08-27.47,30.4-30.85,42.37c-3.39,11.98-0.27,40.5-11.3,49.21
		c-11.03,8.71-18.72-12.53-27.73-3.56c-5.91,5.88,6.86,23.97-10.46,39.07c-17.32,15.11-40.41,25.66-53.37,12.37
		c-23.6-24.21-24.01-67.39-21.43-90.78c1.73-15.7,23.2-42.67,36.02-51.91c10.91-7.86,37.3-17.39,50.74-17.85
		C790.54,589.39,834.35,601.54,841.06,611.07z"/>
</g>
<g>
	<g class="st11">
		<g class="st11">
			<defs>
				<path id="SVGID_40_" class="st11" d="M531.61,1010.79l22.6-13.13c4.45-2.59,10.62-2.22,17.44,1.71l-22.6,13.13
					C542.24,1008.57,536.07,1008.2,531.61,1010.79z"/>
			</defs>
			<clipPath id="SVGID_41_">
				<use xlink:href="#SVGID_40_"  style="overflow:visible;"/>
			</clipPath>
			<g class="st44">
				<path class="st33" d="M531.61,1010.79l22.6-13.13c3-1.75,6.79-2.15,11.03-1.02l-22.6,13.13
					C538.4,1008.64,534.62,1009.05,531.61,1010.79L531.61,1010.79z"/>
				<path class="st33" d="M542.64,1009.77l22.6-13.13c2.04,0.55,4.19,1.45,6.41,2.73l-22.6,13.13
					C546.83,1011.22,544.68,1010.32,542.64,1009.77L542.64,1009.77z"/>
			</g>
		</g>
		<g class="st11">
			<defs>
				<path id="SVGID_42_" class="st11" d="M722.38,1194.26l-22.6,13.13c4.4-2.56,7.12-7.99,7.15-15.71l22.6-13.13
					C729.5,1186.27,726.77,1191.7,722.38,1194.26z"/>
			</defs>
			<clipPath id="SVGID_43_">
				<use xlink:href="#SVGID_42_"  style="overflow:visible;"/>
			</clipPath>
			<path class="st45" d="M706.92,1191.68c0,0.7-0.03,1.37-0.07,2.03c-0.46,6.65-3.07,11.35-7.07,13.68l22.6-13.13
				c4-2.32,6.62-7.03,7.07-13.68c0.05-0.66,0.07-1.34,0.07-2.03L706.92,1191.68z"/>
		</g>
		<g>
			<polygon class="st18" points="707.09,1131.94 729.69,1118.81 729.52,1178.55 706.92,1191.68 			"/>
		</g>
		<g>
			<polygon class="st33" points="549.05,1012.5 571.65,999.37 705.28,1076.52 682.68,1089.65 			"/>
		</g>
		<g class="st11">
			<defs>
				<path id="SVGID_44_" class="st11" d="M682.68,1089.65l22.6-13.13c13.53,7.81,24.46,26.74,24.41,42.29l-22.6,13.13
					C707.14,1116.4,696.2,1097.46,682.68,1089.65z"/>
			</defs>
			<clipPath id="SVGID_45_">
				<use xlink:href="#SVGID_44_"  style="overflow:visible;"/>
			</clipPath>
			<g class="st46">
				<path class="st33" d="M682.68,1089.65l22.6-13.13c0.65,0.38,1.3,0.78,1.94,1.21l-22.6,13.13
					C683.98,1090.43,683.33,1090.03,682.68,1089.65L682.68,1089.65z"/>
				<path class="st33" d="M684.62,1090.86l22.6-13.13c3.11,2.08,6.06,4.73,8.73,7.77l-22.6,13.13
					C690.68,1095.59,687.73,1092.94,684.62,1090.86L684.62,1090.86z"/>
				<path class="st19" d="M693.35,1098.63l22.6-13.13c3.85,4.37,7.13,9.55,9.51,14.96l-22.6,13.13
					C700.48,1108.18,697.2,1103.01,693.35,1098.63L693.35,1098.63z"/>
				<path class="st18" d="M702.87,1113.6l22.6-13.13c1.5,3.41,2.65,6.91,3.37,10.37l-22.6,13.13
					C705.52,1120.5,704.37,1117,702.87,1113.6L702.87,1113.6z"/>
				<path class="st18" d="M706.24,1123.96l22.6-13.13c0.56,2.71,0.86,5.39,0.85,7.98l-22.6,13.13
					C707.1,1129.35,706.8,1126.67,706.24,1123.96L706.24,1123.96z"/>
			</g>
		</g>
		<g>
			<path class="st19" d="M682.68,1089.65c13.53,7.81,24.46,26.74,24.41,42.29l-0.17,59.74c-0.04,15.54-11.05,21.81-24.57,14
				l-133.63-77.15c-13.53-7.81-24.47-26.75-24.42-42.29l0.17-59.74c0.04-15.54,11.05-21.81,24.58-14L682.68,1089.65z"/>
		</g>
	</g>
</g>
<g>
	<g class="st11">
		<g class="st11">
			<defs>
				<path id="SVGID_46_" class="st11" d="M631.28,1314.07l-26.37-15.32c2.22,1.29,5.3,1.11,8.69-0.85l26.37,15.32
					C636.58,1315.18,633.5,1315.36,631.28,1314.07z"/>
			</defs>
			<clipPath id="SVGID_47_">
				<use xlink:href="#SVGID_46_"  style="overflow:visible;"/>
			</clipPath>
			<g class="st47">
				<path class="st48" d="M631.28,1314.07l-26.37-15.32c0.48,0.28,0.99,0.49,1.55,0.63l26.37,15.32
					C632.28,1314.56,631.76,1314.35,631.28,1314.07L631.28,1314.07z"/>
				<path class="st33" d="M632.83,1314.7l-26.37-15.32c2.01,0.51,4.48,0.07,7.14-1.47l26.37,15.32
					C637.31,1314.76,634.84,1315.2,632.83,1314.7L632.83,1314.7z"/>
			</g>
		</g>
		<g class="st11">
			<defs>
				<path id="SVGID_48_" class="st11" d="M622.39,1329.38l-26.37-15.32c-4.45-2.59-7.21-8.08-7.24-15.88l26.37,15.32
					C615.18,1321.31,617.94,1326.8,622.39,1329.38z"/>
			</defs>
			<clipPath id="SVGID_49_">
				<use xlink:href="#SVGID_48_"  style="overflow:visible;"/>
			</clipPath>
			<g class="st49">
				<path class="st19" d="M622.39,1329.38l-26.37-15.32c-4.45-2.59-7.21-8.08-7.24-15.88l26.37,15.32
					C615.18,1321.31,617.94,1326.8,622.39,1329.38L622.39,1329.38z"/>
			</g>
		</g>
		<g>
			<polygon class="st19" points="615.16,1313.51 588.79,1298.19 588.27,1114.36 614.63,1129.69 			"/>
		</g>
		<g class="st11">
			<defs>
				<path id="SVGID_50_" class="st11" d="M599,1103.08l26.37,15.32c-1.14-0.66-2.73-0.57-4.48,0.44l-26.37-15.32
					C596.27,1102.51,597.86,1102.42,599,1103.08z"/>
			</defs>
			<clipPath id="SVGID_51_">
				<use xlink:href="#SVGID_50_"  style="overflow:visible;"/>
			</clipPath>
			<path class="st50" d="M599,1103.08c-0.25-0.14-0.51-0.25-0.79-0.32c-1.04-0.26-2.31-0.03-3.68,0.76l26.37,15.32
				c1.37-0.79,2.65-1.02,3.68-0.76c0.28,0.07,0.55,0.18,0.79,0.32L599,1103.08z"/>
		</g>
		<g class="st11">
			<defs>
				<path id="SVGID_52_" class="st11" d="M614.63,1129.69l-26.37-15.32c-0.01-3.98,2.79-8.84,6.26-10.84l26.37,15.32
					C617.43,1120.85,614.62,1125.7,614.63,1129.69z"/>
			</defs>
			<clipPath id="SVGID_53_">
				<use xlink:href="#SVGID_52_"  style="overflow:visible;"/>
			</clipPath>
			<g class="st51">
				<path class="st33" d="M614.63,1129.69l-26.37-15.32c-0.01-1.89,0.62-3.98,1.66-5.87l26.37,15.32
					C615.26,1125.71,614.63,1127.8,614.63,1129.69L614.63,1129.69z"/>
				<path class="st33" d="M616.29,1123.82l-26.37-15.32c1.14-2.08,2.78-3.92,4.6-4.97l26.37,15.32
					C619.07,1119.9,617.44,1121.74,616.29,1123.82L616.29,1123.82z"/>
			</g>
		</g>
		<g>
			<path class="st18" d="M620.89,1118.85c3.47-2.01,6.29-0.4,6.31,3.59l0.52,183.82c0.02,7.73,5.51,10.86,12.25,6.97l0.04,14.45
				c-13.66,7.89-24.81,1.53-24.85-14.16l-0.52-183.82C614.62,1125.7,617.43,1120.85,620.89,1118.85z"/>
		</g>
	</g>
</g>
<linearGradient id="SVGID_54_" gradientUnits="userSpaceOnUse" x1="330.3207" y1="1494.9185" x2="433.2914" y2="1494.9185">
	<stop  offset="0" style="stop-color:#16375B"/>
	<stop  offset="1" style="stop-color:#1A406A"/>
</linearGradient>
<path class="st52" d="M407.55,1556.5c20.11-27.49,25.74-133.76,25.74-133.76H330.32c0,0,5.64,106.28,25.74,133.76
	c4.32,5.91,16.7,10.6,25.74,10.6C390.85,1567.1,403.22,1562.41,407.55,1556.5z"/>
<g>
	<path class="st19" d="M418.11,1401.79c-20.15-11.64-52.72-11.64-72.74,0c-20.02,11.64-19.91,30.5,0.24,42.13
		c20.15,11.63,52.72,11.63,72.74,0C438.37,1432.29,438.26,1413.42,418.11,1401.79L418.11,1401.79z"/>
</g>
<g>
	<path class="st4" d="M412.18,1405.24c-16.86-9.73-44.1-9.73-60.85,0c-16.75,9.73-16.66,25.51,0.2,35.24
		c16.86,9.73,44.1,9.73,60.84,0C429.12,1430.75,429.04,1414.97,412.18,1405.24L412.18,1405.24z"/>
</g>
<path class="st18" d="M351.33,1414.59c16.75-9.73,43.99-9.73,60.85,0c6.4,3.69,10.37,8.26,11.94,13.03
	c2.59-7.86-1.4-16.3-11.94-22.39c-16.86-9.73-44.1-9.73-60.85,0c-10.39,6.04-14.29,14.4-11.74,22.21
	C341.14,1422.73,345.06,1418.24,351.33,1414.59z"/>
<path class="st0" d="M299.51,941.3c0,0-45.51,71.2-46.93,126.93c5.26,8.18,38.88,10.42,38.48,21.42
	c-0.4,11.23-41.36,13.14-42.77,13.89c-1.41,0.75-0.8,0.43-0.77,22.22c0.03,21.8,24.3,52.78,24.3,52.78s30.23-28.73,34.4-16.28
	c4.47,13.33-24.43,27.82-24.43,27.82s-3.36,8.27,2.86,16.18c6.22,7.91,55.39,27.35,77.51,44.15c8.4,6.38,17.3,23.59,18.51,37.9
	c4.29,50.86,2.51,142.62,2.51,142.62l2.05,0.14c0,0,0.52-136.34-0.02-143.29c-0.7-9.16,63.36-120.95,26.99-166.31
	c-7.71-9.62-30.48-1.98-31.36-7.11c-0.85-4.96,15.03-6.86,16.39-11.71c4.23-15.06-35.08-67.05-35.08-67.05s-15.77,11.15-19.57,5.41
	c-3.8-5.73,11.84-15.45,11.84-15.45s-10.05-16.65-18.9-24.22C311.01,980.37,299.51,941.3,299.51,941.3z"/>
<path class="st0" d="M238.54,1282.31c0,0,4.84,13.58,14.39,16.6c9.55,3.03,14.44-6.38,26.37,5.34c6.43,6.32,0.97,15.08,5.26,20.67
	c0,0,17.35-5.13,19.32-0.71c2.12,4.76-13.65,12.6-11.56,14.18c40.67,30.71,43.47-7.62,46.84-5.99
	c37.29,18.09,44.15,98.24,44.15,98.24l1.67-0.01c0,0-2.88-64.38-40.91-103.74c-1.37-1.42,3.58,1.45,5.22,2.05
	c9.19,3.34,14.97,3.1,11.25-14.86c-4.38-21.17-28.33-34.29-34.23-30.88c-5.89,3.4-13.62-8.27-20.99-11.57
	C264.33,1253.31,238.54,1282.31,238.54,1282.31z"/>
<path class="st0" d="M391.86,1362.07c-6.96,29.66-7.63,68.79-7.63,68.79h2.55c0,0-4.41-77.34,28.46-107.54
	c10.33-9.49,25.09,14.72,41.95,5.6c37.84-20.46,43.62-41.77,36.78-64.73c-0.28-0.93-18.85,0.42-20.31-5
	c-1.42-5.31,20.67-7.55,20.29-8.46c-1.02-2.45-2.21-4.8-3.55-7.04c-14.23-23.84-12.04-41.01-12.04-41.01s-17.8,14.27-23.26,36.85
	c-4.96,20.5-10.72,30.22-23.26,40.09c-1.28,1,11.39,2.92,10.7,5.89c-1.03,4.39-16.94-1.27-18.02-0.47
	c-13.91,10.32-24.74,21.03-17.67,27.76c2.45,2.33,5.52,7.92,2.26,12.25C402.55,1333.75,394.45,1351.06,391.86,1362.07z"/>
<g>
	<path class="st6" d="M366.13,563.9c-2.08-1.2-3.09-3.92-3.89-6.1c-0.82-2.22-1.39-3.62-2.37-4.18c-0.98-0.57-1.55,0.17-2.37,1.44
		c-0.82,1.24-1.83,2.8-3.92,1.59c-0.07-0.04-0.14-0.09-0.21-0.13l5.19,14.88l2.71,1.56l5.22-8.89
		C366.37,564.03,366.25,563.97,366.13,563.9z"/>
	<path class="st6" d="M360.07,514.76c-0.13-0.08-0.27-0.15-0.4-0.23c-15.52-8.71-28.25-1.55-28.62,16.08
		c-0.18,8.82,2.68,18.6,7.48,27.46c5.59,10.31,8.69,21.33,8.67,30.9l0,0.96l10.82,6.24l0.07-24.67l-5.42-15.55
		c-1.47-1.37-2.28-3.58-2.96-5.41c-0.82-2.22-1.38-3.61-2.36-4.18l0.01-2c2.08,1.2,3.09,3.92,3.89,6.11
		c0.82,2.22,1.38,3.6,2.36,4.17c0.99,0.57,1.55-0.16,2.38-1.43c0.81-1.25,1.83-2.8,3.91-1.6c2.09,1.21,3.09,3.92,3.89,6.11
		c0.82,2.22,1.39,3.61,2.37,4.17c0.98,0.57,1.55-0.16,2.38-1.43c0.81-1.25,1.83-2.8,3.91-1.6l-0.01,2
		c-0.98-0.57-1.55,0.17-2.38,1.44c-0.66,1.01-1.45,2.22-2.83,2l-5.47,9.31l-0.07,24.67l10.82,6.24l0-0.96
		c0.03-9.64,3.31-16.97,8.95-20.89c4.63-3.22,7.46-9.4,7.48-17.95C388.97,546.36,376.05,523.99,360.07,514.76z"/>
	<path class="st6" d="M355.63,624.22c0.59,2.24,2.17,4.51,4.03,5.59c1.84,1.06,3.41,0.64,4.03-0.86c-1.24-0.25-2.56-0.76-3.93-1.55
		C358.31,626.56,356.92,625.48,355.63,624.22z"/>
	<polygon class="st6" points="358,596.18 361.67,598.3 361.67,598.3 358,596.18 	"/>
	<polygon class="st6" points="384.33,531.64 385.55,533.76 392.84,529.61 391.62,527.49 	"/>
	<polygon class="st6" points="395.2,566.36 395.2,568.36 405.47,574.29 405.48,572.29 	"/>
	
		<rect x="387.69" y="589.11" transform="matrix(0.866 -0.5 0.5 0.866 -246.1378 274.0953)" class="st6" width="1.42" height="14.48"/>
	<polygon class="st6" points="360.92,495.11 359.17,494.1 359.14,505.9 360.89,506.91 	"/>
	<polygon class="st6" points="335.63,503.53 328.39,490.98 327.15,491.68 334.39,504.23 	"/>
	<polygon class="st6" points="314.32,521.66 324.59,527.6 324.6,525.6 314.32,519.66 	"/>
	<polygon class="st6" points="326.95,564.34 328.18,566.47 335.47,562.32 334.24,560.19 	"/>
	<polygon class="st6" points="347.17,595.64 372.47,610.24 372.48,607.09 347.18,592.49 	"/>
	<polygon class="st6" points="347.16,601.35 372.45,615.95 372.46,612.8 347.16,598.2 	"/>
	<path class="st6" d="M347.14,605.55c-0.02,6.37,3.53,13.84,8.49,18.67c1.29,1.26,2.68,2.34,4.12,3.17c1.37,0.79,2.7,1.3,3.93,1.55
		c5.07,1.02,8.74-2.34,8.76-8.79l0-1.43l-25.3-14.61L347.14,605.55z"/>
</g>
<g>
	<polygon class="st6" points="484.41,636.24 401.37,588.3 401.35,595.93 484.39,643.88 484.41,636.24 	"/>
	<polygon class="st6" points="484.35,656.28 401.31,608.33 401.29,615.97 484.33,663.92 484.35,656.28 	"/>
</g>
<path class="st6" d="M1050.34,540.97c4.68-4.15,4.51-14.17-0.75-23.83c-5.86-10.75-15.82-16.99-22.24-13.93
	c-6.42,3.06-6.88,14.26-1.02,25.01c5.26,9.66,13.83,15.67,20.18,14.57c3.41,7.68,11.96,26.2,16.61,29.81
	c1.26,0.98,3.36-0.03,3.25-1.55C1065.98,565.42,1054.98,548.07,1050.34,540.97L1050.34,540.97z M1045.25,536.06
	c-4.41,2.1-11.25-2.18-15.28-9.57c-4.03-7.39-3.71-15.08,0.7-17.19c4.41-2.1,11.25,2.18,15.28,9.57
	C1049.98,526.26,1049.66,533.96,1045.25,536.06L1045.25,536.06z"/>
<g>
	<polygon class="st4" points="1177.13,1068.23 1057.29,999.04 1177.13,1068.23 	"/>
	<path class="st4" d="M1040.48,984.46l-34.19-19.74l-0.01,4.86l34.19,19.74c-0.17-0.88-0.26-1.74-0.25-2.58
		C1040.21,985.9,1040.3,985.14,1040.48,984.46L1040.48,984.46z M1177.14,1063.37l-119.84-69.19c0.17,0.88,0.26,1.74,0.25,2.58
		c0,0.84-0.09,1.6-0.27,2.28l119.84,69.19L1177.14,1063.37L1177.14,1063.37z"/>
	<path class="st4" d="M1048.91,981.78c-4.06-2.34-7.48-1.1-8.43,2.68c-0.17,0.68-0.27,1.44-0.27,2.28c0,0.84,0.09,1.7,0.25,2.58
		c0.93,4.87,4.33,10.05,8.39,12.39c4.06,2.35,7.48,1.1,8.44-2.68c0.17-0.68,0.26-1.44,0.27-2.28c0-0.84-0.09-1.71-0.25-2.58
		C1056.37,989.3,1052.97,984.13,1048.91,981.78L1048.91,981.78z"/>
	<path class="st4" d="M1126.08,1060.7l-119.87-69.21l-0.01,4.86l119.87,69.21c-0.17-0.88-0.26-1.74-0.25-2.58
		C1125.81,1062.14,1125.9,1061.38,1126.08,1060.7L1126.08,1060.7z M1177.07,1090.14l-34.16-19.72c0.17,0.88,0.26,1.74,0.25,2.58
		c0,0.84-0.09,1.6-0.27,2.28l34.16,19.72L1177.07,1090.14L1177.07,1090.14z"/>
	<path class="st4" d="M1134.51,1058.03c-4.06-2.34-7.48-1.11-8.44,2.67c-0.17,0.68-0.27,1.44-0.27,2.28c0,0.84,0.09,1.7,0.25,2.58
		c0.93,4.87,4.33,10.05,8.4,12.4c4.06,2.34,7.48,1.1,8.43-2.68c0.17-0.68,0.26-1.44,0.27-2.28c0-0.84-0.09-1.71-0.25-2.58
		C1141.97,1065.54,1138.57,1060.37,1134.51,1058.03L1134.51,1058.03z"/>
</g>
<polygon class="st7" points="1226.19,999.6 1354.9,1073.91 1354.9,1133.36 1244.78,1069.79 1226.19,1078.06 "/>
<polygon class="st0" points="1245.08,974.28 1116.36,899.58 1116.36,959.03 1226.48,1025.37 1245.08,1052.75 "/>
<g>
	<g>
		<path class="st7" d="M1164.54,811.58c-0.26-1.96-0.39-3.97-0.39-6h2.14c0,1.93,0.12,3.86,0.37,5.72L1164.54,811.58z"/>
	</g>
	<g>
		<path class="st7" d="M1249.7,862.11c-2.53,0-5.09-0.07-7.59-0.2l0.11-2.13c3.9,0.2,7.87,0.24,11.83,0.13l0.06,2.14
			C1252.63,862.09,1251.16,862.11,1249.7,862.11z M1260.64,861.7l-0.16-2.13c3.94-0.29,7.9-0.75,11.76-1.35l0.33,2.11
			C1268.66,860.95,1264.64,861.41,1260.64,861.7z M1235.57,861.42c-4.03-0.4-8.04-0.97-11.9-1.7l0.4-2.1
			c3.8,0.72,7.74,1.28,11.71,1.67L1235.57,861.42z M1279.03,859.17l-0.43-2.09c3.9-0.8,7.76-1.76,11.48-2.87l0.61,2.05
			C1286.92,857.37,1282.99,858.36,1279.03,859.17z M1217.26,858.33c-3.99-0.98-7.86-2.15-11.52-3.48l0.73-2.01
			c3.59,1.31,7.39,2.45,11.3,3.41L1217.26,858.33z M1296.94,854.21l-0.72-2.01c3.77-1.34,7.44-2.86,10.92-4.51l0.92,1.93
			C1304.52,851.3,1300.78,852.84,1296.94,854.21z M1199.63,852.39c-3.81-1.69-7.39-3.59-10.66-5.66l1.14-1.81
			c3.18,2.01,6.67,3.87,10.38,5.51L1199.63,852.39z M1313.91,846.62l-1.03-1.87c3.51-1.93,6.86-4.06,9.97-6.31l1.25,1.73
			C1320.92,842.47,1317.49,844.64,1313.91,846.62z M1183.57,842.94c-3.32-2.58-6.27-5.4-8.76-8.38l1.64-1.37
			c2.4,2.86,5.24,5.57,8.44,8.06L1183.57,842.94z M1329.29,836.12l-1.38-1.64c3.04-2.56,5.87-5.32,8.42-8.19l1.6,1.42
			C1335.32,830.66,1332.41,833.49,1329.29,836.12z M1170.89,829.2c-2.19-3.49-3.87-7.23-4.99-11.1l2.05-0.6
			c1.07,3.68,2.66,7.23,4.75,10.56L1170.89,829.2z M1342.08,822.6l-1.72-1.28c2.34-3.15,4.43-6.5,6.21-9.95l1.9,0.98
			C1346.65,815.91,1344.5,819.35,1342.08,822.6z M1351.23,806.37l-1.98-0.8c1.45-3.58,2.64-7.34,3.52-11.19l2.08,0.48
			C1353.94,798.81,1352.72,802.68,1351.23,806.37z M1356.05,788.38l-2.12-0.3c0.49-3.44,0.78-7.02,0.84-10.65
			c-0.06,0.02-0.11,0.03-0.17,0.05l-0.58-2.06c3.77-1.06,7.49-2.42,11.03-4.04l0.89,1.94c-2.92,1.33-5.94,2.49-9.03,3.46
			C1356.88,780.74,1356.59,784.64,1356.05,788.38z M1336.18,780.35l-0.07-2.14c3.86-0.12,7.79-0.57,11.67-1.32l0.41,2.1
			C1344.19,779.77,1340.15,780.22,1336.18,780.35z M1329.58,780.26c-4.16-0.25-8.19-0.88-11.97-1.86l0.54-2.07
			c3.65,0.95,7.54,1.55,11.56,1.8L1329.58,780.26z M1311.3,776.34c-3.96-1.58-7.53-3.6-10.61-5.99l1.31-1.69
			c2.92,2.27,6.31,4.19,10.09,5.69L1311.3,776.34z M1371.82,770.34l-1.05-1.86c3.43-1.93,6.7-4.14,9.72-6.57l1.34,1.67
			C1378.72,766.07,1375.35,768.35,1371.82,770.34z M1354.67,769.9c-0.16-4.12-0.5-8.08-1.01-11.77l2.12-0.29
			c0.51,3.75,0.86,7.78,1.02,11.97L1354.67,769.9z M1295.82,765.77c-2.75-3.13-4.84-6.68-6.21-10.55l2.01-0.71
			c1.28,3.62,3.23,6.93,5.8,9.85L1295.82,765.77z M1386.79,759.22l-1.48-1.54c2.82-2.72,5.41-5.69,7.7-8.83l1.73,1.26
			C1392.37,753.35,1389.69,756.41,1386.79,759.22z M1352.58,751.8c-0.84-4.07-1.93-7.86-3.25-11.27l1.99-0.77
			c1.36,3.52,2.48,7.42,3.35,11.61L1352.58,751.8z M1288.01,748.71c-0.26-1.77-0.39-3.61-0.39-5.48c0-2.26,0.37-4.55,1.11-6.79
			l2.03,0.67c-0.66,2.03-1,4.09-1,6.13c0,1.76,0.12,3.51,0.36,5.17L1288.01,748.71z M1398.37,744.6l-1.84-1.09
			c1.98-3.32,3.7-6.87,5.12-10.54l1.99,0.77C1402.19,737.52,1400.41,741.17,1398.37,744.6z M1346.7,734.74
			c-1.94-3.64-4.23-6.77-6.82-9.32l1.5-1.52c2.74,2.7,5.16,6.01,7.2,9.83L1346.7,734.74z M1293.47,731.53l-1.79-1.17
			c2.15-3.29,5.11-6.31,8.58-8.75l1.23,1.75C1298.25,725.64,1295.47,728.46,1293.47,731.53z M1405.76,727.49l-2.05-0.6
			c1.07-3.67,1.88-7.54,2.42-11.5l2.12,0.29C1407.69,719.75,1406.85,723.72,1405.76,727.49z M1335,721.51
			c-3.26-2.08-6.85-3.41-10.67-3.97l0.31-2.12c4.12,0.6,7.99,2.04,11.5,4.28L1335,721.51z M1306.96,720.22l-0.89-1.94
			c3.83-1.75,7.81-2.78,11.84-3.08l0.16,2.13C1314.3,717.61,1310.56,718.58,1306.96,720.22z"/>
	</g>
	<g>
		<path class="st7" d="M1408.92,708.82l-2.13-0.13c0.11-1.89,0.17-3.85,0.17-5.81h2.14
			C1409.09,704.89,1409.03,706.89,1408.92,708.82z"/>
	</g>
</g>
<g>
	<path class="st4" d="M549.53,157.63c-4.29-2.48-7.78-0.49-7.79,4.44c-0.01,4.93,3.45,10.93,7.74,13.41
		c4.29,2.48,7.78,0.49,7.79-4.45C557.29,166.11,553.82,160.1,549.53,157.63L549.53,157.63z"/>
	<path class="st41" d="M575.75,172.76c-4.29-2.48-7.78-0.49-7.8,4.44c-0.01,4.93,3.45,10.94,7.75,13.42
		c4.29,2.48,7.78,0.49,7.79-4.45C583.5,181.24,580.04,175.24,575.75,172.76L575.75,172.76z"/>
	<path class="st6" d="M601.96,187.89c-4.29-2.48-7.78-0.49-7.79,4.44c-0.01,4.93,3.45,10.94,7.74,13.41
		c4.29,2.48,7.78,0.49,7.8-4.44C609.72,196.38,606.25,190.37,601.96,187.89L601.96,187.89z"/>
</g>
<g>
	<path class="st7" d="M320.92,538.48c-3.88-0.66-7.76-1.71-11.53-3.13l0.75-2c3.64,1.37,7.38,2.39,11.13,3.02L320.92,538.48z
		 M303.42,532.75c-3.54-1.75-6.97-3.85-10.18-6.23l1.27-1.72c3.11,2.3,6.43,4.33,9.86,6.03L303.42,532.75z M288.19,522.41
		c-2.97-2.66-5.71-5.6-8.15-8.71l1.68-1.32c2.36,3.02,5.02,5.86,7.9,8.44L288.19,522.41z M465.85,510.42l-1.85-1.06
		c1.91-3.33,3.62-6.84,5.1-10.43l1.98,0.81C469.56,503.41,467.8,507.01,465.85,510.42z M276.28,508.38
		c-2.16-3.39-3.99-6.97-5.45-10.63l1.99-0.79c1.41,3.53,3.18,6.99,5.26,10.27L276.28,508.38z M473.31,493.65l-2.03-0.67
		c1.21-3.65,2.2-7.43,2.95-11.24l2.1,0.41C475.57,486.04,474.55,489.91,473.31,493.65z M268.75,491.57
		c-0.95-3.43-1.57-7.4-1.85-11.82l2.13-0.13c0.27,4.26,0.87,8.09,1.77,11.38L268.75,491.57z M477.37,475.75l-2.12-0.27
		c0.49-3.84,0.75-7.74,0.76-11.59l2.14,0.01C478.13,467.84,477.87,471.83,477.37,475.75z M268.89,473.29l-2.14-0.03
		c0.05-3.9,0.36-7.89,0.92-11.86l2.12,0.3C269.24,465.58,268.94,469.48,268.89,473.29z M475.83,457.55
		c-0.24-3.87-0.73-7.75-1.46-11.52l2.1-0.4c0.74,3.86,1.24,7.83,1.49,11.79L475.83,457.55z M270.87,455.45l-2.09-0.44
		c0.84-3.99,1.92-7.84,3.22-11.46l2.01,0.72C272.75,447.8,271.69,451.56,270.87,455.45z M314.88,447.29l-0.15-2.13
		c3.49-0.24,6.83-1.87,9.65-4.72l1.52,1.5C322.72,445.17,318.91,447.02,314.88,447.29z M308.14,446.24
		c-0.22-0.09-0.45-0.18-0.67-0.28c-3.32-1.43-5.81-4.43-7.41-8.93l2.01-0.72c1.39,3.91,3.49,6.5,6.24,7.68
		c0.2,0.09,0.4,0.17,0.6,0.24L308.14,446.24z M472.96,439.85c-0.72-2.71-1.57-5.4-2.53-8c-0.37-1.01-0.76-2.01-1.17-3l1.98-0.81
		c0.42,1.02,0.82,2.04,1.2,3.07c0.99,2.67,1.86,5.42,2.6,8.2L472.96,439.85z M276.4,438.43l-1.94-0.9c1.76-3.8,3.79-7.27,6.05-10.31
		l1.72,1.27C280.06,431.41,278.1,434.76,276.4,438.43z M329.85,436.52l-1.9-0.99c1.43-2.76,2.19-5.71,2.19-8.52
		c0-0.75-0.05-1.49-0.16-2.19l2.11-0.32c0.12,0.81,0.19,1.66,0.19,2.52C332.29,430.17,331.45,433.46,329.85,436.52z M298.54,430.6
		c-0.31-2.22-0.47-4.64-0.47-7.19c0-1.54,0.06-3.15,0.17-4.77l2.13,0.15c-0.11,1.57-0.17,3.13-0.17,4.62c0,2.45,0.15,4.77,0.45,6.89
		L298.54,430.6z M286.29,423.73l-1.52-1.5c2.93-2.97,6.18-5.38,9.66-7.18l0.98,1.9C292.13,418.64,289.06,420.92,286.29,423.73z
		 M466.64,423.08c-1.75-3.5-3.73-6.86-5.9-9.98l1.76-1.22c2.22,3.21,4.26,6.65,6.05,10.25L466.64,423.08z M327.8,419.4
		c-1.98-2.7-5.08-4.55-9.24-5.5l0.48-2.08c4.67,1.07,8.19,3.19,10.48,6.32L327.8,419.4z M301.15,414.64l-0.61-2.05
		c0.13-0.04,0.26-0.08,0.38-0.11l-1.95-0.3c0.62-4,1.52-7.9,2.68-11.61l2.04,0.64c-1.12,3.58-1.99,7.36-2.59,11.22
		c3.49-0.98,7.2-1.44,11.08-1.38l0.28,0.01l-0.05,2.14l-0.92-0.01C307.88,413.18,304.4,413.67,301.15,414.64z M456.93,408.05
		c-0.23-0.28-0.46-0.55-0.69-0.83c-2.22-2.61-4.69-5.14-7.34-7.52l1.43-1.59c2.72,2.45,5.26,5.05,7.54,7.73
		c0.24,0.28,0.48,0.57,0.72,0.85L456.93,408.05z M444.03,395.64c-2.95-2.28-6.17-4.49-9.6-6.57l1.11-1.83
		c3.49,2.12,6.79,4.37,9.8,6.71L444.03,395.64z M305.86,395.28l-1.97-0.84c1.47-3.44,3.11-6.3,4.86-8.49
		c0.48-0.6,0.97-1.18,1.47-1.76l1.61,1.41c-0.48,0.55-0.95,1.11-1.41,1.68C308.8,389.33,307.26,392.02,305.86,395.28z
		 M428.91,385.92c-3.26-1.75-6.8-3.47-10.5-5.1l0.86-1.96c3.76,1.65,7.34,3.39,10.65,5.17L428.91,385.92z M316.27,381.17l-1.41-1.61
		c2.93-2.57,6.22-4.89,9.79-6.87l1.04,1.87C322.25,376.48,319.08,378.7,316.27,381.17z M412.53,378.36c-2.53-1.01-5.23-2.02-8-3.01
		c-0.99-0.35-1.98-0.7-2.98-1.04l0.69-2.02c1,0.34,2,0.69,3,1.05c2.8,1,5.52,2.02,8.08,3.04L412.53,378.36z M395.48,372.34
		c-3.9-1.2-7.69-2.23-11.27-3.06l0.48-2.08c3.63,0.84,7.47,1.89,11.42,3.1L395.48,372.34z M331.34,371.79l-0.84-1.97
		c3.59-1.53,7.4-2.78,11.34-3.71l0.49,2.08C338.51,369.1,334.82,370.31,331.34,371.79z M377.98,367.98
		c-3.95-0.72-7.83-1.22-11.54-1.49l0.16-2.13c3.79,0.28,7.75,0.79,11.77,1.52L377.98,367.98z M348.54,367.02l-0.31-2.12
		c2.11-0.3,4.25-0.52,6.38-0.65c1.68-0.1,3.4-0.15,5.13-0.15l0.37,0l-0.01,2.14l-0.37,0c-1.68,0-3.36,0.05-5,0.15
		C352.67,366.52,350.59,366.73,348.54,367.02z"/>
</g>
<g>
	<polygon class="st0" points="1463.5,734.92 1463.37,734.84 1428.87,750.21 1394.57,695.12 1394.44,695.05 1394.31,742.24 
		1463.37,782.11 1463.5,734.92 	"/>
	<polygon class="st0" points="1463.38,730.91 1394.58,691.19 1428.88,746.27 1463.38,730.91 	"/>
</g>
<g>
	<g>
		<path class="st0" d="M1167.62,798.71c-0.84,0-1.75-0.27-2.68-0.81l0,0c-3.12-1.8-5.65-6.18-5.64-9.76
			c0.01-1.85,0.66-3.24,1.85-3.92c1.2-0.69,2.74-0.55,4.35,0.38c3.12,1.8,5.65,6.18,5.64,9.77c-0.01,1.84-0.66,3.23-1.85,3.92
			C1168.79,798.57,1168.23,798.71,1167.62,798.71z M1165.47,796.98c1.27,0.73,2.44,0.87,3.29,0.38c0.84-0.49,1.31-1.55,1.31-2.99
			c0.01-3.24-2.28-7.21-5.11-8.84c-1.27-0.73-2.44-0.87-3.29-0.38c-0.84,0.49-1.31,1.55-1.32,3
			C1160.36,791.38,1162.65,795.35,1165.47,796.98L1165.47,796.98z"/>
	</g>
	<g>
		<path class="st6" d="M1170.24,806.28c-1.64,0-3.45-0.54-5.32-1.62c-6.36-3.67-11.51-12.6-11.49-19.91
			c0.01-3.64,1.28-6.38,3.58-7.7c2.31-1.33,5.34-1.05,8.52,0.79c6.36,3.67,11.52,12.61,11.5,19.92c-0.01,3.64-1.28,6.37-3.58,7.69
			C1172.49,806,1171.4,806.28,1170.24,806.28z M1160.22,777.29c-0.98,0-1.89,0.23-2.68,0.68c-1.95,1.12-3.03,3.53-3.04,6.78
			c-0.02,6.97,4.9,15.48,10.96,18.98c2.85,1.64,5.5,1.92,7.47,0.79c1.95-1.12,3.03-3.53,3.04-6.77c0.02-6.97-4.9-15.49-10.97-18.99
			C1163.29,777.78,1161.67,777.29,1160.22,777.29z"/>
	</g>
</g>
<g>
	<g>
		<path class="st0" d="M999.75,512.1c-0.84,0-1.75-0.27-2.68-0.81l0,0c-3.12-1.8-5.65-6.18-5.64-9.76c0.01-1.85,0.66-3.24,1.85-3.92
			c1.2-0.69,2.74-0.55,4.35,0.38c3.12,1.8,5.65,6.18,5.64,9.77c-0.01,1.84-0.66,3.23-1.85,3.92
			C1000.92,511.96,1000.35,512.1,999.75,512.1z M997.6,510.37c1.27,0.73,2.44,0.87,3.29,0.38c0.84-0.49,1.31-1.55,1.31-2.99
			c0.01-3.24-2.28-7.21-5.11-8.84c-1.27-0.73-2.44-0.87-3.29-0.38c-0.84,0.49-1.31,1.55-1.32,3
			C992.49,504.77,994.78,508.74,997.6,510.37L997.6,510.37z"/>
	</g>
	<g>
		<path class="st6" d="M1002.36,519.67c-1.64,0-3.45-0.54-5.32-1.62c-6.36-3.67-11.51-12.6-11.49-19.91
			c0.01-3.64,1.28-6.38,3.58-7.7c2.31-1.33,5.34-1.05,8.52,0.79c6.36,3.67,11.52,12.61,11.5,19.92c-0.01,3.64-1.28,6.37-3.58,7.69
			C1004.61,519.39,1003.53,519.67,1002.36,519.67z M992.34,490.68c-0.98,0-1.89,0.23-2.68,0.68c-1.95,1.12-3.03,3.53-3.04,6.78
			c-0.02,6.97,4.9,15.48,10.96,18.98c2.85,1.64,5.5,1.92,7.47,0.79c1.95-1.12,3.03-3.53,3.04-6.77c0.02-6.97-4.9-15.49-10.97-18.99
			C995.42,491.17,993.79,490.68,992.34,490.68z"/>
	</g>
</g>
<path class="st7" d="M1460.82,793.65c-1.96,0-4.1-0.64-6.3-1.91l0,0c-7.32-4.23-13.25-14.51-13.23-22.92
	c0.01-4.33,1.56-7.6,4.35-9.21c2.81-1.62,6.43-1.3,10.22,0.89c7.32,4.23,13.26,14.52,13.24,22.93c-0.01,4.33-1.55,7.59-4.34,9.2
	C1463.57,793.31,1462.24,793.65,1460.82,793.65z"/>
<g>
	<g>
		<path class="st0" d="M461.35,531.1c-0.84,0-1.75-0.27-2.68-0.81l0,0c-3.12-1.8-5.65-6.18-5.64-9.76c0.01-1.85,0.66-3.24,1.85-3.92
			c1.2-0.69,2.74-0.55,4.35,0.38c3.12,1.8,5.65,6.18,5.64,9.77c-0.01,1.84-0.66,3.23-1.85,3.92
			C462.52,530.95,461.95,531.1,461.35,531.1z M459.2,529.36c1.27,0.73,2.44,0.87,3.29,0.38c0.84-0.49,1.31-1.55,1.31-2.99
			c0.01-3.24-2.28-7.21-5.11-8.84c-1.27-0.73-2.44-0.87-3.29-0.38c-0.84,0.49-1.31,1.55-1.32,3
			C454.09,523.77,456.37,527.73,459.2,529.36L459.2,529.36z"/>
	</g>
	<g>
		<path class="st6" d="M463.96,538.66c-1.64,0-3.45-0.54-5.32-1.62c-6.36-3.67-11.51-12.6-11.49-19.91c0.01-3.64,1.28-6.38,3.58-7.7
			c2.31-1.33,5.34-1.05,8.52,0.79c6.36,3.67,11.52,12.61,11.5,19.92c-0.01,3.64-1.28,6.37-3.58,7.69
			C466.21,538.38,465.13,538.66,463.96,538.66z M453.94,509.67c-0.98,0-1.89,0.23-2.68,0.68c-1.95,1.12-3.03,3.53-3.04,6.78
			c-0.02,6.97,4.9,15.48,10.96,18.98c2.85,1.64,5.5,1.92,7.47,0.79c1.95-1.12,3.03-3.53,3.04-6.77c0.02-6.97-4.9-15.49-10.97-18.99
			C457.02,510.17,455.39,509.67,453.94,509.67z"/>
	</g>
</g>
<g>
	<polygon class="st6" points="1230.44,1232.54 1216.61,1224.56 1216.52,1255.97 1230.35,1263.96 1230.44,1232.54 	"/>
	<path class="st6" d="M1201.34,1185.53c-0.26-0.15-0.63-0.3-1.18-0.42c-2.55-0.53-3.65,6.9-2.93,9.65c0.72,2.75,1.57,9.58,1.57,9.58
		l-1.32,4.78l-0.2-0.17l-9.96-5.75c-0.2-0.05-0.4-0.14-0.62-0.27c-2.61-1.5-6.58-3.74-7.39-0.54c-0.36,1.4,0.61,3.41,0.57,5.01
		c-0.03,1.34-0.75,1.97-0.72,3.35c0.02,0.49,0.12,1,0.26,1.51c0.35,0.71,0.78,1.51,1.11,2.58c0.36,1.18,0.49,2.93,0.18,3.77
		c-0.06,0.18-0.15,0.32-0.24,0.46l0,0.1c-0.03,0.59-0.16,1.45-0.07,2.23c0.13,0.41,0.26,0.81,0.39,1.2
		c0.36,0.64,0.87,1.29,1.12,2.01c0.48,1.39,0.43,2.56,0.54,3.79c0.12,0.46,0.27,0.89,0.5,1.5c0.15,0.4,0.38,0.92,0.5,1.16
		c3.11,3.02,6.21,5.92,9.59,8.41c2.61,1.92,5.26,3.68,7.92,5.21c2.75,1.59,5.5,2.93,8.2,3.95c0.16,0.06,0.31,0.13,0.46,0.22
		c0.06,0.03,0.12,0.07,0.17,0.11l4.4,1.4l0.08-27.09l-0.82-0.69c-0.97-2.33-7.73-18.53-8.53-20.39c-0.87-2-3-16.08-3-16.08
		S1201.86,1185.83,1201.34,1185.53L1201.34,1185.53z"/>
</g>
<polygon class="st4" points="1455.87,768.25 1453.59,766.94 1449.68,767.87 1449.67,770.47 1453.55,769.54 1453.61,769.57 
	1453.57,784 1455.82,785.3 1455.87,768.25 "/>
<g>
	<path class="st0" d="M1174.61,337.17l0.02-5.32l44.04,25.43l-0.02,5.32L1174.61,337.17L1174.61,337.17z M1174.65,321.23l0.02-5.32
		l44.04,25.43l-0.02,5.32L1174.65,321.23L1174.65,321.23z M1174.7,305.29l0.02-5.32l44.04,25.43l-0.02,5.32L1174.7,305.29
		L1174.7,305.29z M1212.43,284.49l-49.07-28.33l-0.29,103.99l66.97,38.66l0.22-76.43c-2.99-6.76-15.84-16.16-17.76-17.27
		c-0.04-0.02-0.08-0.04-0.11-0.06C1210.96,297.35,1212.43,284.49,1212.43,284.49L1212.43,284.49z"/>
	<path class="st7" d="M1221.55,309.37c-2.65-1.53-5.77-3.09-9.18-4.32c0.03,0.02,0.07,0.04,0.11,0.06
		c1.92,1.11,14.77,10.51,17.76,17.27c0.19-3.83,0.02-7,0.02-7S1226.85,312.43,1221.55,309.37L1221.55,309.37z"/>
	<polygon class="st4" points="1218.75,325.4 1174.71,299.97 1174.7,305.29 1218.74,330.72 1218.75,325.4 	"/>
	<polygon class="st4" points="1218.71,341.34 1174.67,315.91 1174.65,321.23 1218.69,346.66 1218.71,341.34 	"/>
	<polygon class="st4" points="1218.66,357.28 1174.62,331.85 1174.61,337.17 1218.65,362.6 1218.66,357.28 	"/>
	<path class="st6" d="M1212.43,284.49c0,0-1.47,12.86-0.06,20.56c3.4,1.23,6.52,2.79,9.18,4.32c5.3,3.06,8.72,6.01,8.72,6.01
		L1212.43,284.49L1212.43,284.49z"/>
</g>
<g>
	<g>
		<path class="st4" d="M384.9,1248.33c-0.17-35.76-16.97-68.37-33.36-99.19c-20.02-37.64-40.27-75.33-49.22-117.41
			c-6.04-28.39-6.75-57.5-2.93-86.24c0.11-0.85-1.22-0.84-1.34,0c-6.36,47.93,1.19,94.98,19.91,139.38
			c15.34,36.38,37.29,69.53,52.48,105.95c7.63,18.3,13.03,37.57,13.12,57.52C383.57,1249.19,384.9,1249.19,384.9,1248.33
			L384.9,1248.33z"/>
	</g>
</g>
<g>
	<g>
		<path class="st4" d="M420.58,1315.28c7.13-6.28,16.49-8.05,24.69-12.4c6.67-3.54,12.04-9.09,15.18-15.99
			c8.15-17.9-5.53-39.63,6.98-56.06c0.52-0.68-0.64-1.35-1.15-0.67c-12.03,15.79,0.05,35.98-5.89,53.3
			c-3.14,9.17-10.08,15.77-18.76,19.7c-7.6,3.44-15.6,5.55-21.99,11.18C418.99,1314.91,419.94,1315.85,420.58,1315.28
			L420.58,1315.28z"/>
	</g>
</g>
<g>
	<g>
		<path class="st4" d="M246.74,1282.68c17.38-13,36.07-4.76,51.39,6.96c6.92,5.29,12.07,10.89,16.93,18.12
			c3.65,5.42,7.42,10.57,13.3,13.72c0.76,0.41,1.43-0.75,0.67-1.15c-8.22-4.4-12.11-12.9-17.53-20.04
			c-4.92-6.48-11.86-11.47-18.52-16.06c-14.48-9.97-31.87-13.95-46.92-2.69C245.38,1282.03,246.05,1283.19,246.74,1282.68
			L246.74,1282.68z"/>
	</g>
</g>
<g>
	<polygon class="st6" points="1248.56,1232.67 1243.62,1229.82 1243.5,1269.35 1248.45,1272.2 1248.56,1232.67 	"/>
	<path class="st6" d="M1258.93,1249.74l-4.95-2.86l-0.08,28.47l4.95,2.86L1258.93,1249.74L1258.93,1249.74z M1256.5,1237.7
		c-1.59-0.92-2.9-0.26-2.9,1.61c-0.01,1.81,1.29,4.03,2.89,4.95c1.6,0.92,2.9,0.2,2.91-1.6
		C1259.4,1240.79,1258.1,1238.62,1256.5,1237.7L1256.5,1237.7z"/>
	<polygon class="st6" points="1269.37,1244.69 1264.42,1241.83 1264.31,1281.36 1269.26,1284.22 1269.29,1273.89 1271.44,1272.71 
		1279.96,1290.39 1285.66,1293.69 1274.98,1271.3 1285.38,1265.01 1279.56,1261.65 1269.33,1268.06 1269.31,1268.04 
		1269.37,1244.69 	"/>
	<path class="st6" d="M1291.14,1279.99c0.29-4.21,2.87-5.72,6.43-3.66c3.61,2.08,6.04,6.43,6.14,10.92L1291.14,1279.99
		L1291.14,1279.99z M1297.61,1271.7c-6.93-4-11.47-0.82-11.5,8.09c-0.03,8.91,4.43,17.06,11.62,21.21
		c5.57,3.22,9.93,2.16,10.66-2.54l-4.72-2.73c-0.69,2.09-2.95,2.36-5.83,0.71c-4.06-2.34-6.74-7.15-6.73-12.08l0-0.34l17.54,10.13
		l0.01-1.99C1308.68,1283.53,1304.41,1275.63,1297.61,1271.7L1297.61,1271.7z"/>
</g>
<g>
	<polygon class="st6" points="1162.42,469.71 1157.95,467.12 1153.66,485.37 1153.57,485.32 1148.79,461.84 1144.44,459.33 
		1139.57,477.23 1139.49,477.19 1135.32,454.06 1130.8,451.45 1137,481.19 1141.67,483.89 1146.52,466.98 1146.62,467.04 
		1151.4,489.51 1156.09,492.21 1162.42,469.71 	"/>
	<polygon class="st6" points="1195.14,488.6 1190.66,486.01 1186.37,504.25 1186.29,504.21 1181.51,480.73 1177.16,478.21 
		1172.28,496.12 1172.2,496.07 1168.03,472.95 1163.51,470.33 1169.71,500.08 1174.38,502.77 1179.23,485.87 1179.34,485.93 
		1184.12,508.39 1188.81,511.1 1195.14,488.6 	"/>
	<polygon class="st6" points="1227.85,507.48 1223.38,504.9 1219.09,523.14 1219,523.09 1214.23,499.62 1209.87,497.1 1205,515.01 
		1204.92,514.96 1200.75,491.83 1196.23,489.22 1202.43,518.97 1207.1,521.66 1211.95,504.76 1212.05,504.82 1216.83,527.28 
		1221.52,529.99 1227.85,507.48 	"/>
	<path class="st6" d="M1231.46,529.68c-1.53-0.88-2.75-0.21-2.75,1.56c0,1.76,1.21,3.85,2.73,4.73c1.55,0.9,2.75,0.19,2.75-1.57
		C1234.2,532.64,1233.01,530.58,1231.46,529.68L1231.46,529.68z"/>
</g>
<g>
	<path class="st7" d="M977.17,485.13c-1.68-3.62-3.29-7.25-4.76-10.8l1.97-0.82c1.47,3.52,3.06,7.12,4.73,10.72L977.17,485.13z
		 M970,468.36c-1.45-3.72-2.8-7.45-4.02-11.1l2.03-0.68c1.21,3.62,2.55,7.32,3.99,11.01L970,468.36z M964.02,451.12
		c-1.16-3.82-2.21-7.66-3.11-11.4l2.08-0.5c0.9,3.7,1.94,7.5,3.08,11.28L964.02,451.12z M959.49,433.43
		c-0.81-3.93-1.49-7.85-2.01-11.65l2.12-0.29c0.51,3.76,1.18,7.63,1.98,11.51L959.49,433.43z M956.74,415.36
		c-0.38-3.98-0.61-7.95-0.67-11.82l2.14-0.03c0.06,3.81,0.28,7.73,0.66,11.65L956.74,415.36z M958.26,397.15l-2.14-0.07
		c0.13-3.99,0.44-7.96,0.93-11.81l2.12,0.27C958.7,389.32,958.39,393.23,958.26,397.15z M960.15,379.27l-2.1-0.39
		c0.72-3.91,1.64-7.79,2.74-11.53l2.05,0.61C961.76,371.62,960.85,375.43,960.15,379.27z M964.82,361.93l-2.01-0.73
		c1.35-3.72,2.92-7.39,4.67-10.91l1.91,0.95C967.68,354.69,966.14,358.29,964.82,361.93z M972.38,345.66l-1.85-1.07
		c1.97-3.4,4.16-6.74,6.52-9.92l1.72,1.27C976.46,339.06,974.31,342.33,972.38,345.66z M982.7,330.98l-1.63-1.38
		c2.52-2.99,5.25-5.9,8.13-8.64l1.48,1.55C987.85,325.2,985.17,328.05,982.7,330.98z M995.39,318.26l-1.39-1.63
		c2.96-2.52,6.13-4.95,9.41-7.21l1.22,1.76C1001.41,313.4,998.3,315.79,995.39,318.26z M1009.95,307.7l-1.12-1.82
		c3.31-2.04,6.8-3.98,10.36-5.75l0.95,1.91C1016.64,303.79,1013.21,305.69,1009.95,307.7z M1158.53,305.9
		c-3.19-2.06-6.59-4-10.11-5.75l0.95-1.91c3.59,1.79,7.06,3.76,10.31,5.87L1158.53,305.9z M1025.92,299.34l-0.86-1.96
		c3.57-1.57,7.28-3.02,11.03-4.32l0.7,2.02C1033.09,296.36,1029.43,297.79,1025.92,299.34z M1142.67,297.48
		c-3.5-1.51-7.17-2.88-10.91-4.08l0.65-2.04c3.81,1.22,7.54,2.62,11.1,4.15L1142.67,297.48z M1042.85,293.14l-0.61-2.05
		c3.74-1.11,7.6-2.1,11.47-2.93l0.45,2.09C1050.34,291.07,1046.54,292.04,1042.85,293.14z M1125.66,291.61
		c-3.7-0.99-7.53-1.85-11.38-2.54l0.38-2.1c3.91,0.7,7.8,1.57,11.56,2.58L1125.66,291.61z M1060.42,289.03l-0.37-2.11
		c3.86-0.67,7.81-1.2,11.73-1.59l0.21,2.13C1068.12,287.85,1064.23,288.37,1060.42,289.03z M1107.99,288.08
		c-3.81-0.52-7.72-0.89-11.62-1.11l0.12-2.13c3.95,0.23,7.92,0.61,11.78,1.13L1107.99,288.08z M1078.34,286.98l-0.12-2.13
		c3.06-0.18,6.16-0.27,9.22-0.27c0.84,0.01,1.74,0.01,2.61,0.02l-0.04,2.14c-0.86-0.01-1.75-0.02-2.57-0.02
		C1084.42,286.71,1081.35,286.8,1078.34,286.98z"/>
</g>
</svg>
