<svg xmlns="http://www.w3.org/2000/svg" xmlns:xlink="http://www.w3.org/1999/xlink" width="375.973" height="283.835" viewBox="0 0 375.973 283.835">
  <defs>
    <linearGradient id="linear-gradient" x1="0.5" y1="1" x2="0.5" gradientUnits="objectBoundingBox">
      <stop offset="0" stop-color="gray" stop-opacity="0.251"/>
      <stop offset="0.54" stop-color="gray" stop-opacity="0.122"/>
      <stop offset="1" stop-color="gray" stop-opacity="0.102"/>
    </linearGradient>
    <linearGradient id="linear-gradient-2" x1="0.5" y1="1" x2="0.5" y2="0" xlink:href="#linear-gradient"/>
    <linearGradient id="linear-gradient-3" x1="3.499" y1="1.031" x2="3.499" y2="0.019" xlink:href="#linear-gradient"/>
  </defs>
  <g id="undraw_content_vbqo" transform="translate(0 0.077)">
    <ellipse id="Ellipse_49" data-name="Ellipse 49" cx="32.926" cy="8.134" rx="32.926" ry="8.134" transform="translate(303.783 266.136)" fill="#6c63ff" opacity="0.1"/>
    <ellipse id="Ellipse_50" data-name="Ellipse 50" cx="32.926" cy="8.134" rx="32.926" ry="8.134" transform="translate(13.133 267.491)" fill="#6c63ff" opacity="0.1"/>
    <path id="Path_151" data-name="Path 151" d="M534.355,101.774s-4.628-1.878-19.342,4.874-16.563,5.891-20.365,4.858-5.92-1.276-10.018-6.907c0,0-2.881-15.616-5.667-18.037s-14.636,1.378-14.636,1.378S450.121,91.2,447.414,72.216c0,0,1.921-14.31-.694-18.7,0,0,5.262,2.279,13.991-1.4S476.4,56.064,476.4,56.064s2.2,5.69,1.973,9.081,1.161,4.664,5.318,3.026c0,0,2.039-2.9-.852-7.7s-4.953-8.377-4.144-12.1,3.125-8.88,10.577-11.478,17.576-3.085,22.437-5.108,6.035-3.338,6.035-3.338-3,3.006,4.059,15.7,2.556,18.214,2.556,18.214-3.749,8.933-20.293,8.222c0,0-15.942.582-7.236,7.344,0,0,5.568-1.135,13.889-3.779s14.33,8.272,15.82,15.869A19.912,19.912,0,0,0,534.355,101.774Z" transform="translate(-309.145 -25.236)" fill="#6c63ff"/>
    <path id="Path_152" data-name="Path 152" d="M622.371,57.7l.089-.023c.638,2.424-6.489,12.169-12.577,19.908l-.072-.056C618.4,66.609,622.867,59.568,622.371,57.7Z" transform="translate(-418.595 -44.859)" fill="#444053"/>
    <path id="Path_153" data-name="Path 153" d="M574.779,117.55l.036.1c-4.864,6.187-10.982,13.567-15.879,19.033-.467.523-.931,1.069-1.378,1.628l-.138-.115c.447-.559.914-1.108,1.381-1.644C563.7,131.1,569.918,123.733,574.779,117.55Z" transform="translate(-383.436 -85.038)" fill="#444053"/>
    <path id="Path_154" data-name="Path 154" d="M534.674,179.88l.1.164c-8.913,11.127-9.5,28.4-9.538,28.555l-1.881-2.171C523.39,206.277,525.7,191.082,534.674,179.88Z" transform="translate(-360.572 -126.868)" fill="#444053"/>
    <path id="Path_155" data-name="Path 155" d="M540.2,158.648s-10.525-5.463-18.7-3.5-26.641-6.927-26.641-6.927-7.831-3.184-9.4-6.808c0,0-5.371-5.677-5.677-8.617s-5.535-10.327-8.946-10.613" transform="translate(-325.332 -88.145)" fill="none" stroke="#444053" stroke-miterlimit="10" stroke-width="1"/>
    <path id="Path_156" data-name="Path 156" d="M667.473,233.3s-5.3-3.565-4.677-7.719" transform="translate(-454.12 -157.537)" fill="none" stroke="#444053" stroke-miterlimit="10" stroke-width="1"/>
    <path id="Path_157" data-name="Path 157" d="M635.438,235.471s-7.565-2.75-8.328-13.521" transform="translate(-430.205 -155.101)" fill="none" stroke="#444053" stroke-miterlimit="10" stroke-width="1"/>
    <path id="Path_158" data-name="Path 158" d="M604.443,237.9a16.933,16.933,0,0,1-4.832-16.487" transform="translate(-411.423 -154.739)" fill="none" stroke="#444053" stroke-miterlimit="10" stroke-width="1"/>
    <path id="Path_159" data-name="Path 159" d="M565.969,228.6s-4.818-10.1-.533-16.672" transform="translate(-387.625 -148.377)" fill="none" stroke="#444053" stroke-miterlimit="10" stroke-width="1"/>
    <path id="Path_160" data-name="Path 160" d="M673.005,212.82s-5.476,1.737-4.3,4.6" transform="translate(-458.008 -148.974)" fill="none" stroke="#444053" stroke-miterlimit="10" stroke-width="1"/>
    <path id="Path_161" data-name="Path 161" d="M646.7,182.61s-7.325,2.325-7.5,12.685" transform="translate(-438.319 -128.7)" fill="none" stroke="#444053" stroke-miterlimit="10" stroke-width="1"/>
    <path id="Path_162" data-name="Path 162" d="M618.351,175.34s-6.664,8.222-6.173,15.7" transform="translate(-420.167 -123.821)" fill="none" stroke="#444053" stroke-miterlimit="10" stroke-width="1"/>
    <path id="Path_163" data-name="Path 163" d="M583.543,185.15s-6.621,6.328-5.776,9.85" transform="translate(-397.042 -130.405)" fill="none" stroke="#444053" stroke-miterlimit="10" stroke-width="1"/>
    <path id="Path_164" data-name="Path 164" d="M568.9,176.464s-6.21,1.115-7.078-.924" transform="translate(-386.389 -123.955)" fill="none" stroke="#444053" stroke-miterlimit="10" stroke-width="1"/>
    <path id="Path_165" data-name="Path 165" d="M558.81,155.56s3.138,4.154,3.947,3.223" transform="translate(-384.369 -110.547)" fill="none" stroke="#444053" stroke-miterlimit="10" stroke-width="1"/>
    <path id="Path_166" data-name="Path 166" d="M614.195,140.262S598.546,141.39,595,136.68" transform="translate(-408.656 -97.876)" fill="none" stroke="#444053" stroke-miterlimit="10" stroke-width="1"/>
    <path id="Path_167" data-name="Path 167" d="M548.8,91.91s7.344,15.764,12.676,17.76" transform="translate(-377.651 -67.831)" fill="none" stroke="#444053" stroke-miterlimit="10" stroke-width="1"/>
    <path id="Path_168" data-name="Path 168" d="M572.22,69.08s4.513,14.5,10.1,19.027" transform="translate(-393.369 -52.509)" fill="none" stroke="#444053" stroke-miterlimit="10" stroke-width="1"/>
    <path id="Path_169" data-name="Path 169" d="M634.52,111.069s-11.9,5.108-19.05-.059" transform="translate(-422.394 -80.649)" fill="none" stroke="#444053" stroke-miterlimit="10" stroke-width="0.75"/>
    <path id="Path_170" data-name="Path 170" d="M604.46,59.68s2.72,10.659,6.384,13.235" transform="translate(-415.005 -46.201)" fill="none" stroke="#444053" stroke-miterlimit="10" stroke-width="0.75"/>
    <path id="Path_171" data-name="Path 171" d="M649.176,74.89s-6.687,2.532-9.186.592" transform="translate(-438.849 -56.409)" fill="none" stroke="#444053" stroke-miterlimit="10" stroke-width="0.75"/>
    <path id="Path_172" data-name="Path 172" d="M536.229,166.15s0,9.291-2.529,9.952" transform="translate(-367.518 -117.654)" fill="none" stroke="#444053" stroke-miterlimit="10" stroke-width="1"/>
    <path id="Path_173" data-name="Path 173" d="M478.52,193.932s10.045.862,14.679-4.322" transform="translate(-330.486 -133.398)" fill="none" stroke="#444053" stroke-miterlimit="10" stroke-width="1"/>
    <path id="Path_174" data-name="Path 174" d="M514.867,132.78s-2.431,9.423-9.137,11.962" transform="translate(-348.747 -95.259)" fill="none" stroke="#444053" stroke-miterlimit="10" stroke-width="1"/>
    <path id="Path_175" data-name="Path 175" d="M460.2,164.772a13.147,13.147,0,0,0,13.225-3.822" transform="translate(-318.192 -114.164)" fill="none" stroke="#444053" stroke-miterlimit="10" stroke-width="1"/>
    <path id="Path_176" data-name="Path 176" d="M499.222,108.15s-.658,8-5.022,11.748" transform="translate(-341.009 -78.73)" fill="none" stroke="#444053" stroke-miterlimit="10" stroke-width="1"/>
    <path id="Path_177" data-name="Path 177" d="M461,131.651s5.9.043,7.282-1.881" transform="translate(-318.729 -93.239)" fill="none" stroke="#444053" stroke-miterlimit="10" stroke-width="1"/>
    <path id="Path_178" data-name="Path 178" d="M228.112,63.7c-23.483,3.917-47,1.809-69.644-1.112s-45.23-6.65-68.763-5.92c-15.129.474-31.959,3.447-42.428,12.57-10.071,8.778-11.511,20.78-11.416,31.633.072,8.163.839,16.619,6.367,23.184,3.838,4.555,9.706,7.864,14.143,12.077,15.458,14.662,11.074,37.376,1.286,56.609-4.6,9.025-10.232,17.882-13.32,27.134s-3.394,19.217,2.421,26.877c5.769,7.594,16.8,11.968,28.285,14.313,23.316,4.759,49.193,2.3,74.222-1.115,55.4-7.6,110.181-19.895,164.8-32.166,20.217-4.539,40.524-9.1,59.975-15.787,10.8-3.7,21.789-8.364,28.706-15.734,8.778-9.357,8.857-22.273.184-30.107-14.55-13.156-47.1-10.682-58.412-25.654-6.229-8.222-3.694-19.28,1.066-29,10.2-20.852,30.176-41.326,27.3-62.279-1.973-14.392-15.912-26.443-34.429-29.775-19.4-3.49-44.207,2.338-55.182,16.649C271.974,50.871,248.846,60.245,228.112,63.7Z" transform="translate(-33.414 -18.54)" fill="#6c63ff" opacity="0.1"/>
    <rect id="Rectangle_42" data-name="Rectangle 42" width="312.562" height="177.054" rx="12.49" transform="translate(25.092 49.319)" fill="url(#linear-gradient)"/>
    <rect id="Rectangle_43" data-name="Rectangle 43" width="311.605" height="173.975" rx="12.49" transform="translate(25.588 51.808)" fill="#fff"/>
    <rect id="Rectangle_44" data-name="Rectangle 44" width="311.605" height="173.975" rx="12.49" transform="translate(25.588 51.808)" fill="#fff"/>
    <rect id="Rectangle_45" data-name="Rectangle 45" width="311.605" height="173.975" rx="12.49" transform="translate(25.588 51.808)" fill="#5a5773" opacity="0.04"/>
    <path id="Path_179" data-name="Path 179" d="M416.226,170.15H107.772a1.582,1.582,0,0,0-1.582,1.582v6.69h311.6v-6.677A1.582,1.582,0,0,0,416.226,170.15Z" transform="translate(-80.615 -120.338)" fill="#5a5773"/>
    <g id="buttons" transform="translate(29.673 51.808)">
      <ellipse id="Ellipse_51" data-name="Ellipse 51" cx="2.138" cy="2.138" rx="2.138" ry="2.138" fill="#fff"/>
      <ellipse id="Ellipse_52" data-name="Ellipse 52" cx="2.138" cy="2.138" rx="2.138" ry="2.138" transform="translate(5.756)" fill="#fff"/>
      <ellipse id="Ellipse_53" data-name="Ellipse 53" cx="2.138" cy="2.138" rx="2.138" ry="2.138" transform="translate(11.511)" fill="#fff"/>
    </g>
    <rect id="Rectangle_46" data-name="Rectangle 46" width="259.829" height="129.183" rx="10.19" transform="translate(46.447 96.597)" fill="#fff"/>
    <rect id="Rectangle_47" data-name="Rectangle 47" width="74.739" height="7.844" rx="3.86" transform="translate(35.429 66.862)" fill="#5a5773" opacity="0.2"/>
    <rect id="Rectangle_48" data-name="Rectangle 48" width="74.739" height="7.844" rx="3.86" transform="translate(176.362 111.592)" fill="#6c63ff" opacity="0.2"/>
    <rect id="Rectangle_49" data-name="Rectangle 49" width="116.703" height="7.844" rx="3.86" transform="translate(176.362 133.555)" fill="#6c63ff" opacity="0.2"/>
    <rect id="Rectangle_50" data-name="Rectangle 50" width="116.703" height="7.844" rx="3.86" transform="translate(176.362 146.382)" fill="#6c63ff" opacity="0.2"/>
    <rect id="Rectangle_51" data-name="Rectangle 51" width="116.703" height="7.844" rx="3.86" transform="translate(176.362 159.209)" fill="#6c63ff" opacity="0.2"/>
    <rect id="Rectangle_52" data-name="Rectangle 52" width="116.703" height="7.844" rx="3.86" transform="translate(176.362 172.036)" fill="#6c63ff" opacity="0.2"/>
    <rect id="Rectangle_53" data-name="Rectangle 53" width="232.531" height="7.844" rx="3.86" transform="translate(60.534 186.178)" fill="#6c63ff" opacity="0.2"/>
    <rect id="Rectangle_54" data-name="Rectangle 54" width="232.531" height="7.844" rx="3.86" transform="translate(60.534 199.005)" fill="#6c63ff" opacity="0.2"/>
    <rect id="Rectangle_55" data-name="Rectangle 55" width="232.531" height="7.844" rx="3.86" transform="translate(60.534 211.832)" fill="#6c63ff" opacity="0.2"/>
    <path id="Path_180" data-name="Path 180" d="M746.783,678.54s1.95,2.549-.9,6.4-5.2,7.1-4.249,9.5c0,0,4.3-7.15,7.8-7.236S750.634,682.839,746.783,678.54Z" transform="translate(-506.917 -461.521)" fill="#6c63ff"/>
    <path id="Path_181" data-name="Path 181" d="M747.006,678.54a3.156,3.156,0,0,1,.4.8c3.417,4.012,5.236,7.759,1.954,7.851-3.059.089-6.729,5.558-7.607,6.936a2.524,2.524,0,0,0,.105.329s4.3-7.15,7.8-7.236S750.857,682.839,747.006,678.54Z" transform="translate(-507.141 -461.521)" opacity="0.1"/>
    <path id="Path_182" data-name="Path 182" d="M767.837,687.249c0,.9-.1,1.625-.224,1.625s-.224-.727-.224-1.625.125-.474.25-.474S767.837,686.351,767.837,687.249Z" transform="translate(-524.348 -466.981)" fill="#ffd037"/>
    <path id="Path_183" data-name="Path 183" d="M769.4,690.389c-.789.428-1.477.687-1.536.579s.533-.546,1.316-.987.477-.118.536,0S770.184,689.958,769.4,690.389Z" transform="translate(-524.661 -469.049)" fill="#ffd037"/>
    <path id="Path_184" data-name="Path 184" d="M717.479,678.54s-1.95,2.549.9,6.4,5.2,7.1,4.253,9.5c0,0-4.3-7.15-7.8-7.236S713.628,682.839,717.479,678.54Z" transform="translate(-487.915 -461.521)" fill="#6c63ff"/>
    <path id="Path_185" data-name="Path 185" d="M717.479,678.54a3.091,3.091,0,0,0-.4.8c-3.414,4.012-5.233,7.759-1.95,7.851,3.059.089,6.726,5.558,7.6,6.936a2.525,2.525,0,0,1-.1.329s-4.3-7.15-7.8-7.236S713.628,682.839,717.479,678.54Z" transform="translate(-487.915 -461.521)" opacity="0.1"/>
    <path id="Path_186" data-name="Path 186" d="M715.38,687.256c0,.9.1,1.625.227,1.625s.224-.727.224-1.625-.125-.467-.247-.467S715.38,686.358,715.38,687.256Z" transform="translate(-489.444 -466.988)" fill="#ffd037"/>
    <path id="Path_187" data-name="Path 187" d="M710.626,690.389c.789.428,1.477.687,1.536.579s-.533-.546-1.316-.987-.477-.118-.536,0S709.837,689.958,710.626,690.389Z" transform="translate(-485.933 -469.049)" fill="#ffd037"/>
    <ellipse id="Ellipse_54" data-name="Ellipse 54" cx="20.392" cy="3.128" rx="20.392" ry="3.128" transform="translate(214.323 246.172)" fill="#6c63ff" opacity="0.1"/>
    <path id="Path_188" data-name="Path 188" d="M731.142,714.031l-.1.8-.135,1.125-.059.47-.135,1.125-.059.47-.138,1.122-1.559,12.794c-.141,1.141-2.006,2.033-4.276,2.033h-8.1c-2.253,0-4.115-.891-4.253-2.033l-1.566-12.784-.135-1.122-.059-.47-.138-1.125-.056-.47-.138-1.125-.1-.8c-.076-.658.934-1.191,2.207-1.191h16.583C730.2,712.84,731.214,713.383,731.142,714.031Z" transform="translate(-485.926 -484.547)" fill="#65617d"/>
    <path id="Path_189" data-name="Path 189" d="M702.816,700.32l-.135,1.125H682.158l-.138-1.125Z" transform="translate(-457.705 -470.04)" fill="#9d9cb5"/>
    <path id="Path_190" data-name="Path 190" d="M703.018,705.16l-.135,1.125H682.748l-.138-1.125Z" transform="translate(-458.101 -473.288)" fill="#9d9cb5"/>
    <path id="Path_191" data-name="Path 191" d="M703.227,710.01l-.138,1.125H683.345l-.135-1.125Z" transform="translate(-458.504 -476.543)" fill="#9d9cb5"/>
    <rect id="Rectangle_56" data-name="Rectangle 56" width="99.327" height="72.863" rx="8.5" transform="translate(60.534 107.24)" fill="#6c63ff" opacity="0.2"/>
    <path id="Path_192" data-name="Path 192" d="M1025.769,509.2c.125-.329-.8-2.21-.8-2.3s-.957-1.135-.957-1.717-1.266-1.842-1.266-1.842a3.194,3.194,0,0,1-1.885-2.24c-.184-1.536-2.036-1.562-2.039-1.562h0v-.352a4.84,4.84,0,0,0-.227-1.792,1.805,1.805,0,0,0-1.049-.891,3.969,3.969,0,0,0-.556-1.566,1.759,1.759,0,0,1-.434-1.644c.187-.579-.247-2.052-1.141-2.269s-1.917-.553-1.917-.553l-.247.043-.122-.043a5.122,5.122,0,0,1-.658.082.813.813,0,0,1-.523-.171,10.886,10.886,0,0,0-3.289-.987,7.519,7.519,0,0,1-1.792-.615s-.927-.7-1.316-1.013a8.634,8.634,0,0,1-1.164-1.6v-.023h0a5.679,5.679,0,0,1-.28-.806h0a7.252,7.252,0,0,0,1.148-1.582c.033-.059.063-.118.092-.181a.69.69,0,0,0,.2-.03l.082-.033a1.336,1.336,0,0,0,.658-.783h0a2.088,2.088,0,0,0,.059-.2v-.069l.03-.138a.631.631,0,0,1,0-.079l.02-.138v-.079a.456.456,0,0,1,.023-.174h0a6.144,6.144,0,0,1,.1-.658h0a11.854,11.854,0,0,1,1.039-2.3h0c.049-.109.1-.22.141-.329s.086-.247.122-.372l.03-.115c.023-.092.043-.184.063-.276s0-.082.023-.125q.03-.187.049-.385a4.757,4.757,0,0,0-.329-2.154c-.23-.576-.576-1.1-.809-1.671-.355-.872-.451-1.862-.881-2.694a3.207,3.207,0,0,0-3.848-1.566c-.658.25-1.256.733-1.937.95a6.456,6.456,0,0,1-2.835-.056,3.536,3.536,0,0,0-2.75.474c-.875.71-1.112,2.046-1.934,2.825-.329.329-.773.536-1.138.839a1.858,1.858,0,0,0-.572.783l-.02.062a.586.586,0,0,0-.02.082.771.771,0,0,0-.016.092.369.369,0,0,0,0,.063.68.68,0,0,0,0,.164h0a1.246,1.246,0,0,0,.023.155v.043a.385.385,0,0,0,.039.128c.016.043,0,.016,0,.023s.036.1.056.141l.03.069a.055.055,0,0,0,.026.056,4.082,4.082,0,0,1,.286.714.793.793,0,0,1-.03.47,1.389,1.389,0,0,1-.329.451,6.363,6.363,0,0,0-1.394,2.233q-.056.145-.1.286h.043a1.872,1.872,0,0,0,.27.056,1.32,1.32,0,0,0,.155,0,2.407,2.407,0,0,0,.631-.046l.158-.039a3.573,3.573,0,0,0,.625-.227v.293a7.3,7.3,0,0,0,4.055,6.525,1.358,1.358,0,0,0,.026.2l.02.168-.082-.079s-.556-.276-1.082.52a3.494,3.494,0,0,1-1.513,1.168s-5.624.888-5.841,1.625l-2.631.155s-.927.122-1.02,2.056-.585,2.115-.585,2.115a7.317,7.317,0,0,0-.987,2.884,1.608,1.608,0,0,1-.835,1.473l-.122,1.75a1.207,1.207,0,0,0-1.316,1.043,4.16,4.16,0,0,1-.77,1.746s-1.7,1.414-1.792,2.608l-1.053.658s-2.44-.553-3-1.533c0,0-.066-.066-.171-.161v-.023h0a9.888,9.888,0,0,0-1.02-.9.74.74,0,0,1,.049.493l-.181-.2-.487-.539s-3.947-3.7-6.249-3.989h0c-.03-.059-.181-.658-.576-.28a3.223,3.223,0,0,0-.023,4.726l3.7,3.45.1.069.793,1.02a9.267,9.267,0,0,0-.329.914v.03l-.059.178a.411.411,0,0,0-.017.059c-.02.059-.036.115-.053.171l-.03.1v.059c-.089.309-.145.546-.171.678l-.207-.066.2.089v.1l.191.082c1.082.47,6.482,2.842,6.759,3.2a3.976,3.976,0,0,0,4.2.582,4.426,4.426,0,0,0,2.253-2.483,25.942,25.942,0,0,0,1.855-2.855c.063-.368,1.45-.8,1.45-.8s.125,4.108-.585,5.614-2.039,8.16-2.039,8.16a.941.941,0,0,1,.263,0l-.079.385a.892.892,0,0,1,.329,0c-.1.756-.658,4.276-.658,4.276a8.763,8.763,0,0,1-.493,2.148,15.373,15.373,0,0,0-.329,3.437l-.5,2.085s.066.145.188.359h0a5.34,5.34,0,0,0,1.421,1.839,3.634,3.634,0,0,1-.25.954,3.355,3.355,0,0,0-.247,1.473,19.131,19.131,0,0,0-.464,3.036,11.593,11.593,0,0,1-.329,2.332l-.556,5.338a50.53,50.53,0,0,0-.184,5.891,11.3,11.3,0,0,1-.125,2.96s.372,3.651.28,4.049a7.549,7.549,0,0,0-.28,3.069,16.752,16.752,0,0,1,.125,3.559s.184,3.437.4,4.542a7.773,7.773,0,0,1-.062,2.516,20.719,20.719,0,0,1-.309,2.361c-.092,0-.895,1.625.74,3.22s.622,1.348.622,1.348-1.316-.658-1.145.678c.145,1.253.349.927.368.891l-.309,1.01.217.03-.178.214a4.618,4.618,0,0,1-.625.658,1.339,1.339,0,0,0-.4.888,24.087,24.087,0,0,1-4.417,3.743,12.772,12.772,0,0,0-2.51,1.687c-.381.414-.329.75.47,1.013a12.036,12.036,0,0,0,6.7.122,7.842,7.842,0,0,0,3.289-2.115,4.655,4.655,0,0,1,2.631-.431c1.316.247,3.894-1.441,3.894-1.441l-.049-.434-.135-1.256a.987.987,0,0,1-.217-.763,3.945,3.945,0,0,0-.108-1.1c-.023-.122-.046-.243-.069-.355l.237-.046s-.306-1.562.25-1.871.4-4.325.4-4.325a4.85,4.85,0,0,0-1.079-1.072c-.372-.151-.033-2.059.033-2.3s.556-5,.556-5a6.4,6.4,0,0,1,.059-2.144,10.513,10.513,0,0,0-.309-3.131.572.572,0,0,1,.155-.674c.329-.368.217-3.651.217-3.651s-.03-1.645-.03-2.089a7.405,7.405,0,0,1,.71-2.513,4.832,4.832,0,0,0,.122-2.148h0l.02-.122a.458.458,0,0,1,.026-.174l.026-.164a23.89,23.89,0,0,1,.605-2.664c.4-1.286.865-3.555.865-3.555l2.871-7.492.033-.089a11.831,11.831,0,0,1,1.316,4.726,29.843,29.843,0,0,1,.25,3.467c-.079.737.214,4.2.214,4.2s.4,4.97.4,5.183a30.52,30.52,0,0,0,.806,4.634,4.051,4.051,0,0,1-.5,2.546,38.655,38.655,0,0,0,.062,4.693s-.464,3.559-.556,4.3a17.582,17.582,0,0,0-.155,4.664c.309,1.105.184,1.256.184,1.256s1.115,1.138.464,1.23a1.7,1.7,0,0,0-1.237,2.237,29.477,29.477,0,0,0,1.362,3.289l.513-.109v.365l.036,1.829a10.663,10.663,0,0,1,.092,2.148c-.089.289-.214,1.664-.273,2.384-.023.263-.036.437-.036.437s0,1.625,3.43,1.135,4.045-1.842,4.045-1.842l.026-.168c.049-.309.161-.967.253-1.335.122-.49-.987-2.7-.987-2.7a5.605,5.605,0,0,0-.493-1.839,1.643,1.643,0,0,1-.25-.658c-.026-.125-.053-.253-.072-.378a2.211,2.211,0,0,1,.23.039s-.187-1.072.526-1.411a1.01,1.01,0,0,0,.431-1.348,10.423,10.423,0,0,1,.276-2.026.986.986,0,0,1,.247-.987c.434-.431.773-3.437.773-3.437l.063-11.6a11.152,11.152,0,0,0-.03-2.884c-.247-.829-.493-2.424-.155-2.855s.03-2.421.03-2.421,0-4.2.464-5.262.309-7.64.309-7.64l.122-4.325s1.01-.954.773-5.92a8.05,8.05,0,0,1,2.473.043c.329.276,2.533,1.687,3.832.8a17.2,17.2,0,0,0,1.542-1.194l-.546-9.209.546.852c0-1.286,3.647-5.46,3.647-5.46a58.936,58.936,0,0,1,4.138-4.907,15.572,15.572,0,0,0,2.194-3.289,13.344,13.344,0,0,1,.743-1.533C1026.759,511.01,1025.647,509.536,1025.769,509.2Zm-7.969,3.22c-.927.092-2.875,2.21-2.9,2.671a1.9,1.9,0,0,1-.411.822c0-.184-.03-.372-.046-.562a56.727,56.727,0,0,1-.329-6.334,18.709,18.709,0,0,0,.122-3.039h0l.036-.049a15.633,15.633,0,0,0,2.556,4.2s.329.987.743,1.01S1017.8,512.421,1017.8,512.421Z" transform="translate(-655.742 -320.924)" fill="url(#linear-gradient-2)"/>
    <path id="Path_193" data-name="Path 193" d="M978.65,586.73s1.128-5.92,4.749-5.92l2.651,5.45-1.766,1.217S980.446,587.582,978.65,586.73Z" transform="translate(-666.125 -395.934)" fill="#65617d"/>
    <path id="Path_194" data-name="Path 194" d="M986.05,586.223l-1.766,1.217a20.911,20.911,0,0,1-4.631-.388,5.328,5.328,0,0,1-1-.329l.02-.1v-.02a13.157,13.157,0,0,1,.684-2.171c.112-.266.237-.539.375-.812a5.508,5.508,0,0,1,2.3-2.516,3.122,3.122,0,0,1,1.207-.329h.161l.059.122.895,1.842Z" transform="translate(-666.125 -395.914)" opacity="0.1"/>
    <path id="Path_195" data-name="Path 195" d="M1086.953,637.465s3.805-.365,4.141-.089,2.5,1.674,3.772.789.427-3.947.427-4.078-.122-4.476-.122-4.476l-2.282-3.075-2.861-5.387-5.848-.579.151,8.551-.03,4.384Z" transform="translate(-736.946 -422.617)" fill="#65617d"/>
    <path id="Path_196" data-name="Path 196" d="M1086.953,637.465s3.805-.365,4.141-.089,2.5,1.674,3.772.789.427-3.947.427-4.078-.122-4.476-.122-4.476l-2.282-3.075-2.861-5.387-5.848-.579.151,8.551-.03,4.384Z" transform="translate(-736.946 -422.617)" opacity="0.1"/>
    <path id="Path_197" data-name="Path 197" d="M973.046,568.863s-.306,3.713-2.631,3.776c0,0-.658-.395-1.539-1.056-2.033-1.523-5.262-4.447-4.368-7.167,1.279-3.9,7.489,3.289,7.489,3.289l.48.536Z" transform="translate(-656.531 -384.155)" fill="#fbbebe"/>
    <path id="Path_198" data-name="Path 198" d="M981.868,579s-.306,3.713-2.631,3.776c0,0-.658-.395-1.539-1.056l-.2-.253a3.029,3.029,0,0,0,1.27.329,1.714,1.714,0,0,0,1.644-1.043,13.139,13.139,0,0,0,.658-1.477,4.591,4.591,0,0,0,.234-.911Z" transform="translate(-665.353 -394.297)" opacity="0.1"/>
    <path id="Path_199" data-name="Path 199" d="M981.264,585.124l-.52-.658-1.753-2.256-.891-1.154a3,3,0,0,0,1.266.329,1.7,1.7,0,0,0,1.645-1.043,12.892,12.892,0,0,0,.641-1.473c.289-.822.283-1.243.181-1.388a8.115,8.115,0,0,1,1.006.895h0l.168.158.063.125.918,1.776a.49.49,0,0,1,0,.076C984.053,581.069,984.349,584.617,981.264,585.124Z" transform="translate(-665.755 -393.687)" fill="#e7effd"/>
    <path id="Path_200" data-name="Path 200" d="M1008.6,829.027s-2.559,1.677-3.838,1.431a4.6,4.6,0,0,0-2.588.428,7.682,7.682,0,0,1-3.227,2.1,11.82,11.82,0,0,1-6.608-.122c-.776-.26-.839-.6-.464-1.006a14.043,14.043,0,0,1,2.473-1.674,23.909,23.909,0,0,0,4.355-3.713,1.316,1.316,0,0,1,.395-.885,4.538,4.538,0,0,0,.615-.658c.329-.385.635-.789.635-.789l7.535.283s.128.543.23,1.1a3.974,3.974,0,0,1,.105,1.1.987.987,0,0,0,.214.76l.135,1.243Z" transform="translate(-674.851 -559.234)" fill="#65617d"/>
    <path id="Path_201" data-name="Path 201" d="M1075.411,832.354c-.089.365-.2,1.016-.25,1.316a.557.557,0,0,1-.023.168s-.609,1.339-3.99,1.825-3.378-1.125-3.378-1.125l.033-.437c.059-.71.181-2.075.27-2.365a10.8,10.8,0,0,0-.089-2.131l-.036-1.815-.026-1.26,5.591-.579a10.78,10.78,0,0,0,.181,1.246,1.6,1.6,0,0,0,.247.658,5.631,5.631,0,0,1,.487,1.825S1075.542,831.867,1075.411,832.354Z" transform="translate(-725.933 -560.449)" fill="#65617d"/>
    <path id="Path_202" data-name="Path 202" d="M1024.269,824.5s.128.543.23,1.1c-.812.148-4.364.763-5.262.329a13.936,13.936,0,0,0-3.167-.76l.036-.125c.329-.385.635-.789.635-.789Z" transform="translate(-691.237 -559.308)" opacity="0.1"/>
    <path id="Path_203" data-name="Path 203" d="M1074.042,827.227a21.533,21.533,0,0,0-5.756.592l-.026-1.26,5.591-.579a10.789,10.789,0,0,0,.191,1.246Z" transform="translate(-726.262 -560.469)" opacity="0.1"/>
    <path id="Path_204" data-name="Path 204" d="M1041.039,651.737l-.118,4.276s.151,6.545-.306,7.565-.457,5.206-.457,5.206.306,1.973-.03,2.4-.092,2.01.151,2.832a11.126,11.126,0,0,1,.03,2.861l-.059,11.511s-.329,2.983-.763,3.411a1,1,0,0,0-.243.987,10.253,10.253,0,0,0-.273,2.01,1.011,1.011,0,0,1-.424,1.339c-.7.336-.52,1.4-.52,1.4-1.674-.4-6.423.658-6.423.658a29.173,29.173,0,0,1-1.342-3.259,1.687,1.687,0,0,1,1.22-2.223c.638-.089-.457-1.217-.457-1.217s.122-.151-.184-1.25a17.443,17.443,0,0,1,.155-4.628c.092-.73.546-4.276.546-4.276a38.8,38.8,0,0,1-.059-4.657,4.067,4.067,0,0,0,.487-2.526,30.5,30.5,0,0,1-.793-4.6c0-.22-.395-5.147-.395-5.147a41.047,41.047,0,0,1-.273-4.17,26.882,26.882,0,0,0-.247-3.44,11.691,11.691,0,0,0-1.316-4.69l-.033.089-2.828,7.486s-.457,2.253-.852,3.532a23.179,23.179,0,0,0-.6,2.631l-.026.164-.026.171-.02.122h0a4.873,4.873,0,0,1-.125,2.131,7.6,7.6,0,0,0-.7,2.5c0,.428.03,2.072.03,2.072s.122,3.256-.214,3.618a.569.569,0,0,0-.151.658,10.493,10.493,0,0,1,.3,3.1,6.418,6.418,0,0,0-.059,2.131s-.487,4.72-.549,4.963-.395,2.131-.03,2.283a4.877,4.877,0,0,1,1.066,1.066s.151,3.99-.395,4.292-.247,1.858-.247,1.858-4.414.852-5.417.365a13.892,13.892,0,0,0-3.167-.76l.3-.987c-.02.036-.22.362-.362-.885-.155-1.316,1.125-.658,1.125-.658s1.006.243-.608-1.339-.822-3.2-.73-3.2a20.419,20.419,0,0,0,.3-2.345,7.755,7.755,0,0,0,.063-2.5c-.214-1.1-.395-4.506-.395-4.506a16.506,16.506,0,0,0-.125-3.532,7.485,7.485,0,0,1,.276-3.046c.092-.414-.276-4.019-.276-4.019a11.273,11.273,0,0,0,.125-2.96,49.965,49.965,0,0,1,.181-5.848l.549-5.3a10.942,10.942,0,0,0,.329-2.3,18.464,18.464,0,0,1,.457-3.013,3.341,3.341,0,0,1,.243-1.464,11.242,11.242,0,0,0,.428-2.631l2.924-6.7,1.431-5.92,19.333-.184s.069.513.188,1.444.283,2.3.467,4.009c.168,1.546.352,3.365.533,5.387C1042.259,650.58,1041.039,651.737,1041.039,651.737Z" transform="translate(-690.092 -431.134)" fill="#3f3d56"/>
    <path id="Path_205" data-name="Path 205" d="M1069.042,517.23l-4.5,4.818s-5.782-2.3-5.174-3.108a4.5,4.5,0,0,0,.063-2.338c-.214-1.687-.658-3.618-.658-3.618s10.107-1.644,9.252.059a2.8,2.8,0,0,0-.062,2.023A7.66,7.66,0,0,0,1069.042,517.23Z" transform="translate(-719.893 -349.937)" fill="#fbbebe"/>
    <path id="Path_206" data-name="Path 206" d="M1068.009,512.993c-.309.625-.457.684-.263,1.355-1.316,1.417-3,2.96-5.095,2.96a7.211,7.211,0,0,1-3.223-.756c-.214-1.687-.658-3.618-.658-3.618S1068.864,511.289,1068.009,512.993Z" transform="translate(-719.893 -349.903)" opacity="0.1"/>
    <path id="Path_207" data-name="Path 207" d="M1063.035,490.238a7.247,7.247,0,0,1-14.495,0v-.105a7.246,7.246,0,0,1,14.491.105Z" transform="translate(-713.028 -330.253)" fill="#fbbebe"/>
    <path id="Path_208" data-name="Path 208" d="M1054.207,642.313c-.96,0-4.157.033-7.729.092h-.043l-1.181.02h-.036c-4.236.066-8.41-.76-10.087-.605-3.562.329,1.28-3.289,1.28-3.289a29.875,29.875,0,0,0,8.114.819l1.026-.053a44.88,44.88,0,0,0,8.189-.987C1053.858,639.244,1054.023,640.612,1054.207,642.313Z" transform="translate(-703.151 -434.523)" opacity="0.1"/>
    <path id="Path_209" data-name="Path 209" d="M1054.207,641.759c-.96,0-4.157.036-7.729.092h-.043l-1.181.02h-.036c-4.236.069-8.41-.76-10.087-.6-3.562.329,1.28-3.289,1.28-3.289a29.72,29.72,0,0,0,8.114.819l1.026-.053a44.584,44.584,0,0,0,8.189-.987C1053.858,638.691,1054.023,640.059,1054.207,641.759Z" transform="translate(-703.151 -434.154)" fill="#5f5d7e"/>
    <path id="Path_210" data-name="Path 210" d="M1044.416,531.265l-5.591,2.631-4.325,33.429s2.559-1.158,4.019-.428,5.966.063,5.966.063,3.289-.184,3.776.184,6.213-1.523,6.213-1.523,1.036-2.3.243-2.681.243-3.947.243-3.947l-.487-24.115-.987-3.1-2.631-1.585-2.677,2.131-1.279.184Z" transform="translate(-703.606 -361.963)" opacity="0.1"/>
    <path id="Path_211" data-name="Path 211" d="M1044.4,530.162l-5.591,2.631-4.335,33.432s2.559-1.158,4.019-.427,5.966.062,5.966.062,3.289-.184,3.776.181,6.213-1.52,6.213-1.52,1.036-2.3.243-2.68.243-3.947.243-3.947l-.487-24.115-.987-3.1-2.631-1.585-2.677,2.131-1.279.184Z" transform="translate(-703.585 -361.225)" fill="#e7effd"/>
    <path id="Path_212" data-name="Path 212" d="M1055.458,536.1s1.615,1.917,1.585,2.3-.092,1.342-.092,1.342l-1.217,2.463s-.658,3.075-.658,3.716-1.066,6.18-1.066,6.18l-1.306,8.535-1.615,11.182,1.644,2.832,1.95-1.644,2.589-19.911.546-3.927s.579-7.065.579-7.795a24.843,24.843,0,0,0-.329-2.648,3.119,3.119,0,0,1,2.042-2.253c1.645-.424-.125-.092-.125-.092l-.941-.76-.822.329S1055.945,535.245,1055.458,536.1Z" transform="translate(-714.739 -365.607)" opacity="0.1"/>
    <path id="Path_213" data-name="Path 213" d="M1054.961,535.5s1.612,1.917,1.582,2.3-.092,1.339-.092,1.339l-1.217,2.467s-.658,3.075-.658,3.713-1.066,6.18-1.066,6.18l-1.276,8.525-1.615,11.182,1.645,2.832,1.947-1.644,2.588-19.911.549-3.927s.579-7.065.579-7.795a24.9,24.9,0,0,0-.329-2.651,3.116,3.116,0,0,1,2.039-2.253c1.645-.428-.122-.089-.122-.089l-.944-.763-.822.329S1055.448,534.651,1054.961,535.5Z" transform="translate(-714.424 -365.198)" fill="#6c63ff"/>
    <path id="Path_214" data-name="Path 214" d="M1058.09,526.79s-.244.184-.306,1.4a24.364,24.364,0,0,1-.914,3.947s3.167-2.19,4.749-1.947Z" transform="translate(-718.618 -359.681)" opacity="0.1"/>
    <path id="Path_215" data-name="Path 215" d="M1058.09,525.68s-.244.184-.306,1.4a24.363,24.363,0,0,1-.914,3.947s3.167-2.19,4.749-1.947Z" transform="translate(-718.618 -358.936)" fill="#e7effd"/>
    <path id="Path_216" data-name="Path 216" d="M1076.683,523.83l-4.993,4.384a50.9,50.9,0,0,1,4.749,3.1c.549.608,1.1-5.966,1.1-5.966Z" transform="translate(-728.564 -357.695)" opacity="0.1"/>
    <path id="Path_217" data-name="Path 217" d="M1077.233,522.72l-4.993,4.384a50.458,50.458,0,0,1,4.749,3.1c.546.608,1.1-5.966,1.1-5.966Z" transform="translate(-728.933 -356.95)" fill="#e7effd"/>
    <path id="Path_218" data-name="Path 218" d="M1031.541,526.7s-.546-.273-1.066.52a3.438,3.438,0,0,1-1.49,1.154s-5.542.885-5.756,1.615l-2.588.151s-.914.122-.987,2.042-.579,2.1-.579,2.1a7.489,7.489,0,0,0-.987,2.861,1.6,1.6,0,0,1-.822,1.464l3.805,9.893s.122,4.082-.579,5.571-2.01,8.1-2.01,8.1.549-.122.516.243-.658,4.355-.658,4.355a8.864,8.864,0,0,1-.487,2.131,15.52,15.52,0,0,0-.329,3.407l-.487,2.072s1.154,2.588,2.921,2.223,4.96-7.278,4.96-7.278l2.039-7.459,1.585-7.367L1029,549.5l.73-11.054,1.066-7.3S1031.969,527.217,1031.541,526.7Z" transform="translate(-691.888 -359.588)" opacity="0.1"/>
    <path id="Path_219" data-name="Path 219" d="M1030.984,525.587s-.549-.273-1.066.52a3.457,3.457,0,0,1-1.493,1.154s-5.542.885-5.756,1.615l-2.585.151s-.914.122-1.006,2.039-.579,2.1-.579,2.1a7.489,7.489,0,0,0-.987,2.861,1.6,1.6,0,0,1-.822,1.464l3.819,9.906s.122,4.082-.579,5.571-2.01,8.1-2.01,8.1.549-.122.52.243-.658,4.351-.658,4.351a8.672,8.672,0,0,1-.487,2.131,15.333,15.333,0,0,0-.329,3.411l-.487,2.072s1.158,2.588,2.924,2.22,4.963-7.275,4.963-7.275l2.039-7.459,1.582-7.367.437-5.012.73-11.054,1.066-7.3S1031.409,526.107,1030.984,525.587Z" transform="translate(-691.512 -358.844)" fill="#65617d"/>
    <path id="Path_220" data-name="Path 220" d="M985.681,585.861l-1.766,1.217a20.913,20.913,0,0,1-4.631-.388l-.987-.437-.2-.085.2.066a4.032,4.032,0,0,0,2.437.086c2.5-.842,2.223-4.966,2.125-5.9a.863.863,0,0,0-.02-.178h0v.023a1.651,1.651,0,0,0,.115.161l.112.118h0l.914,1.756a.49.49,0,0,1,0,.076Z" transform="translate(-665.756 -395.552)" opacity="0.1"/>
    <path id="Path_221" data-name="Path 221" d="M992.154,561.14l-.852.243-.122,1.733a1.179,1.179,0,0,0-1.279,1.036,4.179,4.179,0,0,1-.76,1.737s-1.674,1.4-1.766,2.588l-1.036.638s-2.4-.549-2.96-1.523c0,0,1.1,7.854-4.749,5.92,0,0,6.545,2.861,6.851,3.259a3.827,3.827,0,0,0,4.141.579,4.343,4.343,0,0,0,2.223-2.467,25.435,25.435,0,0,0,1.825-2.832c.059-.365,1.431-.793,1.431-.793l2.631-6.331Z" transform="translate(-666.111 -382.734)" fill="#65617d"/>
    <path id="Path_222" data-name="Path 222" d="M1083.512,526.739l.881-4.019a4.73,4.73,0,0,0,.793,1.615l1.316.987a7.724,7.724,0,0,0,1.766.608,10.673,10.673,0,0,1,3.227.987c.3.329,1.523.092,1.523.092s1,.329,1.888.549,1.316,1.674,1.125,2.253a1.76,1.76,0,0,0,.428,1.644,3.926,3.926,0,0,1,.549,1.552,1.783,1.783,0,0,1,1.033.881,6.087,6.087,0,0,1,.214,2.131l-4.536,6.394a18.809,18.809,0,0,1-.122,3.016c-.181.549.638,9.867.638,9.867l.944,16.014a16.643,16.643,0,0,1-1.523,1.187c-.273.122-.546-5.664-.546-5.874s-7.035-10.525-7.035-10.525a9.45,9.45,0,0,1-.944-1.858c0-.335-.881-3.411-.881-3.411l-1.339-5.92Z" transform="translate(-736.094 -356.95)" opacity="0.1"/>
    <path id="Path_223" data-name="Path 223" d="M1099.363,535.682v.349l-4.532,6.387h0a18.43,18.43,0,0,1-.122,3.016c-.105.329.125,3.595.329,6.285.155,1.94.3,3.578.3,3.578l.4,6.792.543,9.209a16.6,16.6,0,0,1-1.523,1.187c-.273.122-.546-5.664-.546-5.877s-7.035-10.525-7.035-10.525a9.451,9.451,0,0,1-.944-1.858c0-.336-.881-3.411-.881-3.411l-1.339-5.92.608-18.145.516-4.019a8.622,8.622,0,0,0,1.158,1.612l1.316,1.006a7.723,7.723,0,0,0,1.766.608,10.672,10.672,0,0,1,3.227.987c.3.329,1.523.092,1.523.092s1.006.329,1.888.549,1.316,1.674,1.125,2.253a1.763,1.763,0,0,0,.428,1.644,3.927,3.927,0,0,1,.549,1.552,1.782,1.782,0,0,1,1.033.882A4.933,4.933,0,0,1,1099.363,535.682Z" transform="translate(-736.832 -356.956)" fill="#65617d"/>
    <path id="Path_224" data-name="Path 224" d="M1017.53,808.76c.151,0,6.545.243,6.423,1.279S1017.53,808.76,1017.53,808.76Z" transform="translate(-692.217 -548.913)" opacity="0.1"/>
    <path id="Path_225" data-name="Path 225" d="M1021.88,814s4.292.7,3.167,1.339S1021.88,814,1021.88,814Z" transform="translate(-695.136 -552.429)" opacity="0.1"/>
    <path id="Path_226" data-name="Path 226" d="M1070.39,806.73s7.124.608,6.058,1.4-3.592.914-3.713.944S1070.39,806.73,1070.39,806.73Z" transform="translate(-727.691 -547.55)" opacity="0.1"/>
    <path id="Path_227" data-name="Path 227" d="M1067.8,816.26s3.947.658,4.078,1.431S1067.8,816.26,1067.8,816.26Z" transform="translate(-725.953 -553.946)" opacity="0.1"/>
    <path id="Path_228" data-name="Path 228" d="M1074.46,760.53s3.618.852,3.838,1.431Z" transform="translate(-730.423 -516.545)" opacity="0.1"/>
    <path id="Path_229" data-name="Path 229" d="M1030.252,768.49s-1.888.549-.059,1.644S1030.252,768.49,1030.252,768.49Z" transform="translate(-700.18 -521.887)" opacity="0.1"/>
    <path id="Path_230" data-name="Path 230" d="M1057.43,678.034c.214,0,3.532-1.1,4.69-.608a7.712,7.712,0,0,0,2.585.487Z" transform="translate(-718.994 -460.69)" opacity="0.1"/>
    <path id="Path_231" data-name="Path 231" d="M1049.918,686.651l-.033.3-2.839,7.433s-.457,2.253-.852,3.532a23.229,23.229,0,0,0-.6,2.631l2.513-15.58Z" transform="translate(-711.055 -465.836)" opacity="0.1"/>
    <path id="Path_232" data-name="Path 232" d="M1068.271,643.865l-1.181.02h-.036l-.694-3.069,1.026-.056Z" transform="translate(-724.987 -436.167)" fill="#3f3d56"/>
    <path id="Path_233" data-name="Path 233" d="M1090.831,632.934l-.756.625-2.533,2.082s-6.848,3.654-8.735.184c-1.664-3.059,6.1-5.242,7.972-5.719l.4-.1Z" transform="translate(-733.184 -428.953)" fill="#fbbebe"/>
    <path id="Path_234" data-name="Path 234" d="M1026.88,547.9s1.339.608,1.645,1.46S1026.88,547.9,1026.88,547.9Z" transform="translate(-698.492 -373.848)" opacity="0.1"/>
    <path id="Path_235" data-name="Path 235" d="M1011.544,575.67s-1.947,2.375-1.158,3.289S1011.544,575.67,1011.544,575.67Z" transform="translate(-687.296 -392.485)" opacity="0.1"/>
    <path id="Path_236" data-name="Path 236" d="M1116.338,552s-1.825.184-1.888,1.766Z" transform="translate(-757.26 -376.6)" opacity="0.1"/>
    <path id="Path_237" data-name="Path 237" d="M1068.72,615.884c.184-.184,4.384-6.394,5.361-5.844Z" transform="translate(-726.571 -415.527)" opacity="0.1"/>
    <path id="Path_238" data-name="Path 238" d="M1063.068,490.271a7.236,7.236,0,0,1-.858,3.421h-.053c-.461-.1-.7-.631-1.049-.967a1.424,1.424,0,0,0-1.645-.23,1.671,1.671,0,0,0-.809,1.562c-.23-.987-.158-2.013-.385-2.99s-.908-1.973-1.842-1.973c-.4,0-.872.148-1.161-.155a2.881,2.881,0,0,1-.329-.687c-.658-1.082-2.7-.536-3.526.02a21.462,21.462,0,0,1-2.822,1.911,7.246,7.246,0,0,1,14.491.105Z" transform="translate(-713.062 -330.286)" opacity="0.1"/>
    <path id="Path_239" data-name="Path 239" d="M1051.119,480.073a4.626,4.626,0,0,0,.329.691c.289.3.76.145,1.161.151.934.016,1.618,1.006,1.842,1.973s.155,2.013.388,2.986a1.645,1.645,0,0,1,.806-1.559,1.431,1.431,0,0,1,1.644.227c.349.329.589.872,1.049.967s.9-.345,1.066-.829a12.678,12.678,0,0,0,.263-1.516,19.7,19.7,0,0,1,1.171-2.631,4.772,4.772,0,0,0-.03-3.4c-.23-.572-.569-1.085-.8-1.644-.352-.865-.444-1.845-.872-2.671a3.157,3.157,0,0,0-3.792-1.559c-.658.25-1.237.73-1.908.947a6.266,6.266,0,0,1-2.792-.059,3.437,3.437,0,0,0-2.71.47c-.862.707-1.1,2.033-1.908,2.806-.329.329-.763.533-1.121.832a1.546,1.546,0,0,0-.628,1.237c.056.632.658,1.2.444,1.789a1.391,1.391,0,0,1-.329.444,6.372,6.372,0,0,0-1.474,2.509c1.644.506,3.394-1.289,4.667-2.138C1048.422,479.54,1050.452,478.994,1051.119,480.073Z" transform="translate(-709.256 -322.308)" fill="#7c5c5c"/>
    <path id="Path_240" data-name="Path 240" d="M1107.33,632.934l-.756.625a21.726,21.726,0,0,0-3.414-3.338l.118-.115.4-.1Z" transform="translate(-749.683 -428.953)" opacity="0.1"/>
    <path id="Path_241" data-name="Path 241" d="M1108.437,629.813s-.27.678-.552,1.263-.589,1.118-.6.687c-.033-.855-3.562-3.716-3.562-3.716l.477-.467.556-.539Z" transform="translate(-750.059 -426.959)" fill="#e7effd"/>
    <path id="Path_242" data-name="Path 242" d="M1108.619,614.468l.4,6.792c-.947-1.47-3.542-5.239-5.21-5.118l4.049-4.657a5.429,5.429,0,0,0,.464-.6C1108.477,612.831,1108.619,614.468,1108.619,614.468Z" transform="translate(-750.12 -416.121)" opacity="0.1"/>
    <path id="Path_243" data-name="Path 243" d="M1109.41,629.813s-.27.678-.552,1.263c-1.062-1.454-2.519-3.174-3.687-3.5l.556-.539Z" transform="translate(-751.032 -426.959)" opacity="0.1"/>
    <path id="Path_244" data-name="Path 244" d="M1111.911,560.58l1.1.852s1.829.033,2.01,1.552a3.174,3.174,0,0,0,1.858,2.223s1.247,1.25,1.247,1.829.944,1.612.944,1.7.914,1.947.793,2.283.987,1.8.638,2.345a14.093,14.093,0,0,0-.73,1.523,15.429,15.429,0,0,1-2.161,3.256,58.32,58.32,0,0,0-4.078,4.874s-3.595,4.137-3.595,5.417c0,0-3.5-5.844-5.572-5.693l4.049-4.657a3.157,3.157,0,0,0,.734-1.217c.033-.454,1.947-2.559,2.861-2.651,0,0,.151-1.247-.243-1.279s-.73-.987-.73-.987-2.681-3.167-2.71-5.177S1111.911,560.58,1111.911,560.58Z" transform="translate(-750.489 -382.358)" fill="#65617d"/>
    <path id="Path_245" data-name="Path 245" d="M1127.972,569.37s-2.559,1.888-2.01,2.5S1127.972,569.37,1127.972,569.37Z" transform="translate(-764.934 -388.257)" opacity="0.1"/>
    <path id="Path_246" data-name="Path 246" d="M1132.6,591.689s4.749-1.523,5.236,0Z" transform="translate(-769.441 -402.781)" opacity="0.1"/>
    <path id="Path_247" data-name="Path 247" d="M1008.6,838.121s-2.559,1.677-3.838,1.431a4.6,4.6,0,0,0-2.588.428,7.684,7.684,0,0,1-3.227,2.1,11.82,11.82,0,0,1-6.608-.122c-.776-.26-.839-.6-.464-1.006,1.786.355,5.782,1.062,6.857.549a28.55,28.55,0,0,0,3.411-2.131s2.631-.365,2.983-.365a32.579,32.579,0,0,0,3.424-1.316Z" transform="translate(-674.851 -568.328)" opacity="0.1"/>
    <path id="Path_248" data-name="Path 248" d="M1075.19,849.45a.554.554,0,0,1-.023.168s-.608,1.339-3.99,1.825-3.378-1.125-3.378-1.125l.033-.437C1068.9,850.289,1071.237,850.739,1075.19,849.45Z" transform="translate(-725.953 -576.22)" opacity="0.1"/>
    <path id="Path_249" data-name="Path 249" d="M1029.174,568.26s0,6.943-.592,7.627S1029.174,568.26,1029.174,568.26Z" transform="translate(-699.523 -387.512)" opacity="0.1"/>
    <path id="Path_250" data-name="Path 250" d="M1114.17,575.07l.885,2.48S1115.4,575.116,1114.17,575.07Z" transform="translate(-757.072 -392.082)" opacity="0.1"/>
    <g id="Group_12" data-name="Group 12" transform="translate(333.68 154.631)" opacity="0.1">
      <path id="Path_251" data-name="Path 251" d="M1047.62,490.593c.224-.569-.362-1.131-.437-1.743a1.123,1.123,0,0,0-.1.549,10.7,10.7,0,0,0,.47,1.316A.744.744,0,0,0,1047.62,490.593Z" transform="translate(-1045.729 -488.85)"/>
      <path id="Path_252" data-name="Path 252" d="M1054.965,501.084c-.217-.96-.151-1.973-.375-2.937s-.908-1.973-1.842-1.973c-.4,0-.872.145-1.161-.155-.177-.181-.21-.467-.329-.691-.658-1.079-2.7-.53-3.529.023-1.243.826-2.96,2.559-4.552,2.164-.076.184-.148.372-.207.566,1.645.507,3.394-1.289,4.667-2.138.832-.552,2.861-1.1,3.529-.02a4.627,4.627,0,0,0,.329.691c.289.3.76.145,1.161.151.934.016,1.618,1.006,1.842,1.973s.155,2.013.388,2.986a1.644,1.644,0,0,1,.079-.641Z" transform="translate(-1042.97 -492.783)"/>
      <path id="Path_253" data-name="Path 253" d="M1084.037,509.54c-.164.483-.6.927-1.069.829s-.7-.631-1.046-.967a1.434,1.434,0,0,0-1.645-.23,1.664,1.664,0,0,0-.809,1.477,1.589,1.589,0,0,1,.717-.881,1.431,1.431,0,0,1,1.645.227c.349.329.589.872,1.049.967s.9-.345,1.066-.829a3.889,3.889,0,0,0,.168-.875,2.1,2.1,0,0,1-.076.283Z" transform="translate(-1067.464 -502.38)"/>
      <path id="Path_254" data-name="Path 254" d="M1095.15,496.618a21.106,21.106,0,0,0-1.171,2.631c-.039.191-.066.388-.089.585a20.292,20.292,0,0,1,1.168-2.631,4.566,4.566,0,0,0,.28-1.263A4.589,4.589,0,0,1,1095.15,496.618Z" transform="translate(-1077.143 -493.608)"/>
    </g>
    <ellipse id="Ellipse_55" data-name="Ellipse 55" cx="0.076" cy="0.076" rx="0.076" ry="0.076" transform="translate(307.612 179.535)" fill="#e6e8ec"/>
    <rect id="Rectangle_57" data-name="Rectangle 57" width="59.59" height="68.482" rx="6.61" transform="translate(279.274 181.307)" fill="#fff"/>
    <rect id="Rectangle_58" data-name="Rectangle 58" width="59.59" height="68.482" rx="6.61" transform="translate(279.274 181.307)" fill="#5a5773" opacity="0.1"/>
    <rect id="Rectangle_59" data-name="Rectangle 59" width="53.512" height="61.497" rx="6.61" transform="translate(282.313 184.8)" fill="#fff"/>
    <rect id="Rectangle_60" data-name="Rectangle 60" width="36.712" height="12.669" rx="6.03" transform="translate(290.098 197.134)" fill="#6c63ff"/>
    <rect id="Rectangle_61" data-name="Rectangle 61" width="34.018" height="2.585" transform="translate(291.446 214.437)" fill="#6c63ff"/>
    <rect id="Rectangle_62" data-name="Rectangle 62" width="46.809" height="2.585" transform="translate(285.664 219.893)" fill="#6c63ff"/>
    <rect id="Rectangle_63" data-name="Rectangle 63" width="46.809" height="2.585" transform="translate(285.664 225.636)" fill="#6c63ff"/>
    <rect id="Rectangle_64" data-name="Rectangle 64" width="46.809" height="2.585" transform="translate(285.664 231.378)" fill="#6c63ff"/>
    <rect id="Rectangle_65" data-name="Rectangle 65" width="140.311" height="68.482" rx="6.61" transform="translate(0 158.669)" fill="#fff"/>
    <rect id="Rectangle_66" data-name="Rectangle 66" width="140.311" height="68.482" rx="6.61" transform="translate(0 158.669)" fill="#5a5773" opacity="0.1"/>
    <rect id="Rectangle_67" data-name="Rectangle 67" width="125.994" height="61.497" rx="6.61" transform="translate(7.157 162.162)" fill="#fff"/>
    <rect id="Rectangle_68" data-name="Rectangle 68" width="86.438" height="12.669" rx="6.03" transform="translate(25.493 174.499)" fill="#6c63ff"/>
    <rect id="Rectangle_69" data-name="Rectangle 69" width="80.097" height="2.585" transform="translate(28.663 191.799)" fill="#6c63ff"/>
    <rect id="Rectangle_70" data-name="Rectangle 70" width="110.214" height="2.585" transform="translate(15.047 197.255)" fill="#6c63ff"/>
    <rect id="Rectangle_71" data-name="Rectangle 71" width="110.214" height="2.585" transform="translate(15.047 202.998)" fill="#6c63ff"/>
    <rect id="Rectangle_72" data-name="Rectangle 72" width="110.214" height="2.585" transform="translate(15.047 208.74)" fill="#6c63ff"/>
    <path id="Path_255" data-name="Path 255" d="M132.664,611.084c.391-1.427.658-2.684.658-2.684a5.591,5.591,0,0,1,.73-2.72v-.395h0l.112-2.9a9.646,9.646,0,0,0-.658-1.546c-.487-.931.164-4.249.164-4.249s2.115-4.628,1.76-7.63,4.48-13.1,4.48-13.1a12.985,12.985,0,0,0-.3-2.96,2.27,2.27,0,0,1-.033-.615.582.582,0,0,1,0-.076v.023a22.623,22.623,0,0,1,1.839-5.591l.063-7.038a20.736,20.736,0,0,1,.987-9.686c.641-1.921,1.062-3.46,1.339-4.651.033-.135.062-.263.089-.388-3.315-.638-5.848-1.158-5.848-1.158s2.246-8.018,3.618-9.383,2.575-5.779,2.575-5.779.9-5.69-.132-7.4a11.152,11.152,0,0,1-1.079-4.6s-2.44-1.917-2.723-2.736a13.417,13.417,0,0,1-.7-3.618c.036-.954.385-1.809.3-2.319s.826-2.4.441-3.325a2.546,2.546,0,0,1-.132-.885v-.026h0a12.308,12.308,0,0,1,.312-2.365,6.709,6.709,0,0,1,2.533-1.23l.063-.217.164-.562a2.752,2.752,0,0,1,.25-.138l.016-.207.053-.819-.316-1.868c-.658-3.243,3.657-3.555,3.657-3.555a2.259,2.259,0,0,1,1.253-1.02c.875-.27-.039,4.838-.457,5.15a17.455,17.455,0,0,0-1.792,2.582h0l-.079.128a1.774,1.774,0,0,1,.191.214l-.207,1.108-.033.168a4.606,4.606,0,0,1,.641,1.194,2.48,2.48,0,0,0-.7,1.8,5.786,5.786,0,0,1-.329,2.214c.046-.049.622-.625,1.168-.461s2.065.687,2.065.687,1.141.247,1.026.5.733,1.395.733,1.395l3.2-2.805c.036-.089.069-.174.1-.263a7.351,7.351,0,0,0,.329-1.273,6.878,6.878,0,0,1-.987-.352,2.147,2.147,0,0,1-.835-.579,3.453,3.453,0,0,1-.444-1.352,18.946,18.946,0,0,0-1.049-2.6,8.318,8.318,0,0,1-.441-4.6,3.066,3.066,0,0,1,.526-1.316c.533-.674,1.457-.921,2.144-1.447s1.148-1.358,1.937-1.743a3.733,3.733,0,0,1,2.355-.112,12.583,12.583,0,0,1,4.292,1.746,2.23,2.23,0,0,0,1.447.539,2,2,0,0,0,1.085-.733.245.245,0,0,1,0-.046l.036-.036a5.424,5.424,0,0,1,.388,2.329,1.737,1.737,0,0,1-.026.368v.128a.6.6,0,0,0,0,.109h0a.543.543,0,0,0,.02.161,1.155,1.155,0,0,0,.273.431,2.35,2.35,0,0,1,.237.352.47.47,0,0,0-.036-.128,1.835,1.835,0,0,1,.283.987.964.964,0,0,1-.26.687,3.054,3.054,0,0,1-.52.388,5.9,5.9,0,0,1-3.052,6.016c-.039.086-.079.174-.115.263a7.354,7.354,0,0,0-.691,3.345.789.789,0,0,0,.026.247c.026.082.076.089.109.135h0s5.1.247,6.341-.8,2.927,2.773,2.927,2.773,1.816.424,2.194.086,2.513.046,2.513.046a4.6,4.6,0,0,1,3.23-1.043,9.438,9.438,0,0,1,2.391-1.21h0l.059-.02h0a2.579,2.579,0,0,1,1.154-.1,23.177,23.177,0,0,0,3.361-3.062c.773-1.089,4.4-5.078,4.4-5.1l.023-.2.062-.6a2.019,2.019,0,0,0,.309.039l.079-.207a11.294,11.294,0,0,1,.806-1.671s.03-.76-.184-.957a12.943,12.943,0,0,1,.207-2.96s2.463-5.2,4.335-1.174c0,0,3.73,2.7.4,5.548,0,0-1.316.572-1.5,1.056-.132.329-.6,1.191-.918,1.773l-.141.26.036.033-.066.493-.026.194c.589.365.987.72.878.987a5.591,5.591,0,0,0-.418,1.352s-4.651,5.361-5.315,7.726c0,0-12.189,6.624-16.116,6.979l.543,3.565a28.417,28.417,0,0,1,.046,2.891c-.082.756.309,4.213.309,4.213s.483,5.085,1.033,5.815.329,3.763.329,3.763a25.626,25.626,0,0,0,.618,4.328,11.059,11.059,0,0,1,0,4.305s1.812,4.628-2.825,1.358c0,0-2.329-.234-5.012-.428v.266c0,.349-.016.724-.026,1.118-.066,2.608-.187,6.2-.411,8.913-.395,4.8-2.223,14.251-2.223,14.251l-.184,4.776a6.328,6.328,0,0,1,.086,1.372,8.88,8.88,0,0,1-1.47,4.733l-.49,3.174a12.507,12.507,0,0,0-1,3.319,1.493,1.493,0,0,0,.026.306,2.44,2.44,0,0,1,.023.49,26.838,26.838,0,0,1-1.013,4.874s-.187,3.49-.717,3.67c-.454.158.52,2.036.809,2.575a.531.531,0,0,0,.023-.1l.063.105a2.48,2.48,0,0,1,.128.891,1.273,1.273,0,0,1-.628,1.2c-1.016.569-1.569,1.052-.733,1.289a9.285,9.285,0,0,1,.914.227l.049-.115a.562.562,0,0,1,.329.625,2.555,2.555,0,0,1-.358,1.171A12.746,12.746,0,0,1,158.5,608.9l-.4-.059a2.006,2.006,0,0,0,.217.437,1.671,1.671,0,0,0,.572.549,1.828,1.828,0,0,0,.7.27,2.029,2.029,0,0,1,1.454.779,1.54,1.54,0,0,1-.276,2.391l-3.786,1.144s-6.46.589-6.065-.839.658-2.684.658-2.684a5.706,5.706,0,0,1,.618-2.539,3.392,3.392,0,0,1,.243-.368l-.227-.033s-.375-3.207-.993-3.828c-.138-.148-.168-.257-.132-.329-.056-.174.109-.27.329-.329a.512.512,0,0,0,.043.125,3.179,3.179,0,0,1,.625-.043s.273-1.661-.382-2.3a.625.625,0,0,1-.112-.5,2.562,2.562,0,0,1,.1-.677.242.242,0,0,0,.023.039,24.893,24.893,0,0,1,1.645-3.861,4.834,4.834,0,0,0-.286-2.141c-.395-.625.372-8.242.372-8.242a24.978,24.978,0,0,1,.52-5.4,6.079,6.079,0,0,0-.431-3.766.523.523,0,0,1,.016-.109.135.135,0,0,0,0-.03s.033-.227.086-.579v.036c.145-.987.411-2.733.589-3.549.253-1.154.207-6.729.207-6.729l-.852-2.4-1.832,4.032-1.973,5.394a4.641,4.641,0,0,0-.987,2.3v.174a2.734,2.734,0,0,1,0,.365,3.263,3.263,0,0,1-.618,1.924s-.569,2.562-1.316,3.19a2.981,2.981,0,0,0-.806,1.894,32.379,32.379,0,0,1-1.477,4.351,6.544,6.544,0,0,0-.464,2.529h0v.135s-.174,1.335-.214,2.46v.4a.072.072,0,0,1,0-.026,3.812,3.812,0,0,0,.072.911v-.135a9.567,9.567,0,0,1,.181,2.342,6.008,6.008,0,0,1-1.148,3.835c-1.473,1.566-2.352,1.316-2.352,1.316s.6,2.049,1.421,2.486a.524.524,0,0,1,.089.059.2.2,0,0,1,.023-.115.987.987,0,0,1,.217.763,5.453,5.453,0,0,1-1.151,2.96,1.644,1.644,0,0,1-.72.388,1.243,1.243,0,0,0,.128.086,2.6,2.6,0,0,0,.283.145,1.4,1.4,0,0,0,.421.128,2,2,0,0,1,1.454.779,1.537,1.537,0,0,1-.276,2.388l-3.786,1.145S132.266,612.511,132.664,611.084Z" transform="translate(-98.37 -334.654)" fill="url(#linear-gradient-3)"/>
    <path id="Path_256" data-name="Path 256" d="M195.056,854.629l3.667-1.148a1.574,1.574,0,0,0,.27-2.394,1.921,1.921,0,0,0-1.4-.773,1.716,1.716,0,0,1-.684-.273,1.645,1.645,0,0,1-.549-.546A2.7,2.7,0,0,1,196,848.08s-3.927-1.316-5.058-.194a2.96,2.96,0,0,0-.5.687,5.92,5.92,0,0,0-.605,2.539s-.25,1.253-.635,2.684S195.056,854.629,195.056,854.629Z" transform="translate(-136.308 -574.867)" fill="#2d293d"/>
    <path id="Path_257" data-name="Path 257" d="M141.433,847.112l3.667-1.148a1.571,1.571,0,0,0,.27-2.391,1.921,1.921,0,0,0-1.408-.776,1.293,1.293,0,0,1-.408-.125,2.575,2.575,0,0,1-.273-.148,2.321,2.321,0,0,1-.911-1.973s-3.927-1.316-5.058-.194a2.907,2.907,0,0,0-.4.5,5.739,5.739,0,0,0-.71,2.727s-.253,1.256-.635,2.684S141.433,847.112,141.433,847.112Z" transform="translate(-100.318 -569.813)" fill="#2d293d"/>
    <path id="Path_258" data-name="Path 258" d="M193.5,847.885a2.959,2.959,0,0,0-.5.687h0l5.92.918a2.7,2.7,0,0,1-.358-1.414S194.645,846.763,193.5,847.885Z" transform="translate(-138.873 -574.865)" opacity="0.1"/>
    <path id="Path_259" data-name="Path 259" d="M139.6,840.869l-.043,1.115c.868,1.562,5.358,1.4,6.687.687a2.565,2.565,0,0,1-.273-.148,2.321,2.321,0,0,1-.911-1.973s-3.927-1.316-5.058-.194A2.913,2.913,0,0,0,139.6,840.869Z" transform="translate(-103.01 -569.813)" opacity="0.1"/>
    <path id="Path_260" data-name="Path 260" d="M137.746,708.166a10.22,10.22,0,0,1,.658,1.546l-.161,3.993c.947,1.71,6.229,1.355,6.973.474s1.592-3.233.8-3.667-1.375-2.486-1.375-2.486.852.237,2.283-1.316,1.161-5.174.937-6.042a17.658,17.658,0,0,1,.148-3.743,7.487,7.487,0,0,1,.457-2.667,33.106,33.106,0,0,0,1.434-4.351,2.969,2.969,0,0,1,.779-1.894c.733-.628,1.289-3.194,1.289-3.194a3.309,3.309,0,0,0,.589-2.154,4.429,4.429,0,0,1,.96-2.6l1.931-5.394,1.776-4.036.819,2.411s.039,5.575-.207,6.729-.658,4.23-.658,4.23a6.254,6.254,0,0,1,.414,3.766,25.986,25.986,0,0,0-.513,5.4s-.75,7.621-.368,8.242a4.952,4.952,0,0,1,.273,2.138s-2.243,4.371-1.612,5.006.368,2.3.368,2.3-1.414-.056-.832.576.895,3.812.895,3.812l6.088.944a12.884,12.884,0,0,0,1.467-2.529c.881-1.839-.086-1.674-.891-1.908s-.273-.72.71-1.289.48-1.957.48-1.957-1.372-2.536-.855-2.717.7-3.67.7-3.67,1.171-4.111.96-5.233.957-3.763.957-3.763l.474-3.171a8.758,8.758,0,0,0,1.345-5.976l.191-4.907s1.789-9.436,2.19-14.251c.25-3.072.375-7.272.431-9.893.033-1.473.046-2.447.046-2.447L148.33,649.36a17.962,17.962,0,0,1-.523,3.23,48.029,48.029,0,0,1-1.316,4.654,21.391,21.391,0,0,0-.987,9.686l-.069,7.038s-2.1,4.631-1.76,6.265a13.368,13.368,0,0,1,.289,2.96s-4.684,10.09-4.341,13.08-1.714,7.634-1.714,7.634S137.276,707.236,137.746,708.166Z" transform="translate(-101.676 -441.938)" fill="#575988"/>
    <path id="Path_261" data-name="Path 261" d="M165.667,747.151,159.05,746S162.671,750,165.667,747.151Z" transform="translate(-116.089 -506.794)" opacity="0.05"/>
    <path id="Path_262" data-name="Path 262" d="M161.795,726.39s-.329,2.342,1.089,3.289C162.87,729.672,160.321,729.169,161.795,726.39Z" transform="translate(-117.624 -493.634)" opacity="0.1"/>
    <path id="Path_263" data-name="Path 263" d="M164.85,703.67s5.384,4.792,7.42,4.493S164.85,703.67,164.85,703.67Z" transform="translate(-119.982 -478.386)" opacity="0.1"/>
    <path id="Path_264" data-name="Path 264" d="M204,757s4.187,1.125,4.249,2.822S204,757,204,757Z" transform="translate(-146.255 -514.176)" opacity="0.1"/>
    <path id="Path_265" data-name="Path 265" d="M196.459,821s5.92,1.342,4.2,2.036a28.677,28.677,0,0,1-4.529,1.194S194.206,824.263,196.459,821Z" transform="translate(-140.461 -557.127)" opacity="0.05"/>
    <g id="Group_13" data-name="Group 13" transform="translate(35.9 210.375)" opacity="0.05">
      <path id="Path_266" data-name="Path 266" d="M212.736,829.282a1.184,1.184,0,0,0,.579-.842l.056.109s.507,1.385-.48,1.973c-.112.063-.217.128-.329.191-.174-.039-.365-.072-.546-.125C211.213,830.341,211.749,829.854,212.736,829.282Z" transform="translate(-187.274 -772.495)"/>
      <path id="Path_267" data-name="Path 267" d="M191.436,826.753c-.158-.158-.135-.546,0-1.043a2.825,2.825,0,0,1,.283,1.48,1.151,1.151,0,0,0-.283-.437Z" transform="translate(-173.65 -770.663)"/>
      <path id="Path_268" data-name="Path 268" d="M197.226,752.48a6.881,6.881,0,0,1,.329,1.878,7.172,7.172,0,0,0-.414-1.3S197.176,752.835,197.226,752.48Z" transform="translate(-177.552 -721.518)"/>
      <path id="Path_269" data-name="Path 269" d="M156.09,741.676a2.414,2.414,0,0,1-.036-.556c.062.381.1.733.125,1.043C156.152,742,156.123,741.844,156.09,741.676Z" transform="translate(-149.977 -713.894)"/>
      <path id="Path_270" data-name="Path 270" d="M195.5,804.868a3.351,3.351,0,0,1-.105-1.128,3.806,3.806,0,0,1,.237,1.427,1.392,1.392,0,0,0-.132-.3Z" transform="translate(-176.371 -755.919)"/>
      <path id="Path_271" data-name="Path 271" d="M190.143,836a19.867,19.867,0,0,1,.576,3.134l6.088.944a12.746,12.746,0,0,0,1.47-2.529c.079-.161.138-.306.191-.437.359.181.49.569-.036,1.661a12.9,12.9,0,0,1-1.467,2.526l-6.1-.937s-.329-3.2-.918-3.832C189.673,836.217,189.877,836.076,190.143,836Z" transform="translate(-172.637 -777.569)"/>
      <path id="Path_272" data-name="Path 272" d="M214.468,708.006s-.184,3.49-.7,3.67h0c-.234-.589-.385-1.141-.155-1.224.513-.184.7-3.67.7-3.67s1.171-4.108.96-5.233.954-3.759.954-3.759l.477-3.174a8.758,8.758,0,0,0,1.345-5.976l.187-4.907s1.783-9.452,2.171-14.251c.247-3.072.372-7.272.431-9.893,0-.474.02-.895.026-1.25l.174.026s0,.987-.046,2.444c-.056,2.631-.181,6.825-.431,9.9-.388,4.8-2.167,14.251-2.167,14.251l-.191,4.9a8.768,8.768,0,0,1-1.342,5.976l-.48,3.174s-1.168,2.631-.957,3.763S214.468,708.006,214.468,708.006Z" transform="translate(-188.533 -658.34)"/>
      <path id="Path_273" data-name="Path 273" d="M146.438,837.485a5.92,5.92,0,0,0,1.059-2.365c.6.586-.2,2.746-.9,3.585s-6.025,1.237-6.973-.47l.036-.964C140.972,838.679,145.734,838.32,146.438,837.485Z" transform="translate(-138.95 -776.978)"/>
      <path id="Path_274" data-name="Path 274" d="M137.6,823.919a10.215,10.215,0,0,1,.658,1.546l-.03.707a11.052,11.052,0,0,0-.467-1.033,3.048,3.048,0,0,1-.171-1.26Z" transform="translate(-137.584 -769.435)"/>
      <path id="Path_275" data-name="Path 275" d="M159.074,812.274a9.89,9.89,0,0,1-.454-1.22s.852.233,2.279-1.332c1.039-1.141,1.181-3.361,1.1-4.822.224.872.49,4.476-.937,6.042A3.648,3.648,0,0,1,159.074,812.274Z" transform="translate(-151.701 -756.697)"/>
      <path id="Path_276" data-name="Path 276" d="M168.548,737.389a27.045,27.045,0,0,0-.217,3,4.269,4.269,0,0,0-.086-.474,17.922,17.922,0,0,1,.145-3.743,7.564,7.564,0,0,1,.457-2.667,33.612,33.612,0,0,0,1.434-4.351,2.986,2.986,0,0,1,.783-1.894c.733-.631,1.289-3.194,1.289-3.194a3.328,3.328,0,0,0,.589-2.154,4.429,4.429,0,0,1,.96-2.6l1.931-5.394,1.776-4.036.819,2.414v.77l-.658-1.973-1.776,4.032-1.931,5.4a4.384,4.384,0,0,0-.96,2.6,3.309,3.309,0,0,1-.589,2.154s-.556,2.562-1.289,3.19a2.969,2.969,0,0,0-.779,1.894,33.791,33.791,0,0,1-1.434,4.355A7.666,7.666,0,0,0,168.548,737.389Z" transform="translate(-158.114 -692.929)"/>
    </g>
    <path id="Path_277" data-name="Path 277" d="M167.151,500.744l.309,1.862-.053.822-.039.605,2.1.3.253-.428h0a19.25,19.25,0,0,1,1.74-2.585c.4-.312,1.3-5.42.447-5.151a2.22,2.22,0,0,0-1.217,1.02S166.529,497.5,167.151,500.744Z" transform="translate(-121.483 -339.124)" fill="#ffcdd3"/>
    <path id="Path_278" data-name="Path 278" d="M167.94,518.443l2.1.3.253-.427h0a1.865,1.865,0,0,0-2.3-.474Z" transform="translate(-122.055 -353.535)" opacity="0.1"/>
    <path id="Path_279" data-name="Path 279" d="M166.2,519.832l2.759.753.072-.414.2-1.108a1.917,1.917,0,0,0-2.681-.47l-.158.562Z" transform="translate(-120.888 -353.944)" fill="#dce6f2"/>
    <path id="Path_280" data-name="Path 280" d="M303.74,498.155l2.907,1.71s.122-.234.293-.553c.306-.582.76-1.457.888-1.773.194-.483,1.457-1.059,1.457-1.059,3.226-2.852-.382-5.545-.382-5.545-1.809-4.022-4.2,1.177-4.2,1.177a13.377,13.377,0,0,0-.2,2.96c.207.188.178.957.178.957a11.181,11.181,0,0,0-.783,1.671C303.8,497.974,303.74,498.155,303.74,498.155Z" transform="translate(-213.191 -334.595)" fill="#ffcdd3"/>
    <path id="Path_281" data-name="Path 281" d="M303.74,515.111l2.907,1.71s.122-.234.293-.553c-.408-.365-1.848-1.644-2.338-1.592a3.523,3.523,0,0,1-.7,0C303.8,514.93,303.74,515.111,303.74,515.111Z" transform="translate(-213.191 -351.551)" opacity="0.1"/>
    <path id="Path_282" data-name="Path 282" d="M302.71,516.294,306,518.067l.092-.717.066-.493s-1.868-1.73-2.44-1.69a3.11,3.11,0,0,1-.875-.036l-.059.6Z" transform="translate(-212.5 -351.856)" fill="#dce6f2"/>
    <path id="Path_283" data-name="Path 283" d="M190.45,525.545s14.495,2.2,11.807,1.217a3.65,3.65,0,0,1-2.684-3.266,7.637,7.637,0,0,1,.658-3.348,14.672,14.672,0,0,1,1.4-2.578s-10.893-6.548-8.88-.9a8.927,8.927,0,0,1,.53,2.661,7.5,7.5,0,0,1-.388,2.657,7.96,7.96,0,0,1-2.447,3.555Z" transform="translate(-137.162 -351.348)" fill="#ffcdd3"/>
    <path id="Path_284" data-name="Path 284" d="M196.993,516.671a8.927,8.927,0,0,1,.53,2.661c1.013.918,2.164.9,3.641.96,1.135.046,2.378.368,3.289-.145a14.671,14.671,0,0,1,1.4-2.579S194.98,511.021,196.993,516.671Z" transform="translate(-141.386 -351.348)" opacity="0.1"/>
    <ellipse id="Ellipse_56" data-name="Ellipse 56" cx="6.022" cy="6.022" rx="6.022" ry="6.022" transform="translate(54.169 157.298)" fill="#ffcdd3"/>
    <path id="Path_285" data-name="Path 285" d="M190.45,539.968s14.495,2.2,11.807,1.217a3.65,3.65,0,0,1-2.684-3.266,8.005,8.005,0,0,0-3.052-1.773A4.384,4.384,0,0,0,193.89,536a3.618,3.618,0,0,0-.987.411,7.959,7.959,0,0,1-2.454,3.555Z" transform="translate(-137.162 -365.771)" opacity="0.1"/>
    <path id="Path_286" data-name="Path 286" d="M166.2,521.55l2.759.753.072-.414a2.457,2.457,0,0,0-2.631-1.016Z" transform="translate(-120.888 -355.661)" opacity="0.1"/>
    <path id="Path_287" data-name="Path 287" d="M302.71,517.549,306,519.322l.092-.717A24.916,24.916,0,0,0,302.769,517Z" transform="translate(-212.5 -353.111)" opacity="0.1"/>
    <path id="Path_288" data-name="Path 288" d="M168.65,652.59c5.591,1.108,13.583,2.575,14.869,2.237,1.069-.28,4.44-.115,7.371.1.033-1.473.046-2.447.046-2.447l-21.763-3.118A17.961,17.961,0,0,1,168.65,652.59Z" transform="translate(-122.532 -441.938)" opacity="0.1"/>
    <path id="Path_289" data-name="Path 289" d="M151.72,562.6s18.438,3.9,20.454,3.371,12.219.52,12.219.52c4.483,3.263,2.736-1.362,2.736-1.362a11.131,11.131,0,0,0,0-4.305,26.313,26.313,0,0,1-.6-4.328s.22-3.032-.309-3.759-.987-5.815-.987-5.815-.372-3.457-.293-4.213-.039-2.891-.039-2.891l-.523-3.565c3.812-.359,15.616-7,15.616-7,.658-2.355,5.16-7.755,5.16-7.755a5.844,5.844,0,0,1,.408-1.352c.329-.8-4.154-2.588-4.154-2.588s-3.555,4.016-4.292,5.1a22.324,22.324,0,0,1-3.259,3.065,2.471,2.471,0,0,0-1.118.1h-.059a9.037,9.037,0,0,0-2.3,1.214,4.407,4.407,0,0,0-3.131,1.043s-2.062-.382-2.427-.043-2.125-.082-2.125-.082-1.645-3.809-2.832-2.766-6.141.8-6.141.8a7.274,7.274,0,0,0-3.187-1.95,4.358,4.358,0,0,0-2.631-.145,3.418,3.418,0,0,0-1.062.464l-3.1,2.815s-.819-1.145-.707-1.395-.987-.493-.987-.493-1.45-.513-2-.684-1.085.408-1.131.461a5.847,5.847,0,0,0,.329-2.213,2.542,2.542,0,0,1,.674-1.8c-1.6-4.417-5.736-.927-5.736-.927s-.549,2.358-.178,3.289-.513,2.815-.434,3.325-.253,1.358-.289,2.319a14.267,14.267,0,0,0,.658,3.618c.26.816,2.631,2.736,2.631,2.736a11.5,11.5,0,0,0,1.039,4.6c1,1.717.122,7.4.122,7.4s-1.184,4.41-2.5,5.779S151.72,562.6,151.72,562.6Z" transform="translate(-111.17 -353.487)" fill="#656691"/>
    <path id="Path_290" data-name="Path 290" d="M237.7,550.326s.622-1.644,1.131-1.779a11.654,11.654,0,0,0,1.493-.6l-.3-.635s-1.921.451-2.243.987A4.437,4.437,0,0,0,237.7,550.326Z" transform="translate(-168.813 -373.452)" opacity="0.1"/>
    <path id="Path_291" data-name="Path 291" d="M269.22,543.933c.082.51,4.565,1.138,4.565,1.138L271.6,542.7h-.056A9.039,9.039,0,0,0,269.22,543.933Z" transform="translate(-190.025 -370.358)" opacity="0.1"/>
    <ellipse id="Ellipse_57" data-name="Ellipse 57" cx="0.405" cy="0.405" rx="0.405" ry="0.405" transform="translate(92.082 166.727)" fill="#575988"/>
    <ellipse id="Ellipse_58" data-name="Ellipse 58" cx="0.405" cy="0.405" rx="0.405" ry="0.405" transform="translate(91.532 167.517)" fill="#575988"/>
    <ellipse id="Ellipse_59" data-name="Ellipse 59" cx="0.405" cy="0.405" rx="0.405" ry="0.405" transform="translate(90.996 168.244)" fill="#575988"/>
    <ellipse id="Ellipse_60" data-name="Ellipse 60" cx="0.405" cy="0.405" rx="0.405" ry="0.405" transform="translate(90.437 169.033)" fill="#575988"/>
    <ellipse id="Ellipse_61" data-name="Ellipse 61" cx="0.329" cy="0.329" rx="0.329" ry="0.329" transform="translate(42.839 167.231)" fill="#575988"/>
    <ellipse id="Ellipse_62" data-name="Ellipse 62" cx="0.329" cy="0.329" rx="0.329" ry="0.329" transform="translate(42.76 167.974)" fill="#575988"/>
    <ellipse id="Ellipse_63" data-name="Ellipse 63" cx="0.329" cy="0.329" rx="0.329" ry="0.329" transform="translate(42.684 168.717)" fill="#575988"/>
    <path id="Path_292" data-name="Path 292" d="M194.5,598.15c.049-.056-11.906,13.9-20.438,5.243C174.06,603.392,187.972,605.826,194.5,598.15Z" transform="translate(-126.163 -407.571)" opacity="0.1"/>
    <path id="Path_293" data-name="Path 293" d="M239.53,621.679s-6.831-.076-7.621,1.858l-.079,2.042a1.315,1.315,0,0,0,1.27.049c.7-.345,4.907-2.283,6.325-1.217Z" transform="translate(-164.932 -423.361)" opacity="0.1"/>
    <path id="Path_294" data-name="Path 294" d="M239.831,621.659s-6.529-.072-7.285,1.773l-.076,1.947a1.25,1.25,0,0,0,1.214.046c.658-.329,4.693-2.174,6.048-1.161Z" transform="translate(-165.362 -423.348)" fill="#656691"/>
    <path id="Path_295" data-name="Path 295" d="M231.121,576.2a22.168,22.168,0,0,1-2.819,4.437,17.785,17.785,0,0,1-4.3,3.841S230.969,577.121,231.121,576.2Z" transform="translate(-159.677 -392.84)" opacity="0.1"/>
    <path id="Path_296" data-name="Path 296" d="M244.535,552.36s-1.316,4.871-4.325,6.427Z" transform="translate(-170.556 -376.841)" opacity="0.1"/>
    <path id="Path_297" data-name="Path 297" d="M250.416,554.067c.033-.089.862,3.927-4.016,5.943C246.4,560.01,248.462,559.4,250.416,554.067Z" transform="translate(-174.71 -377.986)" opacity="0.1"/>
    <path id="Path_298" data-name="Path 298" d="M162.065,540.554a34.246,34.246,0,0,0-3.115,2.158C158.966,542.712,160.627,540.4,162.065,540.554Z" transform="translate(-116.022 -368.913)" opacity="0.1"/>
    <path id="Path_299" data-name="Path 299" d="M196.761,504.064a1.293,1.293,0,0,1-.5.8,1.24,1.24,0,0,1-.572.1,12.1,12.1,0,0,1-5.42-.72,2.046,2.046,0,0,1-.806-.579,3.317,3.317,0,0,1-.431-1.352,19.57,19.57,0,0,0-1.013-2.6,8.551,8.551,0,0,1-.418-4.6,3.082,3.082,0,0,1,.51-1.316c.513-.674,1.411-.921,2.075-1.45s1.112-1.358,1.881-1.746a3.472,3.472,0,0,1,2.276-.112,11.946,11.946,0,0,1,4.177,1.753,2.1,2.1,0,0,0,1.4.536,1.947,1.947,0,0,0,1.072-.756,5.591,5.591,0,0,1,.349,2.631,1.134,1.134,0,0,0,0,.395,1.2,1.2,0,0,0,.263.431,1.532,1.532,0,0,1,.217,1.9c-.2.224-.51.329-.707.569-.355.408-.266,1.02-.28,1.562a.822.822,0,0,1-.151.53.786.786,0,0,1-.75.148,2.045,2.045,0,0,0-.789-.105,1.315,1.315,0,0,0-.707.5A9.323,9.323,0,0,0,196.761,504.064Z" transform="translate(-135.152 -335.225)" fill="#2d293d"/>
    <g id="Group_14" data-name="Group 14" transform="translate(54.071 156.696)" opacity="0.1">
      <path id="Path_300" data-name="Path 300" d="M192.886,514.075a2.019,2.019,0,0,0,.806.582,12.147,12.147,0,0,0,5.42.72,1.2,1.2,0,0,0,.572-.105,1.276,1.276,0,0,0,.5-.793,9.352,9.352,0,0,1,1.671-3.5,1.316,1.316,0,0,1,.707-.5,2.111,2.111,0,0,1,.789.105.776.776,0,0,0,.75-.148.809.809,0,0,0,.151-.526,2.329,2.329,0,0,1,.28-1.566c.2-.227.5-.329.707-.566a1.191,1.191,0,0,0,.161-1.2,1.378,1.378,0,0,1,.023,1.615c-.2.224-.507.329-.707.569-.355.408-.263,1.02-.276,1.562a.806.806,0,0,1-.155.53.783.783,0,0,1-.75.148,2.029,2.029,0,0,0-.786-.105,1.316,1.316,0,0,0-.71.5,9.439,9.439,0,0,0-1.671,3.5.95.95,0,0,1-1.072.9,12.168,12.168,0,0,1-5.424-.724,2.059,2.059,0,0,1-.806-.579,1.579,1.579,0,0,1-.24-.5A.6.6,0,0,0,192.886,514.075Z" transform="translate(-192.83 -502.807)"/>
      <path id="Path_301" data-name="Path 301" d="M228.868,498.08a.812.812,0,0,1-.171-.329,1.135,1.135,0,0,1,0-.395,5.608,5.608,0,0,0-.2-2.19l.033-.036a5.548,5.548,0,0,1,.352,2.631A1.785,1.785,0,0,0,228.868,498.08Z" transform="translate(-216.768 -495.13)"/>
    </g>
    <path id="Path_302" data-name="Path 302" d="M201.87,542.351s-7.565.707-8.19-.451" transform="translate(-139.33 -369.821)" opacity="0.1"/>
    <path id="Path_303" data-name="Path 303" d="M163.987,532.091s-4.18-.155-5.157,1.375" transform="translate(-115.942 -363.236)" opacity="0.1"/>
  </g>
</svg>
