<svg xmlns="http://www.w3.org/2000/svg" xmlns:xlink="http://www.w3.org/1999/xlink" width="439.179" height="283.697" viewBox="0 0 439.179 283.697">
  <defs>
    <linearGradient id="linear-gradient" x1="0.5" y1="1" x2="0.5" gradientUnits="objectBoundingBox">
      <stop offset="0" stop-color="gray" stop-opacity="0.251"/>
      <stop offset="0.54" stop-color="gray" stop-opacity="0.122"/>
      <stop offset="1" stop-color="gray" stop-opacity="0.102"/>
    </linearGradient>
    <linearGradient id="linear-gradient-2" x1="-17.87" y1="168.19" x2="-17.87" y2="167.19" xlink:href="#linear-gradient"/>
    <linearGradient id="linear-gradient-3" y2="-0.001" xlink:href="#linear-gradient"/>
    <linearGradient id="linear-gradient-4" x1="-1.948" y1="1.001" x2="-1.948" y2="0" xlink:href="#linear-gradient"/>
    <linearGradient id="linear-gradient-5" x1="2.68" y1="0.777" x2="2.68" y2="-0.153" xlink:href="#linear-gradient"/>
  </defs>
  <g id="undraw_Data_points_ubvs" transform="translate(-0.102 -0.095)">
    <g id="Group_2" data-name="Group 2" transform="translate(371.807 179.96)" opacity="0.2">
      <path id="Path_1" data-name="Path 1" d="M1011.462,787.94a6.871,6.871,0,0,1-.651,1q-3.251-2.292-6.611-4.489c.045-.094.094-.192.147-.29a6.3,6.3,0,0,1,2.258-2.45,3.774,3.774,0,0,1,3.763-.324,3.828,3.828,0,0,1,1.859,3.3,6.341,6.341,0,0,1-.764,3.247Z" transform="translate(-1004.2 -694.505)" fill="#3f3d56"/>
      <ellipse id="Ellipse_1" data-name="Ellipse 1" cx="5.272" cy="4.026" rx="5.272" ry="4.026" transform="translate(0.704 88.655) rotate(-62.09)" fill="#3f3d56"/>
      <ellipse id="Ellipse_2" data-name="Ellipse 2" cx="5.272" cy="4.026" rx="5.272" ry="4.026" transform="translate(3.722 82.961) rotate(-62.09)" fill="#3f3d56"/>
      <ellipse id="Ellipse_3" data-name="Ellipse 3" cx="5.272" cy="4.026" rx="5.272" ry="4.026" transform="translate(6.737 77.263) rotate(-62.09)" fill="#3f3d56"/>
      <ellipse id="Ellipse_4" data-name="Ellipse 4" cx="5.272" cy="4.026" rx="5.272" ry="4.026" transform="translate(9.757 71.567) rotate(-62.09)" fill="#3f3d56"/>
      <path id="Path_2" data-name="Path 2" d="M1028.054,573.816a19.534,19.534,0,0,1-.293-2.634l10.159,3.417-10.159-5.268a19.341,19.341,0,0,1,6.859-13.715l9.843,14.227-7.642-15.83a19.3,19.3,0,1,1,18.061,34,19.271,19.271,0,0,1,.3,4.139l-15.484-.124,15.247,2.51a19.31,19.31,0,0,1-11.228,14.558,19.3,19.3,0,1,1-26.8-14.2,19.3,19.3,0,0,1,11.164-21.071Z" transform="translate(-1004.97 -551.083)" fill="#6c63ff"/>
      <path id="Path_3" data-name="Path 3" d="M1052.878,671.16a19.239,19.239,0,0,1-9.23,8.609,19.3,19.3,0,1,1-26.8-14.2C1016.1,661.464,1053.894,669.245,1052.878,671.16Z" transform="translate(-1004.926 -621.756)" opacity="0.1"/>
    </g>
    <g id="Group_3" data-name="Group 3" transform="translate(349.412 2.339)" opacity="0.2">
      <path id="Path_4" data-name="Path 4" d="M970.874,479.3a11.661,11.661,0,0,1-.847,1.742q-5.689-3.029-11.518-5.892c.053-.162.113-.327.177-.493a10.279,10.279,0,0,1,3.123-4.387,5.675,5.675,0,0,1,9.659,3.665A10.239,10.239,0,0,1,970.874,479.3Z" transform="translate(-953.307 -322.056)" fill="#3f3d56"/>
      <ellipse id="Ellipse_5" data-name="Ellipse 5" cx="8.538" cy="6.521" rx="8.538" ry="6.521" transform="matrix(0.356, -0.935, 0.935, 0.356, 6.063, 150.842)" fill="#3f3d56"/>
      <ellipse id="Ellipse_6" data-name="Ellipse 6" cx="8.538" cy="6.521" rx="8.538" ry="6.521" transform="matrix(0.356, -0.935, 0.935, 0.356, 9.774, 141.09)" fill="#3f3d56"/>
      <ellipse id="Ellipse_7" data-name="Ellipse 7" cx="8.538" cy="6.521" rx="8.538" ry="6.521" transform="matrix(0.356, -0.935, 0.935, 0.356, 13.487, 131.336)" fill="#3f3d56"/>
      <ellipse id="Ellipse_8" data-name="Ellipse 8" cx="8.538" cy="6.521" rx="8.538" ry="6.521" transform="matrix(0.356, -0.935, 0.935, 0.356, 17.198, 121.585)" fill="#3f3d56"/>
      <path id="Path_5" data-name="Path 5" d="M973.589,119.532a31.324,31.324,0,0,1-1-4.2l17.015,3.465-17.369-6.464A31.272,31.272,0,0,1,980.483,89l18.648,20.872L983.7,85.965a31.231,31.231,0,1,1,35.78,51.023,31.424,31.424,0,0,1,1.3,6.592l-24.9,2.886,25,1a31.257,31.257,0,0,1-15.141,25.624,31.231,31.231,0,1,1-45.905-17.467,31.231,31.231,0,0,1,13.742-36.1Z" transform="translate(-944.689 -79.03)" fill="#6c63ff"/>
      <path id="Path_6" data-name="Path 6" d="M1018.849,279.191a31.091,31.091,0,0,1-13.117,15.66,31.231,31.231,0,1,1-45.905-17.467C957.821,270.94,1020.1,275.914,1018.849,279.191Z" transform="translate(-944.683 -200.795)" opacity="0.1"/>
    </g>
    <g id="Group_4" data-name="Group 4" transform="translate(0.102 0.095)" opacity="0.2">
      <path id="Path_7" data-name="Path 7" d="M194,563.419a14.168,14.168,0,0,0,.753,2.182q7.149-2.743,14.46-5.268c-.041-.2-.083-.4-.135-.609a12.214,12.214,0,0,0-3.037-5.644,6.741,6.741,0,0,0-11.924,2.9A12.221,12.221,0,0,0,194,563.419Z" transform="translate(-126.917 -371.491)" fill="#3f3d56"/>
      <ellipse id="Ellipse_9" data-name="Ellipse 9" cx="7.755" cy="10.152" rx="7.755" ry="10.152" transform="translate(61.749 170.002) rotate(-13.72)" fill="#3f3d56"/>
      <ellipse id="Ellipse_10" data-name="Ellipse 10" cx="7.755" cy="10.152" rx="7.755" ry="10.152" transform="translate(58.804 157.946) rotate(-13.72)" fill="#3f3d56"/>
      <ellipse id="Ellipse_11" data-name="Ellipse 11" cx="7.755" cy="10.152" rx="7.755" ry="10.152" transform="translate(55.868 145.892) rotate(-13.72)" fill="#3f3d56"/>
      <ellipse id="Ellipse_12" data-name="Ellipse 12" cx="7.755" cy="10.152" rx="7.755" ry="10.152" transform="translate(52.924 133.84) rotate(-13.72)" fill="#3f3d56"/>
      <path id="Path_8" data-name="Path 8" d="M87.261,125.568a36.571,36.571,0,0,0,1.8-4.813l-20.586,1.577,21.448-5.068a37.18,37.18,0,0,0-6.288-28.759l-25.09,21.914L80.282,84.483a37.146,37.146,0,1,0-49.743,54.936A37.251,37.251,0,0,0,28.028,147l28.954,7.081L27.34,151.569a37.168,37.168,0,0,0,14.084,32.472A37.146,37.146,0,1,0,98.151,170.2a37.15,37.15,0,0,0-10.912-44.622Z" transform="translate(-16.342 -73.065)" fill="#6c63ff"/>
      <path id="Path_9" data-name="Path 9" d="M47.984,310.8a36.988,36.988,0,0,0,13.17,20.432,37.146,37.146,0,1,0,56.727-13.843C121.222,310.058,47,306.747,47.984,310.8Z" transform="translate(-36.072 -220.255)" opacity="0.1"/>
    </g>
    <path id="Path_10" data-name="Path 10" d="M462.929,186.69H98.417a3.251,3.251,0,0,0-3.247,3.255V413.034a6.558,6.558,0,0,0,6.547,6.57H459.629a6.558,6.558,0,0,0,6.547-6.57V189.945A3.251,3.251,0,0,0,462.929,186.69Z" transform="translate(-65.407 -143.841)" fill="url(#linear-gradient)"/>
    <path id="Path_11" data-name="Path 11" d="M467.246,223.5V434.68a6.494,6.494,0,0,1-6.491,6.494H105.744a6.494,6.494,0,0,1-6.494-6.494V223.5Z" transform="translate(-67.952 -166.8)" fill="#fff"/>
    <path id="Path_12" data-name="Path 12" d="M147.759,216.69V436.927H105.744a6.494,6.494,0,0,1-6.494-6.494V216.709Z" transform="translate(-67.952 -162.553)" fill="#d7d9e1"/>
    <path id="Path_13" data-name="Path 13" d="M467.246,193.221v9.384h-368v-9.384A3.221,3.221,0,0,1,102.471,190H464.025a3.221,3.221,0,0,1,3.221,3.221Z" transform="translate(-67.952 -145.906)" fill="#ededf4"/>
    <circle id="Ellipse_13" data-name="Ellipse 13" cx="1.505" cy="1.505" r="1.505" transform="translate(35.625 48.794)" fill="#fa5959" opacity="0.8"/>
    <circle id="Ellipse_14" data-name="Ellipse 14" cx="1.505" cy="1.505" r="1.505" transform="translate(39.764 48.794)" fill="#fed253" opacity="0.8"/>
    <circle id="Ellipse_15" data-name="Ellipse 15" cx="1.505" cy="1.505" r="1.505" transform="translate(43.903 48.794)" fill="#8ccf4d" opacity="0.8"/>
    <rect id="Rectangle_3" data-name="Rectangle 3" width="35.37" height="3.763" transform="translate(140.011 75.205)" fill="#ededf4"/>
    <rect id="Rectangle_4" data-name="Rectangle 4" width="198.673" height="3.763" transform="translate(140.011 86.117)" fill="#ededf4"/>
    <rect id="Rectangle_5" data-name="Rectangle 5" width="198.673" height="3.763" transform="translate(140.011 97.029)" fill="#ededf4"/>
    <rect id="Rectangle_6" data-name="Rectangle 6" width="198.673" height="3.763" transform="translate(140.011 107.941)" fill="#ededf4"/>
    <rect id="Rectangle_7" data-name="Rectangle 7" width="198.673" height="3.763" transform="translate(140.011 118.852)" fill="#ededf4"/>
    <rect id="Rectangle_8" data-name="Rectangle 8" width="35.37" height="3.763" transform="translate(36.16 75.205)" fill="#ededf4"/>
    <rect id="Rectangle_9" data-name="Rectangle 9" width="35.37" height="3.763" transform="translate(36.16 86.117)" fill="#ededf4"/>
    <rect id="Rectangle_10" data-name="Rectangle 10" width="35.37" height="3.763" transform="translate(36.16 97.029)" fill="#ededf4"/>
    <rect id="Rectangle_11" data-name="Rectangle 11" width="35.37" height="3.763" transform="translate(36.16 107.941)" fill="#ededf4"/>
    <rect id="Rectangle_12" data-name="Rectangle 12" width="35.37" height="3.763" transform="translate(36.16 118.852)" fill="#ededf4"/>
    <rect id="Rectangle_13" data-name="Rectangle 13" width="1.505" height="2.258" transform="translate(236.71 37.205) rotate(90)" fill="url(#linear-gradient-2)"/>
    <path id="Path_14" data-name="Path 14" d="M919.99,700.129a.707.707,0,0,0-.376-.557.722.722,0,0,0-.959.4l-3.466,7.288-.779,28.691h1.249l.467-28.627,3.808-6.747a.722.722,0,0,0,.056-.452Z" transform="translate(-576.389 -463.703)" fill="#3f3d56"/>
    <path id="Path_15" data-name="Path 15" d="M977.372,696.622a.547.547,0,0,1-.06.072,1.006,1.006,0,0,1-.429.214h0a4.19,4.19,0,0,1-.967.162h-.1a4.016,4.016,0,0,1-.561,0,2.972,2.972,0,0,0-.41-.026h0a2.872,2.872,0,0,0-.583.143,5,5,0,0,1-1.294.184H971.1c-.843,0-1.678.158-2.521.169H968.3a3.981,3.981,0,0,1-2.325-.7.88.88,0,0,1-.3-.35,1.009,1.009,0,0,1-.056-.463,1.091,1.091,0,0,1,.282-.775,1.211,1.211,0,0,1,.448-.218l.858-.271.918-.275.06-.019.173-.049.109-.038a1.778,1.778,0,0,0,.376-.177,1.264,1.264,0,0,0,.376-.376c0-.03.038-.06.053-.09v-.072c-.026-.2-.049-.376-.083-.587a2.313,2.313,0,0,1-1.151-.651,3.716,3.716,0,0,1-.673-.907,19.123,19.123,0,0,1-.877-2.322,20.916,20.916,0,0,0-1.742-3.345c-.6-1-1.2-1.994-1.881-2.935-.452-.621-.937-1.219-1.385-1.844a16.3,16.3,0,0,1-2.66-5.817,8.074,8.074,0,0,0-.324-1.182,12.4,12.4,0,0,0-1.129-1.787,5.866,5.866,0,0,1-.824-2.115c-.079-.429-.211-.888-.636-.933h0l-.045.09a20.223,20.223,0,0,1-3.119,4.861,5.2,5.2,0,0,0-.583.67,6.822,6.822,0,0,0-.376.719,4.739,4.739,0,0,1-.828,1.212,2.8,2.8,0,0,1-.327.278,1.83,1.83,0,0,1-.516.256h0a1.473,1.473,0,0,1-.222.053.25.25,0,0,1,0,.053c0,.023,0,.041,0,.06a7.361,7.361,0,0,1-.286,3.733.377.377,0,0,1-.038.109c-.064.177-.135.346-.211.516-.192.414-.418.809-.595,1.23-.03.072-.06.143-.086.214-.628,1.671-.474,3.533-.549,5.328a5.772,5.772,0,0,1-.139,1.167c-.105.433-.275.88-.376,1.324a2.257,2.257,0,0,0,0,1.023h-.038c-.169.064-.339.12-.508.173v.023c.064.35.12.7.181,1.046a1.543,1.543,0,0,0,.324.835,1.584,1.584,0,0,1,.151.166c.124.192,0,.448.038.677.034.324.335.6.286.922a.6.6,0,0,1-.376.433,1.063,1.063,0,0,1-.241.079h-.049l-.282.034a13.054,13.054,0,0,1-3.488.034c-.229-.038-.455-.09-.685-.109a4.842,4.842,0,0,0-.873.038,43.058,43.058,0,0,1-6.423.124,1.816,1.816,0,0,1-1.505-.6,1.757,1.757,0,0,1-.03-1.355,1.407,1.407,0,0,1,.188-.474.359.359,0,0,1,.034-.045,1.619,1.619,0,0,1,1.291-.376l1.505.045a1.348,1.348,0,0,0,.444-.038,4.645,4.645,0,0,0,.666-.376c.29-.139.655-.151.862-.376l.026-.034a1.2,1.2,0,0,0,.105-.162l.023-.03h0a.131.131,0,0,0,0-.03c.192-.252.531-.335.8-.5a.541.541,0,0,0,.117-.083l.03-.026a3.239,3.239,0,0,1-.753-.753.805.805,0,0,1-.173-.3.455.455,0,0,1,.019-.256.378.378,0,0,1,.026-.057c.105-.211.324-.4.444-.613v-.019a.967.967,0,0,0-.049-1.05c.124-2.051.689-4.056.816-6.111.049-.816.026-1.637.064-2.453s.128-1.614.218-2.416a37.1,37.1,0,0,0,.636-5.479,3.4,3.4,0,0,1,0-.515v-.034a3.087,3.087,0,0,1,.35-1.08,8.344,8.344,0,0,1,.753-1.08c.959-1.245,2.111-2.491,2.453-4.03a8.7,8.7,0,0,1,.956-2.231,3.92,3.92,0,0,1,.832-1.17,3.536,3.536,0,0,0,.553-.474,4.354,4.354,0,0,0,.414-1.181,5.472,5.472,0,0,0,.26-.6.386.386,0,0,1,0-.064,4.086,4.086,0,0,0,.053-.643v-.181h0a6.537,6.537,0,0,1,.534-1.784l.094-.214a6.647,6.647,0,0,1-1.881-1.625,3.715,3.715,0,0,1-.452-.685A8.283,8.283,0,0,1,945.8,653c-.376-1.667-1.193-3.236-1.306-4.937a5.578,5.578,0,0,0-.181-1.546,3.3,3.3,0,0,0-.177-.376c-.03-.053-.056-.105-.083-.158a.3.3,0,0,1-.03-.06l-.083-.154-.128.1a93.487,93.487,0,0,1-10.013,6.844l-.3.177a1.1,1.1,0,0,0-.376.324l-.034.06h0c-.072.147-.09.316-.151.47a1.272,1.272,0,0,1-.869.692,2.683,2.683,0,0,1-1.972-.256c-.075-.038-.151-.079-.222-.124a2.5,2.5,0,0,1-.248.12,2.435,2.435,0,0,1-.327.124,6.852,6.852,0,0,1-1.923.173,5.847,5.847,0,0,0-1.915.211,4.82,4.82,0,0,1-1.23.376h-.147a2.213,2.213,0,0,1-.7-.207l-.128-.056c-.064-.034-.128-.064-.192-.105a1.015,1.015,0,0,1-.188-.147.689.689,0,0,1-.177-.3.5.5,0,0,1,0-.248.146.146,0,0,1,.053-.094.155.155,0,0,1,.09-.023,2.826,2.826,0,0,1,.534.045,1.755,1.755,0,0,0,.312,0h.057a.666.666,0,0,0,.474-.263.247.247,0,0,0,.041-.075h0a.327.327,0,0,0,.03-.139.108.108,0,0,0,0-.034c-.064-.03-.132-.06-.192-.094l-.094-.056h-.019a.917.917,0,0,1-.162-.132.5.5,0,0,1-.079-.1.59.59,0,0,1-.094-.188h0a.9.9,0,0,0-.376,0c-.169.045-.342.147-.512.181a.426.426,0,0,1-.256,0c-.245-.087-.327-.376-.376-.636a.278.278,0,0,0-.03-.151h0a.854.854,0,0,1,0-.294,1.069,1.069,0,0,1,.41-.534l.512-.429.038-.03q-.014-.063-.023-.128a.752.752,0,0,1,0-.29,1.076,1.076,0,0,1,.41-.534l1.129-.952a1.325,1.325,0,0,1,.719-.376c.41-.026.753.312,1.046.583a2.314,2.314,0,0,0,1.37.659,1.984,1.984,0,0,0,.726-.1l.132-.045c-.026-.056-.056-.113-.083-.173s-.09-.192-.132-.286a3.119,3.119,0,0,0,1.768-.847c.5-.436.937-.952,1.445-1.381s1.178-.817,1.735-1.264c1.294-1.05,2.156-2.593,3.541-3.518a4.617,4.617,0,0,0,1.362-1.061c.1-.147.177-.316.282-.463a4.9,4.9,0,0,1,1.37-1,6.772,6.772,0,0,0,1.26-1.257c.271-.327.546-.655.8-.99.241-.444.44-.907.692-1.347a6.7,6.7,0,0,1,.753-1.042c.064-.124.128-.248.2-.376s.12-.207.184-.3.094-.139.143-.207c-.143-.252-.278-.47-.342-.561l-.03-.045a4.874,4.874,0,0,0-.44-.41q-.248-.041-.485-.1a4.549,4.549,0,0,1-3.345-4.395h0a4.516,4.516,0,0,1,.5-2.054c.064-.128.135-.248.211-.376a2,2,0,0,1-.207-.087.8.8,0,0,1-.29-.237.693.693,0,0,1-.12-.3,1.532,1.532,0,0,1,.113-.753,3.4,3.4,0,0,1,.143-.339v-.019a4.342,4.342,0,0,1,3.669-2.325A6.6,6.6,0,0,1,947.7,624a5.953,5.953,0,0,1,1.08,1,6.4,6.4,0,0,1,1.042,3.251,4.944,4.944,0,0,1,0,1.08,2.565,2.565,0,0,1-.075.376c-.023.075-.049.147-.075.218a1.545,1.545,0,0,1-.072.158h0a1.1,1.1,0,0,1-.079.147v.019l-.023.034.041.09a.824.824,0,0,0,.041.083h0c.316.026.6.068.918.094a1.947,1.947,0,0,1,.444.068,3.033,3.033,0,0,1,.809.5c.651.459,1.449.674,2.085,1.148a8.144,8.144,0,0,1,1.972,2.886c.753,1.385,1.968,2.562,2.506,4.045l.734,2.013a30.89,30.89,0,0,0,1.607,3.876c.9,1.727,2.13,3.281,2.856,5.087a.8.8,0,0,0,.376.421A33.012,33.012,0,0,1,966.517,655a8.5,8.5,0,0,1,.9,2.547,6.055,6.055,0,0,1-.2,2.378,10.944,10.944,0,0,1-.455,1.351,2.262,2.262,0,0,0-.154.482.262.262,0,0,0,0,.053,4.552,4.552,0,0,0,.113.9,1.647,1.647,0,0,1-.079.715.307.307,0,0,1-.041.105,4.171,4.171,0,0,0-.245.568v.072a2.831,2.831,0,0,0,.158,1.02,13.519,13.519,0,0,1,.154,3.74c-.038.621.467,1.129.888,1.584a16.786,16.786,0,0,1,1.975,2.875A9.125,9.125,0,0,1,970.34,675a14.272,14.272,0,0,1,.433,1.987c.4,2.058,1.7,3.876,2.051,5.941a5.327,5.327,0,0,0,1.2,2.555,5.237,5.237,0,0,1,.519.628,2.535,2.535,0,0,1,.26.561,4.14,4.14,0,0,1,.211,1.422,2.257,2.257,0,0,0,.041.692c.147.478.67.753.888,1.193s.064,1.027.147,1.539a1.685,1.685,0,0,0,.617,1.038c-.124.109-.256.211-.376.309a1.535,1.535,0,0,1,.323.339,1.314,1.314,0,0,1,.147.278c.207.478.214,1.046.376,1.55a1.106,1.106,0,0,1,.109.651.726.726,0,0,0-.053.192c0,.143.147.233.2.376A.376.376,0,0,1,977.372,696.622Z" transform="translate(-581.182 -415.505)" fill="url(#linear-gradient-3)"/>
    <path id="Path_16" data-name="Path 16" d="M978.309,647.135a9.85,9.85,0,0,0,2.634-1.328l2.9-1.847a2.529,2.529,0,0,1-1.881-1.3,6.66,6.66,0,0,1-.707-2.258,11.8,11.8,0,0,0-3.334,2.182c-.4.346-1.249.865-1.373,1.4s.662.975.967,1.336C977.632,645.453,978.618,647.052,978.309,647.135Z" transform="translate(-615.138 -426.832)" fill="#fbbebe"/>
    <path id="Path_17" data-name="Path 17" d="M978.309,647.135a9.85,9.85,0,0,0,2.634-1.328l2.9-1.847a2.529,2.529,0,0,1-1.881-1.3,6.66,6.66,0,0,1-.707-2.258,11.8,11.8,0,0,0-3.334,2.182c-.4.346-1.249.865-1.373,1.4s.662.975.967,1.336C977.632,645.453,978.618,647.052,978.309,647.135Z" transform="translate(-615.138 -426.832)" opacity="0.1"/>
    <path id="Path_18" data-name="Path 18" d="M928.636,697.638a3.206,3.206,0,0,1-1.629.493,2.379,2.379,0,0,1-1.37-.655c-.3-.271-.632-.61-1.042-.58a1.343,1.343,0,0,0-.719.376l-1.129.948a.786.786,0,0,0-.376.967c.053.252.135.549.376.636s.508-.1.753-.169a.9.9,0,0,1,.884.26.53.53,0,0,1,.151.339c0,.282-.316.467-.6.482s-.564-.079-.847-.06a.154.154,0,0,0-.09.023.151.151,0,0,0-.053.09.59.59,0,0,0,.181.546,1.576,1.576,0,0,0,.508.3,2.067,2.067,0,0,0,.7.207,4.025,4.025,0,0,0,1.373-.376,6.02,6.02,0,0,1,1.911-.211,6.679,6.679,0,0,0,1.919-.169,2.171,2.171,0,0,0,1.452-1.178.233.233,0,0,0-.105-.335c-.869-.643-1.223-1.426-2.2-1.881Z" transform="translate(-581.324 -462.069)" fill="#fbbebe"/>
    <path id="Path_19" data-name="Path 19" d="M928.636,697.638a3.206,3.206,0,0,1-1.629.493,2.379,2.379,0,0,1-1.37-.655c-.3-.271-.632-.61-1.042-.58a1.343,1.343,0,0,0-.719.376l-1.129.948a.786.786,0,0,0-.376.967c.053.252.135.549.376.636s.508-.1.753-.169a.9.9,0,0,1,.884.26.53.53,0,0,1,.151.339c0,.282-.316.467-.6.482s-.564-.079-.847-.06a.154.154,0,0,0-.09.023.151.151,0,0,0-.053.09.59.59,0,0,0,.181.546,1.576,1.576,0,0,0,.508.3,2.067,2.067,0,0,0,.7.207,4.025,4.025,0,0,0,1.373-.376,6.02,6.02,0,0,1,1.911-.211,6.679,6.679,0,0,0,1.919-.169,2.171,2.171,0,0,0,1.452-1.178.233.233,0,0,0-.105-.335c-.869-.643-1.223-1.426-2.2-1.881Z" transform="translate(-581.324 -462.069)" opacity="0.1"/>
    <path id="Path_20" data-name="Path 20" d="M955.726,654.164a1.881,1.881,0,0,0-1.648-.2,3.548,3.548,0,0,0-1.422.948,6.486,6.486,0,0,0-1,1.325c-.267.463-.474.956-.734,1.422a14.826,14.826,0,0,1-1.693,2.3,6.6,6.6,0,0,1-1.26,1.249,5.006,5.006,0,0,0-1.366,1c-.105.147-.181.312-.286.463a4.531,4.531,0,0,1-1.358,1.05c-1.385.922-2.258,2.453-3.533,3.5-.557.448-1.185.8-1.735,1.26s-.941.937-1.441,1.37a3.085,3.085,0,0,1-1.768.839,9.031,9.031,0,0,0,1.731,2.724,3.108,3.108,0,0,0,2.935.959,1.276,1.276,0,0,0,.869-.689,2.846,2.846,0,0,1,.181-.531,1.13,1.13,0,0,1,.4-.32,93.007,93.007,0,0,0,11.868-8.225c1-.816,2-1.546,3.01-2.333a6.592,6.592,0,0,0,1.02-.892,3.387,3.387,0,0,0,.41-3.733,8.932,8.932,0,0,0-.944-1.283,11.316,11.316,0,0,0-2.228-2.2Z" transform="translate(-590.154 -435.227)" fill="#6c63ff"/>
    <path id="Path_21" data-name="Path 21" d="M955.726,654.164a1.881,1.881,0,0,0-1.648-.2,3.548,3.548,0,0,0-1.422.948,6.486,6.486,0,0,0-1,1.325c-.267.463-.474.956-.734,1.422a14.826,14.826,0,0,1-1.693,2.3,6.6,6.6,0,0,1-1.26,1.249,5.006,5.006,0,0,0-1.366,1c-.105.147-.181.312-.286.463a4.531,4.531,0,0,1-1.358,1.05c-1.385.922-2.258,2.453-3.533,3.5-.557.448-1.185.8-1.735,1.26s-.941.937-1.441,1.37a3.085,3.085,0,0,1-1.768.839,9.031,9.031,0,0,0,1.731,2.724,3.108,3.108,0,0,0,2.935.959,1.276,1.276,0,0,0,.869-.689,2.846,2.846,0,0,1,.181-.531,1.13,1.13,0,0,1,.4-.32,93.007,93.007,0,0,0,11.868-8.225c1-.816,2-1.546,3.01-2.333a6.592,6.592,0,0,0,1.02-.892,3.387,3.387,0,0,0,.41-3.733,8.932,8.932,0,0,0-.944-1.283,11.316,11.316,0,0,0-2.228-2.2Z" transform="translate(-590.154 -435.227)" opacity="0.1"/>
    <path id="Path_22" data-name="Path 22" d="M959.733,806.738a2.505,2.505,0,0,0-.8.5c-.064.079-.105.177-.173.252-.207.245-.576.256-.862.4a5.1,5.1,0,0,1-.666.376,1.483,1.483,0,0,1-.448.034l-1.505-.045c-.482,0-1.046,0-1.324.4a1.408,1.408,0,0,0-.188.474,1.739,1.739,0,0,0,.03,1.347,1.8,1.8,0,0,0,1.505.591,42.47,42.47,0,0,0,6.4-.124,5.172,5.172,0,0,1,.869-.034,6.831,6.831,0,0,1,.685.109,13.17,13.17,0,0,0,3.484-.034,1.774,1.774,0,0,0,.576-.124.6.6,0,0,0,.376-.429c.049-.324-.252-.594-.286-.918-.023-.229.087-.482-.038-.674a1.022,1.022,0,0,0-.151-.162,1.539,1.539,0,0,1-.32-.832l-.282-1.61a.478.478,0,0,0-.128-.3.447.447,0,0,0-.2-.079,10.287,10.287,0,0,0-3.59.128,9.987,9.987,0,0,1-1.836.09c-.263,0-.376-.049-.564.124A3.746,3.746,0,0,1,959.733,806.738Z" transform="translate(-600.862 -529.952)" fill="#3f3d56"/>
    <path id="Path_23" data-name="Path 23" d="M1040.718,810.45a2.477,2.477,0,0,1-.666.26q-.918.271-1.833.561a1.213,1.213,0,0,0-.448.218,1.077,1.077,0,0,0-.282.771,1,1,0,0,0,.057.459.9.9,0,0,0,.3.346,4.083,4.083,0,0,0,2.487.692c.877,0,1.746-.147,2.634-.169a12.486,12.486,0,0,0,3.164-.177,3.057,3.057,0,0,1,.6-.147,3.013,3.013,0,0,1,.41.026,4.286,4.286,0,0,0,1.622-.147,1,1,0,0,0,.433-.215.41.41,0,0,0,.117-.44c-.057-.124-.2-.218-.2-.376a.733.733,0,0,1,.053-.192,1.1,1.1,0,0,0-.109-.647,6.907,6.907,0,0,0-.531-1.817,2.311,2.311,0,0,0-1.648-.82,4.593,4.593,0,0,0-1.539.045c-.568.12-1.1.376-1.659.538a5.489,5.489,0,0,1-1.994.188c-.448-.038-.294.034-.444.406A1.313,1.313,0,0,1,1040.718,810.45Z" transform="translate(-653.153 -531.738)" fill="#3f3d56"/>
    <circle id="Ellipse_16" data-name="Ellipse 16" cx="4.523" cy="4.523" r="4.523" transform="translate(358.126 209.098)" fill="#fbbebe"/>
    <path id="Path_24" data-name="Path 24" d="M1005.1,705.839a8.007,8.007,0,0,1-5.147,1.753,4.206,4.206,0,0,1-2.258-.482c-.045-.256-.064-.531-.113-.786a2.882,2.882,0,0,1-1.821-1.55,18.9,18.9,0,0,1-.877-2.307,20.731,20.731,0,0,0-1.742-3.326c-.594-.99-1.193-1.979-1.881-2.912-.451-.621-.937-1.212-1.381-1.832a16.18,16.18,0,0,1-2.66-5.78,7.314,7.314,0,0,0-.324-1.174,11.642,11.642,0,0,0-1.129-1.776,5.836,5.836,0,0,1-.824-2.1c-.079-.425-.207-.884-.636-.929h0a20.468,20.468,0,0,1-3.161,4.922,4.839,4.839,0,0,0-.583.662,6.533,6.533,0,0,0-.376.719,4.514,4.514,0,0,1-.824,1.2,1.931,1.931,0,0,1-1.065.579,7.246,7.246,0,0,1-.512,4.444c-.188.414-.414.805-.591,1.223-.726,1.712-.561,3.65-.636,5.509a5.67,5.67,0,0,1-.135,1.159,4.83,4.83,0,0,0-.376,2.333,12.1,12.1,0,0,1-6.2.376,2.973,2.973,0,0,1-1.155-.35,3.222,3.222,0,0,1-.753-.753.8.8,0,0,1-.173-.3c-.079-.357.316-.617.5-.933a.96.96,0,0,0-.041-1.061c.124-2.043.689-4.037.813-6.077.053-.813.03-1.625.068-2.438s.124-1.6.214-2.4a36.049,36.049,0,0,0,.636-5.441,3.153,3.153,0,0,1,.376-1.622,7.922,7.922,0,0,1,.753-1.072c.956-1.238,2.107-2.476,2.45-4a8.649,8.649,0,0,1,.952-2.216,3.918,3.918,0,0,1,.835-1.163,3.686,3.686,0,0,0,.549-.474,4.436,4.436,0,0,0,.418-1.174,6.473,6.473,0,0,0,.252-.6,3.349,3.349,0,0,0,.071-.7,6.449,6.449,0,0,1,.647-2.175,6.649,6.649,0,0,1-1.881-1.614,3.907,3.907,0,0,1-.455-.681,8.557,8.557,0,0,1-.546-2.047c-.376-1.659-1.185-3.217-1.3-4.892a5.543,5.543,0,0,0-.181-1.539,5.163,5.163,0,0,0-.29-.6,2.409,2.409,0,0,1-.245-.606,10.322,10.322,0,0,1,0-1.407,10.251,10.251,0,0,0-.3-1.2,5.78,5.78,0,0,1-.045-1.592,13.212,13.212,0,0,0,.12-1.881,7.285,7.285,0,0,1,1.979-5.6l.038-.038c.3-.3.621-.587.892-.918.376-.44.628-.963,1.008-1.392.169-.192.376-.376.527-.557a4.534,4.534,0,0,1,.5-.568.783.783,0,0,1,.707-.188,1.853,1.853,0,0,0,.214.662c.324.026.613.071.933.1a1.952,1.952,0,0,1,.444.068,2.927,2.927,0,0,1,.809.5c.647.455,1.445.67,2.081,1.129a8.014,8.014,0,0,1,1.968,2.867c.753,1.377,1.968,2.547,2.506,4.019q.376,1,.73,2a30.812,30.812,0,0,0,1.607,3.853,56.671,56.671,0,0,1,2.848,5.053.808.808,0,0,0,.376.418,32.954,32.954,0,0,1,2.634,4.369,8.3,8.3,0,0,1,.892,2.532,7.367,7.367,0,0,1-.647,3.706,1.85,1.85,0,0,0-.162.531,4.226,4.226,0,0,0,.113.888,1.679,1.679,0,0,1-.12.817,3.7,3.7,0,0,0-.245.564,2.411,2.411,0,0,0,.147,1.084,13.36,13.36,0,0,1,.151,3.718c-.034.617.47,1.129.888,1.573a16.781,16.781,0,0,1,1.975,2.856,9.4,9.4,0,0,1,.805,1.6,14.043,14.043,0,0,1,.437,1.979c.376,2.043,1.693,3.849,2.043,5.9a5.268,5.268,0,0,0,1.2,2.536,5.478,5.478,0,0,1,.519.628,2.33,2.33,0,0,1,.256.557,4.115,4.115,0,0,1,.214,1.415,2.015,2.015,0,0,0,.041.689c.143.474.67.753.884,1.185s.068,1.02.151,1.528A1.626,1.626,0,0,0,1005.1,705.839Z" transform="translate(-609.666 -428.745)" fill="#6c63ff"/>
    <path id="Path_25" data-name="Path 25" d="M931.134,693.908a3.218,3.218,0,0,1-1.629.493,2.366,2.366,0,0,1-1.37-.655c-.309-.271-.636-.609-1.042-.579a1.331,1.331,0,0,0-.719.376l-1.129.948a1.042,1.042,0,0,0-.406.531,1.008,1.008,0,0,0,.026.436c.049.252.135.549.376.636s.508-.1.753-.169a.892.892,0,0,1,.884.26.512.512,0,0,1,.151.339c0,.282-.312.47-.6.482s-.561-.079-.843-.06a.158.158,0,0,0-.094.023.169.169,0,0,0-.053.09.6.6,0,0,0,.2.561,1.719,1.719,0,0,0,.512.309,2.155,2.155,0,0,0,.692.2,3.979,3.979,0,0,0,1.373-.376,5.963,5.963,0,0,1,1.915-.214,6.685,6.685,0,0,0,1.919-.169,2.168,2.168,0,0,0,1.449-1.178.256.256,0,0,0,.026-.181.3.3,0,0,0-.128-.154c-.873-.643-1.227-1.426-2.2-1.881Z" transform="translate(-582.886 -459.743)" fill="#fbbebe"/>
    <path id="Path_26" data-name="Path 26" d="M970.293,627.047a3.8,3.8,0,0,0-.753.327,1.3,1.3,0,0,1-1.065-.06.8.8,0,0,1-.29-.237,1.129,1.129,0,0,1,0-1.05A4.286,4.286,0,0,1,972,623.364a6.609,6.609,0,0,1,4.417,1.75,6.178,6.178,0,0,1,1,1.05,6.359,6.359,0,0,1,1.042,3.232,4.23,4.23,0,0,1-.1,1.445,1.761,1.761,0,0,1-.816,1.106,1.629,1.629,0,0,1-1.434-.064,5.814,5.814,0,0,1-1.223-.892,1.881,1.881,0,0,0-.61-.376.632.632,0,0,0-.662.158c-.207.252-.158.662-.346.933a1.031,1.031,0,0,1-.918.309,1.05,1.05,0,0,1-.873-.294,1.091,1.091,0,0,1-.086-.892,2.843,2.843,0,0,0,.154-.914c-.064-.617-.609-1.008-.779-1.58-.109-.376.135-.534.109-.873a.489.489,0,0,0-.595-.414Z" transform="translate(-609.849 -416.204)" fill="#3f3d56"/>
    <path id="Path_27" data-name="Path 27" d="M1001.7,729.883v.038h0a20.471,20.471,0,0,1-3.161,4.922,4.839,4.839,0,0,0-.583.662,6.523,6.523,0,0,0-.376.719,4.516,4.516,0,0,1-.824,1.2l-1.129.564,3.586-18.712Z" transform="translate(-627.048 -476.031)" opacity="0.1"/>
    <path id="Path_28" data-name="Path 28" d="M986.136,659.728a6.583,6.583,0,0,1-1.02.892c-1.031.786-2.024,1.505-3.01,2.333q-1.215.99-2.453,1.93a2.407,2.407,0,0,1-.245-.606,10.313,10.313,0,0,1,0-1.407,10.25,10.25,0,0,0-.3-1.2,5.78,5.78,0,0,1-.045-1.592,13.212,13.212,0,0,0,.12-1.881,7.285,7.285,0,0,1,1.979-5.6l.038-.038a2.927,2.927,0,0,1,.531-.237,1.881,1.881,0,0,1,1.648.2,11.236,11.236,0,0,1,2.258,2.2A8.69,8.69,0,0,1,986.58,656a3.386,3.386,0,0,1-.444,3.729Z" transform="translate(-616.692 -434.198)" opacity="0.1"/>
    <path id="Path_29" data-name="Path 29" d="M958.216,650.433a1.881,1.881,0,0,0-1.652-.2,3.559,3.559,0,0,0-1.419.948,6.5,6.5,0,0,0-1,1.325c-.263.463-.474.956-.73,1.422a14.612,14.612,0,0,1-1.7,2.3,6.478,6.478,0,0,1-1.257,1.249,4.966,4.966,0,0,0-1.37,1c-.105.147-.181.312-.282.463a4.6,4.6,0,0,1-1.362,1.05c-1.381.922-2.258,2.453-3.529,3.5-.557.448-1.185.8-1.735,1.26s-.941.937-1.445,1.37a3.067,3.067,0,0,1-1.765.839,9.034,9.034,0,0,0,1.727,2.724,3.126,3.126,0,0,0,2.939.96,1.272,1.272,0,0,0,.865-.689,3.16,3.16,0,0,1,.184-.53,1.128,1.128,0,0,1,.4-.32,93.255,93.255,0,0,0,11.868-8.225c1-.816,2-1.546,3.01-2.333a6.419,6.419,0,0,0,1.02-.892,3.387,3.387,0,0,0,.414-3.733,8.463,8.463,0,0,0-.948-1.279,11.217,11.217,0,0,0-2.227-2.2Z" transform="translate(-591.707 -432.899)" fill="#6c63ff"/>
    <g id="Group_5" data-name="Group 5" transform="translate(358.2 209.166)" opacity="0.1">
      <path id="Path_30" data-name="Path 30" d="M972.654,634.709a1.039,1.039,0,0,1-.873-.294,1.091,1.091,0,0,1-.087-.892,2.821,2.821,0,0,0,.154-.911c-.064-.621-.609-1.008-.779-1.584-.109-.376.135-.534.109-.873a.493.493,0,0,0-.583-.4,3.8,3.8,0,0,0-.753.327,1.3,1.3,0,0,1-1.065-.056.885.885,0,0,1-.29-.237,1.129,1.129,0,0,1,0-1.054V628.7a3.966,3.966,0,0,0-.324.659,1.129,1.129,0,0,0,0,1.05.8.8,0,0,0,.29.237,1.3,1.3,0,0,0,1.072.049,3.8,3.8,0,0,1,.753-.327.489.489,0,0,1,.583.4c.026.339-.218.5-.109.873.169.572.715.963.779,1.58a2.845,2.845,0,0,1-.154.914,1.092,1.092,0,0,0,.087.892,1.05,1.05,0,0,0,.873.294,1.031,1.031,0,0,0,.918-.309,1.273,1.273,0,0,0,.169-.478A1.329,1.329,0,0,1,972.654,634.709Z" transform="translate(-968.036 -628.7)"/>
      <path id="Path_31" data-name="Path 31" d="M987.245,642.266a1.622,1.622,0,0,1-1.43-.06,6.223,6.223,0,0,1-1.242-.888,1.779,1.779,0,0,0-.606-.376.632.632,0,0,0-.662.158,1.218,1.218,0,0,0-.2.527.659.659,0,0,1,.546-.06,1.883,1.883,0,0,1,.609.376,5.812,5.812,0,0,0,1.223.892,1.629,1.629,0,0,0,1.434.064,1.742,1.742,0,0,0,.8-1.054A1.416,1.416,0,0,1,987.245,642.266Z" transform="translate(-977.438 -636.314)"/>
    </g>
    <circle id="Ellipse_17" data-name="Ellipse 17" cx="4.677" cy="4.677" r="4.677" transform="translate(324.525 272.801)" fill="#3f3d56"/>
    <circle id="Ellipse_18" data-name="Ellipse 18" cx="4.677" cy="4.677" r="4.677" transform="translate(324.525 272.801)" opacity="0.1"/>
    <circle id="Ellipse_19" data-name="Ellipse 19" cx="2.961" cy="2.961" r="2.961" transform="translate(326.24 274.517)" fill="#65617d"/>
    <circle id="Ellipse_20" data-name="Ellipse 20" cx="2.961" cy="2.961" r="2.961" transform="translate(326.24 274.517)" opacity="0.1"/>
    <path id="Path_32" data-name="Path 32" d="M881.43,789.99l3.07,6.938a.595.595,0,0,0,1.08.023l3.65-7.431Z" transform="translate(-555.818 -519.842)" fill="#3f3d56"/>
    <path id="Path_33" data-name="Path 33" d="M881.43,789.99l3.07,6.938a.595.595,0,0,0,1.08.023l3.65-7.431Z" transform="translate(-555.818 -519.842)" opacity="0.1"/>
    <circle id="Ellipse_21" data-name="Ellipse 21" cx="4.677" cy="4.677" r="4.677" transform="translate(295.363 272.801)" fill="#3f3d56"/>
    <circle id="Ellipse_22" data-name="Ellipse 22" cx="4.677" cy="4.677" r="4.677" transform="translate(295.363 272.801)" opacity="0.1"/>
    <circle id="Ellipse_23" data-name="Ellipse 23" cx="2.961" cy="2.961" r="2.961" transform="translate(297.079 274.517)" fill="#65617d"/>
    <circle id="Ellipse_24" data-name="Ellipse 24" cx="2.961" cy="2.961" r="2.961" transform="translate(297.079 274.517)" opacity="0.1"/>
    <path id="Path_34" data-name="Path 34" d="M803.94,789.99l3.07,6.938a.594.594,0,0,0,1.08.023l3.646-7.431Z" transform="translate(-507.485 -519.842)" fill="#3f3d56"/>
    <path id="Path_35" data-name="Path 35" d="M803.94,789.99l3.07,6.938a.594.594,0,0,0,1.08.023l3.646-7.431Z" transform="translate(-507.485 -519.842)" opacity="0.1"/>
    <path id="Path_36" data-name="Path 36" d="M923.357,700.979a.7.7,0,0,0-.376-.557.722.722,0,0,0-.959.4l-2.683,6.664-.779,29.94h1.245l.467-29.876,3.033-6.122A.719.719,0,0,0,923.357,700.979Z" transform="translate(-578.977 -464.233)" fill="#3f3d56"/>
    <path id="Path_37" data-name="Path 37" d="M768.43,714.62l4.211-2.649,45.454-.391,1.17,3.04Z" transform="translate(-479.226 -443.772)" fill="#6c63ff"/>
    <path id="Path_38" data-name="Path 38" d="M768.43,721.644v-2.807l51.659-.5-.049,1.9H769.363v1.4Z" transform="translate(-479.226 -447.988)" fill="#3f3d56"/>
    <circle id="Ellipse_25" data-name="Ellipse 25" cx="4.677" cy="4.677" r="4.677" transform="translate(291.074 274.438)" fill="#3f3d56"/>
    <circle id="Ellipse_26" data-name="Ellipse 26" cx="2.961" cy="2.961" r="2.961" transform="translate(292.79 276.154)" fill="#65617d"/>
    <path id="Path_39" data-name="Path 39" d="M792.54,794.347l3.07,6.938a.595.595,0,0,0,1.08.023l3.646-7.428Z" transform="translate(-500.375 -522.561)" fill="#3f3d56"/>
    <circle id="Ellipse_27" data-name="Ellipse 27" cx="4.677" cy="4.677" r="4.677" transform="translate(327.407 274.438)" fill="#3f3d56"/>
    <circle id="Ellipse_28" data-name="Ellipse 28" cx="2.961" cy="2.961" r="2.961" transform="translate(329.123 276.154)" fill="#65617d"/>
    <path id="Path_40" data-name="Path 40" d="M889.1,794.347l3.07,6.938a.595.595,0,0,0,1.08.023l3.646-7.428Z" transform="translate(-560.602 -522.561)" fill="#3f3d56"/>
    <rect id="Rectangle_14" data-name="Rectangle 14" width="30.854" height="30.854" transform="translate(296.541 238.508)" fill="#ededf4"/>
    <path id="Path_41" data-name="Path 41" d="M820.85,735.981h5.23v7.842h-5.23Zm6.536-3.921h5.226v11.762h-5.226Zm6.536,6.532h5.226v5.23h-5.226Z" transform="translate(-518.033 -484.003)" fill="#6c63ff"/>
    <rect id="Rectangle_15" data-name="Rectangle 15" width="30.854" height="30.854" transform="translate(301.809 207.653)" fill="#d7d9e1"/>
    <path id="Path_42" data-name="Path 42" d="M845.27,666.839h10.457v1.96H845.27Zm5.23-5.226a1.309,1.309,0,0,0,0-2.615,1.443,1.443,0,0,0-.376.049l-2.7-1.987-.162.143,2,2.724a1.239,1.239,0,0,0-.06.376,1.306,1.306,0,0,0,1.3,1.309Z" transform="translate(-533.264 -437.223)" fill="#6c63ff"/>
    <path id="Path_43" data-name="Path 43" d="M845.087,643.11a8.492,8.492,0,0,0-6.694,13.723h2.4l.162-.166.9-.9-.933-.937-.9.9a6.491,6.491,0,0,1-1.437-3.473h1.272V650.97h-1.272a6.49,6.49,0,0,1,1.437-3.473l.9.9.933-.937-.9-.9a6.5,6.5,0,0,1,3.473-1.437v1.272h1.306v-1.272a6.491,6.491,0,0,1,3.473,1.437l-.9.9.937.937.9-.9a6.52,6.52,0,0,1,1.437,3.473h-1.276v1.306h1.276a6.521,6.521,0,0,1-1.437,3.473l-.9-.9-.937.937.9.9.166.166H851.8a8.5,8.5,0,0,0-6.694-13.723Z" transform="translate(-527.851 -428.522)" fill="#6c63ff"/>
    <rect id="Rectangle_16" data-name="Rectangle 16" width="30.854" height="30.854" transform="translate(140.764 136.537)" opacity="0.1"/>
    <rect id="Rectangle_17" data-name="Rectangle 17" width="30.854" height="30.854" transform="translate(140.011 135.785)" fill="#ededf4"/>
    <path id="Path_44" data-name="Path 44" d="M413.975,453.85h2.615v15.683h-2.615Zm-3.921,11.108h2.611v4.575H410.05Zm7.842-2.615h2.634v7.191H417.9Zm3.921-3.921h2.615v11.111h-2.615Z" transform="translate(-261.806 -310.476)" fill="#6c63ff"/>
    <rect id="Rectangle_18" data-name="Rectangle 18" width="30.854" height="30.854" transform="translate(307.829 136.161)" opacity="0.1"/>
    <rect id="Rectangle_19" data-name="Rectangle 19" width="30.854" height="30.854" transform="translate(307.077 135.408)" fill="#ededf4"/>
    <path id="Path_45" data-name="Path 45" d="M863.039,464.676l-3.563,5.448a1.93,1.93,0,0,1,.44,1.234,1.96,1.96,0,1,1-3.921,0,2.308,2.308,0,0,1,.034-.376l-2.352-1.37a1.953,1.953,0,0,1-2.325.294l-2.5,2.344v2.337a1.75,1.75,0,0,0,1.742,1.746h14.814a1.753,1.753,0,0,0,1.746-1.746v-8.666l-2.393-1.592A1.968,1.968,0,0,1,863.039,464.676Z" transform="translate(-535.497 -317.012)" fill="#6c63ff"/>
    <path id="Path_46" data-name="Path 46" d="M852.319,458.023a1.96,1.96,0,0,1,1.96,1.96c0,.083,0,.169,0,.252l2.453,1.373a1.957,1.957,0,0,1,1.242-.444,2.168,2.168,0,0,1,.425.045l3.571-5.527a1.954,1.954,0,1,1,3.544-1.129,2.072,2.072,0,0,1-.053.463l1.69,1.129v-3.27a1.753,1.753,0,0,0-1.746-1.746H850.592a1.75,1.75,0,0,0-1.742,1.746v9.365l1.633-1.565a1.956,1.956,0,0,1,1.836-2.634Z" transform="translate(-535.497 -308.779)" fill="#6c63ff"/>
    <rect id="Rectangle_20" data-name="Rectangle 20" width="30.854" height="30.854" transform="translate(224.297 137.666)" opacity="0.1"/>
    <rect id="Rectangle_21" data-name="Rectangle 21" width="30.854" height="30.854" transform="translate(223.544 136.914)" fill="#ededf4"/>
    <path id="Path_47" data-name="Path 47" d="M637.27,478.839h10.457v1.96H637.27Zm5.23-5.226a1.317,1.317,0,1,0,0-2.634,1.439,1.439,0,0,0-.376.049l-2.7-1.968-.162.143,2,2.724a1.239,1.239,0,0,0-.06.376A1.306,1.306,0,0,0,642.5,473.613Z" transform="translate(-403.529 -319.963)" fill="#6c63ff"/>
    <path id="Path_48" data-name="Path 48" d="M637.087,455.11a8.492,8.492,0,0,0-6.694,13.723h2.4l.162-.166.9-.9-.933-.937-.9.9a6.49,6.49,0,0,1-1.437-3.473h1.272V462.97h-1.272a6.49,6.49,0,0,1,1.437-3.473l.9.9.933-.937-.9-.9a6.5,6.5,0,0,1,3.473-1.437v1.272h1.306v-1.272a6.491,6.491,0,0,1,3.473,1.437l-.9.9.937.937.9-.9a6.521,6.521,0,0,1,1.437,3.473h-1.276v1.306h1.276a6.521,6.521,0,0,1-1.437,3.473l-.9-.9-.937.937.9.9.166.166H643.8a8.5,8.5,0,0,0-6.694-13.723Z" transform="translate(-398.116 -311.262)" fill="#6c63ff"/>
    <rect id="Rectangle_22" data-name="Rectangle 22" width="30.854" height="30.854" transform="translate(211.503 186.205)" opacity="0.1"/>
    <rect id="Rectangle_23" data-name="Rectangle 23" width="30.854" height="30.854" transform="translate(208.869 183.948)" fill="#ededf4"/>
    <path id="Path_49" data-name="Path 49" d="M600.671,588.09l2.1,2.092-4.463,4.47-3.661-3.661-6.773,6.792,1.291,1.291,5.49-5.49,3.661,3.661,5.761-5.757,2.1,2.1V588.09Z" transform="translate(-372.717 -394.205)" fill="#6c63ff"/>
    <path id="Path_50" data-name="Path 50" d="M557.7,685.042c.222-.948.376-1.78.376-1.78a3.661,3.661,0,0,1,.41-1.806V681.2h0v-1.908a6.369,6.369,0,0,0-.478-1c-.346-.6,0-2.8,0-2.8s1.272-3.093.959-5.053,2.6-8.733,2.6-8.733a8.459,8.459,0,0,0-.278-1.927,1.655,1.655,0,0,1-.034-.406v-.049h0a14.875,14.875,0,0,1,1.065-3.718l-.135-4.624a13.594,13.594,0,0,1,.414-6.4,29.881,29.881,0,0,0,.753-3.085,1.438,1.438,0,0,1,.049-.26c-2.194-.335-3.868-.613-3.868-.613s1.272-5.321,2.13-6.254,1.546-3.857,1.546-3.857.448-3.763-.275-4.858a7.339,7.339,0,0,1-.824-3.01s-1.652-1.2-1.859-1.727a8.953,8.953,0,0,1-.549-2.363c0-.632.207-1.2.139-1.531s.482-1.6.207-2.194a1.649,1.649,0,0,1-.113-.579v.041a8.062,8.062,0,0,1,.147-1.562,4.4,4.4,0,0,1,1.629-.873l.038-.143.094-.376a1.862,1.862,0,0,1,.162-.1v-.673l-.26-1.215c-.5-2.111,2.31-2.427,2.31-2.427a1.482,1.482,0,0,1,.8-.7c.568-.2.094,3.176-.173,3.386a12.7,12.7,0,0,0-1.129,1.738h0l-.049.086a1.29,1.29,0,0,1,.128.132l-.105.753v.113a3.105,3.105,0,0,1,.448.753,1.64,1.64,0,0,0-.414,1.2,3.762,3.762,0,0,1-.169,1.464c.03-.034.4-.429.753-.331s1.373.4,1.373.4.753.132.689.3.515.9.515.9l2.032-1.923c.019-.06.041-.117.056-.177a4.4,4.4,0,0,0,.177-.843,4.471,4.471,0,0,1-.647-.207,1.351,1.351,0,0,1-.564-.376,2.19,2.19,0,0,1-.327-.873,12.2,12.2,0,0,0-.753-1.682,5.471,5.471,0,0,1-.406-3.01,1.983,1.983,0,0,1,.312-.884c.331-.459.933-.643,1.37-1.008s.722-.918,1.23-1.193a2.446,2.446,0,0,1,1.543-.132,8.226,8.226,0,0,1,2.879,1.046,1.456,1.456,0,0,0,.963.316,1.294,1.294,0,0,0,.7-.508v-.03l.023-.026a3.6,3.6,0,0,1,.316,1.505v.245a.661.661,0,0,0,0,.087.405.405,0,0,0,0,.068h0a.339.339,0,0,0,0,.105.753.753,0,0,0,.192.275,1.665,1.665,0,0,1,.166.226.244.244,0,0,0-.03-.083,1.177,1.177,0,0,1,.211.64.639.639,0,0,1-.151.459,2.513,2.513,0,0,1-.331.267,4.057,4.057,0,0,1,.06.677,3.94,3.94,0,0,1-1.915,3.353l-.068.173a4.819,4.819,0,0,0-.376,2.216.411.411,0,0,0,.023.162l.075.083h0s3.353.034,4.139-.681,1.994,1.746,1.994,1.746,1.2.233,1.441,0,1.652-.034,1.652-.034a3.01,3.01,0,0,1,2.1-.753,6.15,6.15,0,0,1,1.539-.854h.038a1.689,1.689,0,0,1,.753-.094,15.6,15.6,0,0,0,2.13-2.1c.482-.73,2.773-3.447,2.784-3.462v-.128l.026-.4a1.287,1.287,0,0,0,.207,0,.476.476,0,0,1,.045-.135,7.61,7.61,0,0,1,.485-1.129s0-.5-.143-.625a8.717,8.717,0,0,1,.06-1.957s1.505-3.473,2.818-.88c0,0,2.517,1.678.4,3.635,0,0-.843.406-.963.73-.075.211-.376.8-.557,1.189l-.083.173h.023l-.03.327v.128c.4.226.67.448.6.621a3.9,3.9,0,0,0-.241.9s-2.92,3.661-3.3,5.223c0,0-7.838,4.658-10.415,4.989l.448,2.329s.135,1.4.1,1.881.309,2.762.309,2.762a18.337,18.337,0,0,0,.828,3.793,6.336,6.336,0,0,1,.309,2.461,16.549,16.549,0,0,0,.516,2.826,7.235,7.235,0,0,1,.1,2.83s1.306,2.991-1.821.963c0,0-1.535-.094-3.3-.154v.911c.023,1.712.034,4.075-.045,5.862-.135,3.161-1.1,9.407-1.1,9.407v3.142a4.176,4.176,0,0,1,.09.9,5.836,5.836,0,0,1-.847,3.146l-.241,2.1a8.212,8.212,0,0,0-.576,2.2,1.066,1.066,0,0,0,.026.2,1.5,1.5,0,0,1,.026.32,18.243,18.243,0,0,1-.542,3.228s-.034,2.3-.376,2.431.376,1.321.6,1.667a.32.32,0,0,0,0-.064l.041.068a1.6,1.6,0,0,1,.105.583.832.832,0,0,1-.376.805c-.655.4-1,.73-.452.865a5.125,5.125,0,0,1,.606.128.679.679,0,0,0,.03-.079.376.376,0,0,1,.226.4,1.716,1.716,0,0,1-.2.779,8.22,8.22,0,0,1-.933,1.7l-.263-.03a1.386,1.386,0,0,0,.154.282,1.087,1.087,0,0,0,.376.346,1.249,1.249,0,0,0,.47.162,1.324,1.324,0,0,1,.975.474,1.011,1.011,0,0,1-.12,1.577l-2.457.847s-4.229.549-4-.4.376-1.78.376-1.78a3.736,3.736,0,0,1,.342-1.682c.045-.083.094-.166.151-.248h-.151a7.739,7.739,0,0,0-.722-2.495c-.094-.094-.117-.162-.094-.218-.041-.113.064-.181.2-.218a.539.539,0,0,1,.03.083,2.054,2.054,0,0,1,.41-.045s.139-1.1-.309-1.505a.433.433,0,0,1-.087-.327,1.847,1.847,0,0,1,.045-.444l.019.023a16.342,16.342,0,0,1,.986-2.577,3.16,3.16,0,0,0-.241-1.4c-.275-.4.034-5.422.034-5.422a16.513,16.513,0,0,1,.207-3.56,4,4,0,0,0-.376-2.461V661.8h0a2.311,2.311,0,0,1,.041-.376v.023c.068-.643.2-1.806.3-2.344.135-.753-.034-4.425-.034-4.425l-.568-1.528-1.1,2.694-1.159,3.59a3.055,3.055,0,0,0-.6,1.531v.354a2.152,2.152,0,0,1-.376,1.279,5.569,5.569,0,0,1-.79,2.13,1.919,1.919,0,0,0-.482,1.264,20.9,20.9,0,0,1-.862,2.894,4.418,4.418,0,0,0-.241,1.674h0v.09s-.083.88-.079,1.618v.245a2.537,2.537,0,0,0,.072.6v-.091a6.354,6.354,0,0,1,.177,1.535,4.054,4.054,0,0,1-.655,2.547c-.929,1.065-1.505.929-1.505.929s.448,1.332,1,1.6a.243.243,0,0,1,.056.038.58.58,0,0,0,0-.079.655.655,0,0,1,.162.5,3.567,3.567,0,0,1-.681,1.972,1.091,1.091,0,0,1-.467.271l.087.053a2.1,2.1,0,0,0,.192.09,1.074,1.074,0,0,0,.278.075,1.313,1.313,0,0,1,.975.47,1.011,1.011,0,0,1-.12,1.577l-2.457.85S557.474,685.986,557.7,685.042Z" transform="translate(-353.891 -403.895)" fill="url(#linear-gradient-4)"/>
    <path id="Path_51" data-name="Path 51" d="M594.182,816.439l2.378-.847a1.03,1.03,0,0,0,.117-1.577,1.261,1.261,0,0,0-.941-.474,1.161,1.161,0,0,1-.455-.162,1.049,1.049,0,0,1-.376-.346,1.757,1.757,0,0,1-.275-.918s-2.611-.753-3.326,0a2.018,2.018,0,0,0-.316.463,3.887,3.887,0,0,0-.331,1.682s-.132.832-.35,1.78S594.182,816.439,594.182,816.439Z" transform="translate(-374.231 -533.727)" fill="#3f3d56"/>
    <path id="Path_52" data-name="Path 52" d="M563.242,813.323l2.378-.85a1.033,1.033,0,0,0,.117-1.577,1.26,1.26,0,0,0-.941-.47,1.016,1.016,0,0,1-.275-.075,1.592,1.592,0,0,1-.181-.09A1.52,1.52,0,0,1,563.69,809s-2.611-.753-3.326,0a2.041,2.041,0,0,0-.248.342,3.762,3.762,0,0,0-.4,1.806s-.135.832-.35,1.78S563.242,813.323,563.242,813.323Z" transform="translate(-354.934 -531.781)" fill="#3f3d56"/>
    <path id="Path_53" data-name="Path 53" d="M559.881,737.6a6.844,6.844,0,0,1,.467,1v2.634c.666,1.095,4.139.73,4.591.132s.963-2.164.433-2.427-.967-1.6-.967-1.6.568.135,1.464-.929.632-3.428.467-3.992a11.862,11.862,0,0,1,0-2.461,4.922,4.922,0,0,1,.233-1.765,21.715,21.715,0,0,0,.832-2.894,1.957,1.957,0,0,1,.467-1.264,5.608,5.608,0,0,0,.753-2.13,2.175,2.175,0,0,0,.331-1.43,2.9,2.9,0,0,1,.568-1.727l1.129-3.593,1.065-2.694.6,1.562s.169,3.661.034,4.425-.331,2.8-.331,2.8a4.146,4.146,0,0,1,.376,2.461,17.71,17.71,0,0,0-.2,3.56s-.3,5.023-.034,5.422a3.236,3.236,0,0,1,.233,1.4s-1.362,2.927-.929,3.326.3,1.505.3,1.505-.929,0-.531.4a7.963,7.963,0,0,1,.7,2.495l4.022.467a8.465,8.465,0,0,0,.9-1.7c.531-1.23-.1-1.1-.636-1.23s-.2-.467.436-.865.263-1.3.263-1.3-.963-1.629-.632-1.761.376-2.431.376-2.431a14.91,14.91,0,0,0,.5-3.458,6.682,6.682,0,0,1,.534-2.495l.233-2.1a5.765,5.765,0,0,0,.726-3.97v-3.228s.933-6.254,1.065-9.407c.087-2.024.06-4.786.034-6.51,0-.967-.034-1.607-.034-1.607l-14.37-1.505a11.836,11.836,0,0,1-.26,2.133,30.942,30.942,0,0,1-.753,3.089,14.024,14.024,0,0,0-.4,6.4l.132,4.624s-1.264,3.093-1,4.139a8.937,8.937,0,0,1,.263,1.93s-2.826,6.75-2.525,8.714-.933,5.057-.933,5.057A7.829,7.829,0,0,0,559.881,737.6Z" transform="translate(-355.166 -463.201)" fill="#65617d"/>
    <g id="Group_6" data-name="Group 6" transform="translate(204.567 236.912)" opacity="0.05">
      <path id="Path_54" data-name="Path 54" d="M603.162,801.058a.775.775,0,0,0,.357-.568l.041.068s.376.9-.267,1.3l-.2.135c-.117-.023-.245-.038-.376-.068C602.191,801.811,602.53,801.457,603.162,801.058Z" transform="translate(-586.382 -763.596)"/>
      <path id="Path_55" data-name="Path 55" d="M590.753,800.161c-.105-.1-.1-.354-.038-.681a1.81,1.81,0,0,1,.222.963A.816.816,0,0,0,590.753,800.161Z" transform="translate(-579.03 -762.966)"/>
      <path id="Path_56" data-name="Path 56" d="M592.431,757.31a4.514,4.514,0,0,1,.263,1.223,4.674,4.674,0,0,0-.3-.839S592.405,757.543,592.431,757.31Z" transform="translate(-580.103 -736.664)"/>
      <path id="Path_57" data-name="Path 57" d="M568.553,752.046a1.719,1.719,0,0,1-.034-.376c.049.248.083.482.109.681C568.606,752.261,568.583,752.17,568.553,752.046Z" transform="translate(-565.214 -733.146)"/>
      <path id="Path_58" data-name="Path 58" d="M592.578,787.493a2.092,2.092,0,0,1-.1-.753,2.488,2.488,0,0,1,.2.933.791.791,0,0,0-.094-.181Z" transform="translate(-580.156 -755.02)"/>
      <path id="Path_59" data-name="Path 59" d="M603.721,735.213s-.034,2.3-.376,2.427h0c-.169-.376-.282-.753-.132-.8.331-.135.376-2.431.376-2.431a14.874,14.874,0,0,0,.5-3.458,6.7,6.7,0,0,1,.531-2.495l.233-2.1a5.765,5.765,0,0,0,.73-3.958v-3.228s.933-6.254,1.065-9.407c.087-2.024.064-4.786.034-6.51v-.82h.117s0,.64.03,1.607c.03,1.723.053,4.485-.03,6.51-.135,3.161-1.065,9.407-1.065,9.407v3.225a5.78,5.78,0,0,1-.753,3.958l-.233,2.1a6.7,6.7,0,0,0-.531,2.495A15.1,15.1,0,0,1,603.721,735.213Z" transform="translate(-586.81 -702.44)"/>
      <path id="Path_60" data-name="Path 60" d="M559.749,799.656a6.375,6.375,0,0,1,.467,1v.467c-.075-.169-.184-.4-.331-.666a1.989,1.989,0,0,1-.147-.824Z" transform="translate(-559.737 -763.06)"/>
      <path id="Path_61" data-name="Path 61" d="M572.127,792.944a5.9,5.9,0,0,1-.327-.79s.564.135,1.464-.929a4.741,4.741,0,0,0,.595-3.195c.169.568.436,2.927-.463,3.992A2.3,2.3,0,0,1,572.127,792.944Z" transform="translate(-567.261 -755.825)"/>
      <path id="Path_62" data-name="Path 62" d="M576.934,751.164a17.455,17.455,0,0,0-.068,1.972,2.882,2.882,0,0,0-.068-.309,11.862,11.862,0,0,1,0-2.461,5.01,5.01,0,0,1,.233-1.765,22.3,22.3,0,0,0,.832-2.894,1.957,1.957,0,0,1,.467-1.264,5.6,5.6,0,0,0,.753-2.126,2.2,2.2,0,0,0,.335-1.434,2.878,2.878,0,0,1,.564-1.727l1.129-3.593,1.065-2.694.6,1.562v.508l-.452-1.268-1.065,2.694-1.129,3.593a2.92,2.92,0,0,0-.564,1.731,2.175,2.175,0,0,1-.331,1.43,5.853,5.853,0,0,1-.753,2.126,1.968,1.968,0,0,0-.463,1.264,22.334,22.334,0,0,1-.832,2.9A5.108,5.108,0,0,0,576.934,751.164Z" transform="translate(-570.332 -721.42)"/>
    </g>
    <path id="Path_63" data-name="Path 63" d="M569.762,613.654l.248,1.215v.941l1.388.143.154-.29h0a12.724,12.724,0,0,1,1.08-1.742c.256-.215.711-3.593.162-3.386a1.46,1.46,0,0,0-.771.7S569.269,611.543,569.762,613.654Z" transform="translate(-361.386 -408.199)" fill="#ffcdd3"/>
    <path id="Path_64" data-name="Path 64" d="M570.45,623.635l1.388.143.154-.29h0a1.219,1.219,0,0,0-1.531-.252Z" transform="translate(-361.852 -416.023)" opacity="0.1"/>
    <path id="Path_65" data-name="Path 65" d="M569.52,624.486l1.829.425.041-.271.1-.753a1.257,1.257,0,0,0-1.772-.241l-.09.376Z" transform="translate(-361.272 -416.219)" fill="#dce6f2"/>
    <path id="Path_66" data-name="Path 66" d="M648.32,609.483l1.953,1.046s.071-.154.177-.376c.184-.376.463-.975.538-1.185.117-.324.929-.753.929-.753,2.047-1.953-.376-3.631-.376-3.631-1.287-2.6-2.724.88-2.724.88a8.683,8.683,0,0,0-.06,1.953c.143.124.139.625.139.625a7.906,7.906,0,0,0-.47,1.129A3.2,3.2,0,0,0,648.32,609.483Z" transform="translate(-410.421 -403.892)" fill="#ffcdd3"/>
    <path id="Path_67" data-name="Path 67" d="M648.32,618.674l1.953,1.046s.071-.154.177-.376c-.278-.229-1.253-1.023-1.577-.986a2.537,2.537,0,0,1-.463,0C648.35,618.557,648.32,618.674,648.32,618.674Z" transform="translate(-410.421 -413.083)" opacity="0.1"/>
    <path id="Path_68" data-name="Path 68" d="M647.78,619.5l2.2,1.08.045-.47.03-.327s-1.272-1.091-1.648-1.05a2.018,2.018,0,0,1-.572,0l-.026.376Z" transform="translate(-410.084 -413.314)" fill="#dce6f2"/>
    <path id="Path_69" data-name="Path 69" d="M584,627.97s9.572,1.08,7.785.5a2.4,2.4,0,0,1-1.844-2.077,4.971,4.971,0,0,1,.354-2.216,9.6,9.6,0,0,1,.858-1.727s-7.319-4.026-5.855-.376a5.819,5.819,0,0,1,.414,1.731,4.813,4.813,0,0,1-.188,1.757A5.223,5.223,0,0,1,584,627.97Z" transform="translate(-370.303 -414.447)" fill="#ffcdd3"/>
    <path id="Path_70" data-name="Path 70" d="M587.129,622.091a5.817,5.817,0,0,1,.414,1.731,3.369,3.369,0,0,0,2.416.542,4.288,4.288,0,0,0,2.167-.181,9.6,9.6,0,0,1,.858-1.727S585.665,618.43,587.129,622.091Z" transform="translate(-372.134 -414.453)" opacity="0.1"/>
    <circle id="Ellipse_29" data-name="Ellipse 29" cx="3.958" cy="3.958" r="3.958" transform="translate(213.998 202.246)" fill="#ffcdd3"/>
    <path id="Path_71" data-name="Path 71" d="M584,635.62s9.572,1.08,7.785.5a2.4,2.4,0,0,1-1.844-2.077,5.3,5.3,0,0,0-2.051-1.087,2.874,2.874,0,0,0-1.735-.026,2.454,2.454,0,0,0-.632.293,5.223,5.223,0,0,1-1.524,2.4Z" transform="translate(-370.303 -422.097)" opacity="0.1"/>
    <path id="Path_72" data-name="Path 72" d="M569.52,625.46l1.829.425.041-.271a1.614,1.614,0,0,0-1.761-.6Z" transform="translate(-361.272 -417.193)" opacity="0.1"/>
    <path id="Path_73" data-name="Path 73" d="M647.78,620.153l2.2,1.08.045-.47a16.411,16.411,0,0,0-2.216-.982Z" transform="translate(-410.084 -413.971)" opacity="0.1"/>
    <path id="Path_74" data-name="Path 74" d="M573.94,700.841c3.706.587,8.982,1.347,9.821,1.091a24.452,24.452,0,0,1,4.843-.12c0-.967-.034-1.607-.034-1.607L574.2,698.7a11.846,11.846,0,0,1-.26,2.141Z" transform="translate(-364.028 -463.195)" opacity="0.1"/>
    <path id="Path_75" data-name="Path 75" d="M564.11,650.984s12.206,2.1,13.52,1.7,8.033.03,8.033.03c3.029,2.032,1.765-.963,1.765-.963a7.378,7.378,0,0,0-.1-2.826,17.283,17.283,0,0,1-.5-2.83,6.526,6.526,0,0,0-.3-2.461,18.76,18.76,0,0,1-.8-3.793s-.331-2.258-.3-2.762a18.63,18.63,0,0,0-.1-1.881l-.433-2.329c2.495-.335,10.08-4.989,10.08-4.989.376-1.565,3.191-5.223,3.191-5.223a3.83,3.83,0,0,1,.233-.9c.2-.531-2.792-1.6-2.792-1.6s-2.231,2.728-2.694,3.458a15.132,15.132,0,0,1-2.062,2.1,1.646,1.646,0,0,0-.753.094h-.038a5.945,5.945,0,0,0-1.505.854,2.9,2.9,0,0,0-2.028.753s-1.362-.2-1.6.034-1.4,0-1.4,0-1.167-2.465-1.93-1.75-4,.7-4,.7a4.776,4.776,0,0,0-2.145-1.2,2.875,2.875,0,0,0-1.735-.03,2.212,2.212,0,0,0-.685.331l-1.972,1.93s-.564-.753-.5-.9-.666-.3-.666-.3-.963-.3-1.332-.4-.7.3-.73.331a3.864,3.864,0,0,0,.166-1.46,1.674,1.674,0,0,1,.4-1.2c-1.163-2.863-3.793-.467-3.793-.467a5.516,5.516,0,0,0-.034,2.16c.263.6-.263,1.881-.2,2.2s-.132.9-.132,1.531a8.913,8.913,0,0,0,.534,2.359c.2.534,1.795,1.731,1.795,1.731a7.651,7.651,0,0,0,.8,3.01c.7,1.129.267,4.854.267,4.854s-.666,2.927-1.505,3.861S564.11,650.984,564.11,650.984Z" transform="translate(-357.897 -414.208)" fill="#3f3d56"/>
    <path id="Path_76" data-name="Path 76" d="M587.706,615.536a.839.839,0,0,1-.309.534.794.794,0,0,1-.376.083,8.029,8.029,0,0,1-3.582-.335,1.4,1.4,0,0,1-.542-.376,2.19,2.19,0,0,1-.316-.877,12.985,12.985,0,0,0-.73-1.682,5.644,5.644,0,0,1-.4-3.01,2.085,2.085,0,0,1,.3-.884c.32-.455.9-.64,1.324-1s.7-.922,1.193-1.193a2.258,2.258,0,0,1,1.505-.132,7.8,7.8,0,0,1,2.788,1.046,1.418,1.418,0,0,0,.933.316,1.3,1.3,0,0,0,.685-.527,3.673,3.673,0,0,1,.294,1.727.507.507,0,0,0,.184.534,1.007,1.007,0,0,1,.188,1.242c-.128.151-.324.233-.448.376-.226.278-.151.681-.143,1.035a.534.534,0,0,1-.09.35.5.5,0,0,1-.485.117,1.377,1.377,0,0,0-.523-.049.877.877,0,0,0-.451.35A6.16,6.16,0,0,0,587.706,615.536Z" transform="translate(-368.681 -405.742)" fill="#2d293d"/>
    <path id="Path_77" data-name="Path 77" d="M591.062,636.6s-4.948.655-5.392-.09" transform="translate(-371.345 -424.406)" opacity="0.1"/>
    <path id="Path_78" data-name="Path 78" d="M312.664,740.69H308.9a.376.376,0,1,0,0,.753h.753v5.027H296.767a.376.376,0,0,0-.282-.135h-3.763a.376.376,0,1,0,0,.753h.753v5.162h-12.44a.376.376,0,0,0-.354-.271h-3.763a.376.376,0,0,0,0,.753h.376v5.3H264.656A.377.377,0,0,0,264.5,758h-3.763a.376.376,0,1,0,0,.753h.376v5.061H248.634a.376.376,0,0,0-.3-.169h-3.763a.376.376,0,0,0,0,.753h.376v5.644H329.98V740.69Z" transform="translate(-158.355 -489.385)" fill="#3f3d56"/>
    <path id="Path_79" data-name="Path 79" d="M181.76,678.818a3.01,3.01,0,0,0,1.283,1.4,11.038,11.038,0,0,1,1.6,1.095c.579.549.956,1.309,1.637,1.731a3.318,3.318,0,0,0,.828.342,5.214,5.214,0,0,0,1.02.207,7.208,7.208,0,0,0,2.634-.452,2.443,2.443,0,0,0,.79-.346,2.2,2.2,0,0,0,.3-.29,1.693,1.693,0,0,0,.414-.655.534.534,0,0,0-.038-.4.911.911,0,0,0-.335-.32,5.68,5.68,0,0,0-.753-.418,3.862,3.862,0,0,1-.986-.523,2.3,2.3,0,0,1-.478-.643,6.231,6.231,0,0,1-.542-1.3,4.225,4.225,0,0,0-.3-.884c-.162-.3-.421-.553-.595-.843a.7.7,0,0,0,.275-.038,2.566,2.566,0,0,0-.3-1.332c.376.03.553-.463.493-.828s-.237-.753-.079-1.084a2.012,2.012,0,0,1,.425-.489c.6-.632.579-1.6.828-2.423a7.032,7.032,0,0,1,.621-1.347c.719-1.3,1.05-2.924,2.209-3.861l1.042-.843a.444.444,0,0,0,.162-.192c.06-.162-.068-.331-.06-.5.019-.3.433-.429.572-.7a1.739,1.739,0,0,0,.1-.418c.109-.478.576-.775.911-1.129a2.562,2.562,0,0,0,.666-2.047,1.735,1.735,0,0,1-.03-.557,2.685,2.685,0,0,1,.147-.376,3.386,3.386,0,0,0,.124-1.219,10.912,10.912,0,0,1,.237-1.938l5.14-1.166c.034.038.064.075.1.113.455.463.681,1.129,1.129,1.61l.587.647c.113.124.23.29.162.44s-.154.154-.226.237a.4.4,0,0,0,.346.636.775.775,0,0,0,.4,1.163,3.115,3.115,0,0,1-.429.655.542.542,0,0,1,.113.331,1.573,1.573,0,0,1-.075.211.892.892,0,0,0,.041.474,7.123,7.123,0,0,1,0,3.688,2.129,2.129,0,0,0-.1.508,1.505,1.505,0,0,0,.064.425c.173.621.519,1.272.278,1.881a3.877,3.877,0,0,0-.2.44c-.135.452.177.9.346,1.336a4.516,4.516,0,0,1,.166,1.881c-.041.873-.087,1.742-.128,2.611a1.039,1.039,0,0,0,.049.47.8.8,0,0,0,.527.406c-.053.177-.105.354-.166.527a.312.312,0,0,0-.527-.023.557.557,0,0,0-.068.248,6.25,6.25,0,0,0,.3,1.848.858.858,0,0,1,.026.294,1.855,1.855,0,0,1-.1.3.437.437,0,0,0-.023.075,1.833,1.833,0,0,0,.083.9.79.79,0,0,0,.26.478.751.751,0,0,0,.339.105c1.8.207,3.552-.963,5.351-.753.376.041.73.139,1.1.177a5.767,5.767,0,0,0,1.3-.064c.6-.079,1.2-.181,1.791-.3a4.455,4.455,0,0,0,1.306-.418,1.626,1.626,0,0,0,.839-1.027.771.771,0,0,0-.075-.579.67.67,0,0,0-.15-.158A1.62,1.62,0,0,0,216,675.6l-.7-.252a4.187,4.187,0,0,0-1.039-.271c-.26-.023-.527,0-.786,0a5.161,5.161,0,0,1-2.483-1.08l-1.031-.685a.666.666,0,0,0-.7-.117l-.143.053.636-.354q.045-4.651-.023-9.3a9.741,9.741,0,0,0-.218-2.292c-.113-.429-.233-.99.143-1.23.1-.335-.1-.67-.192-1s.038-.809.376-.813a4.271,4.271,0,0,1-.35-2.047,14.876,14.876,0,0,0-.113-1.72,4.865,4.865,0,0,0-.595-2.024l5.072-1.151-.166-.734.753-.169-4.086-17.99a.478.478,0,0,0,.312-.429c-.019-.177-.192-.339-.135-.508.034-.1.135-.158.2-.245a.583.583,0,0,0-.064-.67.3.3,0,0,1-.071-.166.327.327,0,0,1,.038-.117.881.881,0,0,0-.252-1.046.342.342,0,0,0-.147-.075,1.07,1.07,0,0,1-.346,0c-.12-.038-.124-.105-.26-.117h-.041l-1.546-6.807a6.776,6.776,0,0,0,.271-1.008,3.206,3.206,0,0,0-.162-1.825,3.729,3.729,0,0,0,.9-.673.5.5,0,0,0,.12-.64,4.556,4.556,0,0,0-1.505-2.058c-.214-.162-.722-.591-1.035-.5q.117-.169.248-.327a3.314,3.314,0,0,0,.493-.617,4.3,4.3,0,0,0,2.562-4.892,1.309,1.309,0,0,0-.049-.173.7.7,0,0,0,.579-.211.753.753,0,0,0,.068-.753,5.992,5.992,0,0,0-.376-.677c-.282-.512-.214-1.174-.5-1.652a5.516,5.516,0,0,0-1.027-1.129,3.293,3.293,0,0,0-2.739-.625,5.953,5.953,0,0,0-2.577,1.294,3.387,3.387,0,0,1-.722.5c-.429.2-.956.188-1.313.493a1.629,1.629,0,0,0-.233,1.731,2.954,2.954,0,0,1,.241,1.8,3.767,3.767,0,0,0-.207.531,1.535,1.535,0,0,0,.252.975,1.205,1.205,0,0,0,.12-.214.049.049,0,0,1,0,.023c.026.1.056.2.083.293a.294.294,0,0,0-.124.026c-.177.079-.256.286-.4.414s-.512.211-.583.448c-.034.113,0,.237-.041.346-.09.214-.406.214-.572.376a.482.482,0,0,0-.094.489,1.02,1.02,0,0,0,.128.256.542.542,0,0,0,.034.327l-2.1.508a4.621,4.621,0,0,0-.975.32,1.505,1.505,0,0,0-.719.7.127.127,0,0,1-.079.1.169.169,0,0,1-.105,0,1.881,1.881,0,0,0-1.087.053,5.881,5.881,0,0,0-2.781,2.032,1.024,1.024,0,0,0-.267.527c-.019.226.105.478,0,.674l-.109.045a5.356,5.356,0,0,0-.892.376c-.3.181-.572.418-.858.628-1.17.858-2.717,1.283-3.544,2.468-.271.376-.467.862-.88,1.1a5.675,5.675,0,0,0-.564.29,1.742,1.742,0,0,0-.455,1.17l-7.394,1.682.166.73-.753.169,6.833,30.068,6.306-1.43a1.809,1.809,0,0,0,.06.425,3.654,3.654,0,0,0,.433,1.249.719.719,0,0,0-.5.666c-.034.29.019.591-.041.877a2.91,2.91,0,0,1-.926,1.257c-1.678,1.723-2.032,4.267-2.89,6.495a25.8,25.8,0,0,0-1.189,3.112c-.3,1.223-.32,2.634-1.283,3.48a.675.675,0,0,0-.218.256.41.41,0,0,0,0,.233,1.129,1.129,0,0,0,.357.572l-.045.087a.345.345,0,0,0-.113,0c-.2,0-.3.248-.376.4a4.3,4.3,0,0,0-.5,1.7.483.483,0,0,0-.166,0,.7.7,0,0,0-.508.418,1.129,1.129,0,0,0,.049.775ZM206.267,616.4h-.075a3.238,3.238,0,0,1,.222-.512A3.146,3.146,0,0,0,206.267,616.4Zm-20.131,60.1a.621.621,0,0,1-.214.327H185.9a.965.965,0,0,1,.038-.12l.083-.237Z" transform="translate(-116.116 -404.387)" fill="url(#linear-gradient-5)"/>
    <path id="Path_80" data-name="Path 80" d="M254.086,788.033a8.236,8.236,0,0,1-3.537.681c-.184,0-.41-.09-.429-.275a.425.425,0,0,1,.041-.188,11.214,11.214,0,0,0,.606-2.258.177.177,0,0,1,.045-.105.169.169,0,0,1,.113-.026c.549,0,1.072.248,1.622.275a2.153,2.153,0,0,0,.816-.12c.23-.079.5-.346.719-.376C254.127,786.426,254,787.217,254.086,788.033Z" transform="translate(-162.053 -517.422)" fill="#3f3d56"/>
    <path id="Path_81" data-name="Path 81" d="M196.308,793.654a6.289,6.289,0,0,1-2.461-1.445.3.3,0,0,1-.09-.151.35.35,0,0,1,.026-.173,6.774,6.774,0,0,1,1.245-2.156,4.891,4.891,0,0,1,1.129.64c.241.162.854.376.926.677.045.181-.117.429-.181.591-.083.222-.162.444-.233.67A8.375,8.375,0,0,0,196.308,793.654Z" transform="translate(-126.897 -519.973)" fill="#3f3d56"/>
    <path id="Path_82" data-name="Path 82" d="M249.387,792.355a.805.805,0,0,0,.256.478.677.677,0,0,0,.339.105c1.772.214,3.5-.948,5.268-.753.376.041.722.143,1.084.177a5.641,5.641,0,0,0,1.283-.06c.591-.075,1.181-.173,1.765-.29a4.3,4.3,0,0,0,1.283-.41,1.641,1.641,0,0,0,.828-1.027.813.813,0,0,0-.079-.579.669.669,0,0,0-.15-.158,1.634,1.634,0,0,0-.459-.226l-.689-.252a4.139,4.139,0,0,0-1.023-.275,7.6,7.6,0,0,0-.775,0,5.13,5.13,0,0,1-2.453-1.091l-1.016-.689a.855.855,0,0,0-.339-.162.824.824,0,0,0-.357.045,4.813,4.813,0,0,0-2.066,1.26,3.155,3.155,0,0,1-.478.448,2.013,2.013,0,0,1-1.588.158c-.237-.064-.2-.139-.339-.32s-.376-.26-.523-.034a.512.512,0,0,0-.068.248,6.374,6.374,0,0,0,.3,1.847.87.87,0,0,1,.03.294,1.854,1.854,0,0,1-.1.3.555.555,0,0,0-.019.075,1.833,1.833,0,0,0,.083.892Z" transform="translate(-161.411 -518.358)" fill="#65617d"/>
    <path id="Path_83" data-name="Path 83" d="M249.7,796.827a.806.806,0,0,0,.256.478.677.677,0,0,0,.339.105c1.772.214,3.5-.948,5.268-.753.376.041.722.143,1.084.177a5.644,5.644,0,0,0,1.283-.06c.591-.075,1.181-.173,1.765-.29a4.3,4.3,0,0,0,1.283-.41,1.64,1.64,0,0,0,.828-1.027.813.813,0,0,0-.079-.579.669.669,0,0,0-.15-.158c-.053.222-.06.5-.1.613a1.178,1.178,0,0,1-.643.726,1.911,1.911,0,0,1-.719.068,36.356,36.356,0,0,1-4.7.09,11.046,11.046,0,0,0-1.6-.23,11.406,11.406,0,0,0-1.618.233c-.85.12-1.72.053-2.577.109A1.833,1.833,0,0,0,249.7,796.827Z" transform="translate(-161.728 -522.83)" fill="#3f3d56"/>
    <path id="Path_84" data-name="Path 84" d="M190.349,796.617a3.059,3.059,0,0,0,1.272,1.4,10.623,10.623,0,0,1,1.584,1.1c.572.549.944,1.313,1.622,1.735a3.268,3.268,0,0,0,.817.346,5.356,5.356,0,0,0,1,.211,6.977,6.977,0,0,0,2.6-.444,2.359,2.359,0,0,0,.783-.346,2.106,2.106,0,0,0,.278-.3,1.667,1.667,0,0,0,.4-.655.553.553,0,0,0-.034-.376.929.929,0,0,0-.331-.32,5.836,5.836,0,0,0-.753-.418,3.818,3.818,0,0,1-.975-.531,2.3,2.3,0,0,1-.474-.643,6.234,6.234,0,0,1-.534-1.3,4.3,4.3,0,0,0-.3-.884c-.237-.433-.677-.775-.753-1.264a.342.342,0,0,0-.064-.2.29.29,0,0,0-.184-.064,3.083,3.083,0,0,0-.892,0,1,1,0,0,0-.715.485c-.087.173-.12.376-.282.5a.638.638,0,0,1-.267.072,2.22,2.22,0,0,1-1.313-.1,1.58,1.58,0,0,1-.771-1.008c-.03-.162,0-.346-.252-.324s-.3.248-.376.4a4.267,4.267,0,0,0-.485,1.7.488.488,0,0,0-.166,0,.692.692,0,0,0-.5.418,1.155,1.155,0,0,0,.053.816Z" transform="translate(-124.708 -522.19)" fill="#65617d"/>
    <path id="Path_85" data-name="Path 85" d="M190.362,800.069a3.059,3.059,0,0,0,1.272,1.4,10.623,10.623,0,0,1,1.584,1.1c.572.549.944,1.313,1.622,1.735a3.268,3.268,0,0,0,.817.346,5.356,5.356,0,0,0,1,.211,6.977,6.977,0,0,0,2.6-.444,2.359,2.359,0,0,0,.783-.346,2.106,2.106,0,0,0,.278-.3,1.667,1.667,0,0,0,.4-.655,1.284,1.284,0,0,0-.561,0c-.376.105-.572.531-.914.722-.485.278-1.087.026-1.644.023-.376,0-.726.1-1.087.068a2.743,2.743,0,0,1-.884-.29,4.205,4.205,0,0,1-1.012-.613,5.37,5.37,0,0,1-.7-.862,14.443,14.443,0,0,0-1.411-1.656,1.423,1.423,0,0,0-.26-.218,3.289,3.289,0,0,0-.316-.132,2.134,2.134,0,0,1-.88-1,1.881,1.881,0,0,0-.23-.35.692.692,0,0,0-.5.418A1.155,1.155,0,0,0,190.362,800.069Z" transform="translate(-124.721 -525.643)" fill="#3f3d56"/>
    <path id="Path_86" data-name="Path 86" d="M242.822,627.286a3.891,3.891,0,0,0-.775,1.475,26.428,26.428,0,0,0-.5,5.151c-.572-.376-2.431-.023-3.01-.376-.241-.151-1.505-.892-1.731-1.084s-1.505-.41-1.686-.613c-.681-.753,2.48-4.918,1.787-5.644a.162.162,0,0,1-.03-.245,6.168,6.168,0,0,1,.956-1.027,1.881,1.881,0,0,0,.628-1.223,3.764,3.764,0,0,1,1.151.452q1.283.67,2.54,1.4c.327.188.926.4,1.129.73S243.036,627.026,242.822,627.286Z" transform="translate(-152.637 -416.416)" fill="#a1616a"/>
    <path id="Path_87" data-name="Path 87" d="M223.895,633.38a11.59,11.59,0,0,1,1.983.986,3.45,3.45,0,0,1,1.452,1.464c.109.252.166.523.263.779.436,1.129,1.633,1.738,2.322,2.72a5.6,5.6,0,0,1,.519.971,12.794,12.794,0,0,1,.662,1.983c.162.659-.376,1.26-.482,1.93a11.138,11.138,0,0,0,0,1.972,23.327,23.327,0,0,1-.263,3.725c-.324,2.6-1.637,9.9-1.96,12.511-2.826-.064-10.284,0-12.97-.862-.9-.29,4.139-7.021,3.232-7.194a.324.324,0,0,1-.339-.376c0-3.883,1.953-7.525,2.333-11.375a32.632,32.632,0,0,1,.937-3.887c.267-1.189.271-2.438.655-3.6a2.136,2.136,0,0,1,.32-.658,2.575,2.575,0,0,1,.425-.41C223.293,633.8,223.594,633.613,223.895,633.38Z" transform="translate(-140.343 -422.453)" fill="#d7d9e1"/>
    <circle id="Ellipse_30" data-name="Ellipse 30" cx="4.286" cy="4.286" r="4.286" transform="translate(84.714 202.028)" fill="#a1616a"/>
    <path id="Path_88" data-name="Path 88" d="M223.236,628.592a1.445,1.445,0,0,0-1.626.128.786.786,0,0,0-.293.862l-2.066.5a4.24,4.24,0,0,0-.963.312,1.478,1.478,0,0,0-.7.7c-.019.041-.038.087-.079.1s-.068,0-.1,0a1.848,1.848,0,0,0-1.076.049,5.723,5.723,0,0,0-2.732,2.021,1,1,0,0,0-.263.523c0,.252.139.534,0,.753a25.406,25.406,0,0,1,.173,5.911,2.577,2.577,0,0,1-.421,1.042,3.733,3.733,0,0,0-.444,1.155c-.154,1.069.628,2.1.485,3.176a5.207,5.207,0,0,1-.459,1.287,2.943,2.943,0,0,0-.275,1.584c.038.241.124.474.169.715a4.465,4.465,0,0,1,.041.978c0,.606-.049,1.212-.087,1.817a3.971,3.971,0,0,1-.9,2.728c2.066-.113,4.237-.26,5.975-1.385a3.16,3.16,0,0,0,.662-.542,4.364,4.364,0,0,0,.828-2.408,10.077,10.077,0,0,0,.113-2.89,3.161,3.161,0,0,1-.075-.918,2.552,2.552,0,0,1,.922-1.373A5.859,5.859,0,0,0,221.207,644a2.258,2.258,0,0,0,.2-1.78c-.1-.286-.278-.538-.376-.832a.711.711,0,0,1,.237-.805c1.351-.753,1.652-2.634,1.637-4.192a11.893,11.893,0,0,0-.339-2.355l-.32-1.505a2.051,2.051,0,0,0,.324-1.577,1.773,1.773,0,0,1-.1-.478,1.3,1.3,0,0,1,.218-.579,4.681,4.681,0,0,0,.549-1.306Z" transform="translate(-138.04 -419.348)" fill="#3f3d56"/>
    <path id="Path_89" data-name="Path 89" d="M252.629,637.3a11.46,11.46,0,0,0,.376,1.392c.079.169.188.32.278.482a3.112,3.112,0,0,1,.256,2.013,11.021,11.021,0,0,1-.61,1.968,2.7,2.7,0,0,0-.184.677,3.25,3.25,0,0,0,.03.715,21.147,21.147,0,0,1,.139,2.886,5.588,5.588,0,0,1-.47,2.446.677.677,0,0,1-.342.376.752.752,0,0,1-.357,0l-1.159-.166a.7.7,0,0,1-.278-.075.662.662,0,0,1-.245-.376,6.287,6.287,0,0,1-.105-2.634,67.978,67.978,0,0,0,.907-7.969,5.512,5.512,0,0,1,.222-2.532c.158-.282.109-.166.376-.1a3.242,3.242,0,0,1,.418.109A1.264,1.264,0,0,1,252.629,637.3Z" transform="translate(-161.895 -424.287)" fill="#3f3d56"/>
    <path id="Path_90" data-name="Path 90" d="M212.23,692" transform="translate(-138.42 -459.016)" fill="#464353"/>
    <path id="Path_91" data-name="Path 91" d="M244.369,641.81q.083,2.355.154,4.707l-4.4-.147a3.01,3.01,0,0,1,.079-1.325c.166-1.035-.068-2.092,0-3.138.064-.8.312-1.569.376-2.367.026-.463,0-.929,0-1.4a9.98,9.98,0,0,1,.2-1.373,8.279,8.279,0,0,1,.523-1.881,2.7,2.7,0,0,1,1.607.591,1.987,1.987,0,0,1,.459.832c.286.918.162,1.93.482,2.83a8.369,8.369,0,0,1,.519,2.668Z" transform="translate(-155.794 -423.395)" fill="#6c63ff"/>
    <path id="Path_92" data-name="Path 92" d="M215.031,699.349a5.094,5.094,0,0,0,.993,2.6,21.377,21.377,0,0,1,1.765,3.857,3.481,3.481,0,0,0,.44.978,9.5,9.5,0,0,0,.692.711,4.229,4.229,0,0,1,.88,2.412,17.208,17.208,0,0,1,.117,1.72,4.244,4.244,0,0,0,.354,2.051c-.346,0-.474.474-.376.809a1.888,1.888,0,0,1,.2,1c-.376.237-.248.8-.139,1.23a9.929,9.929,0,0,1,.226,2.292q.083,4.647.053,9.294c-1.392.8-3.01,1.682-4.6,1.366a.948.948,0,0,1-.722-.463,1.027,1.027,0,0,1-.049-.467l.117-2.611a4.614,4.614,0,0,0-.169-1.881c-.169-.44-.478-.884-.346-1.336.045-.154.139-.29.2-.44.237-.6-.109-1.249-.278-1.881a1.419,1.419,0,0,1-.068-.429,2.326,2.326,0,0,1,.094-.508,7.206,7.206,0,0,0-.019-3.687.88.88,0,0,1-.041-.47,1.2,1.2,0,0,0,.071-.214.527.527,0,0,0-.113-.331,3.128,3.128,0,0,0,.425-.651.783.783,0,0,1-.4-1.163.41.41,0,0,1-.346-.64c.075-.083.181-.135.226-.237s-.053-.316-.162-.436l-.579-.64c-.433-.485-.658-1.151-1.11-1.618a13.423,13.423,0,0,1-1.656-2.235l-1.919-3.01-.643.877a2.558,2.558,0,0,0-.489.9,3.307,3.307,0,0,0,0,.944c.113,1.847-.658,3.65-.677,5.5a3.386,3.386,0,0,1-.117,1.223,2.259,2.259,0,0,0-.143.376,1.746,1.746,0,0,0,.03.557,2.559,2.559,0,0,1-.647,2.043c-.331.376-.79.658-.9,1.129a1.93,1.93,0,0,1-.1.418c-.139.275-.542.4-.561.7,0,.173.12.346.06.508a.459.459,0,0,1-.162.188l-1.02.839c-1.129.937-1.464,2.559-2.167,3.857a6.8,6.8,0,0,0-.606,1.34c-.245.828-.222,1.791-.809,2.423a1.959,1.959,0,0,0-.418.485c-.154.335.019.719.079,1.084s-.113.858-.482.828a2.566,2.566,0,0,1,.3,1.332,6.9,6.9,0,0,1-4.451-.723,1.659,1.659,0,0,1-.918-.963.41.41,0,0,1,0-.233.666.666,0,0,1,.214-.256c.944-.828.963-2.258,1.253-3.473a23.621,23.621,0,0,1,1.159-3.108c.843-2.227,1.181-4.767,2.83-6.483a2.809,2.809,0,0,0,.907-1.253c.06-.29,0-.587.041-.88a.707.707,0,0,1,.485-.662,3.732,3.732,0,0,1-.433-1.249,1.735,1.735,0,0,1-.06-.572,2.908,2.908,0,0,1,.158-.609,5.385,5.385,0,0,0,.087-3.01,4.748,4.748,0,0,1-.3-1.535c.023-.267.105-.519.147-.783a4.488,4.488,0,0,0-.083-1.381l-.278-1.723a8.375,8.375,0,0,1-.162-1.731c.056-1.4-.854-7,.222-7.9s4.113,2.882,5.5,2.656a6.24,6.24,0,0,1,1.851-.06,8.745,8.745,0,0,1,2.769,1.046l2.988,1.539A9.508,9.508,0,0,0,215.031,699.349Z" transform="translate(-127.009 -459.766)" fill="#65617d"/>
    <path id="Path_93" data-name="Path 93" d="M247.628,605.236a3.236,3.236,0,0,0-2.7-.636,5.832,5.832,0,0,0-2.536,1.287,3.424,3.424,0,0,1-.711.5c-.425.192-.941.184-1.294.485a1.635,1.635,0,0,0-.222,1.731,2.985,2.985,0,0,1,.241,1.8,4.8,4.8,0,0,0-.2.531,1.565,1.565,0,0,0,.252.978,7.046,7.046,0,0,0,.376-.753.656.656,0,0,1,.689-.376c.263.083.324.376.376.632s.2.534.459.561a.519.519,0,0,0,.478-.327c.294-.583-.049-1.34.237-1.927.166-.339.512-.561.658-.907.113-.271.087-.579.173-.862s.376-.546.651-.421a1,1,0,0,1,.245.211,1.129,1.129,0,0,0,1.381.094,2.168,2.168,0,0,1,.5-.376.7.7,0,0,1,.715.2,1.4,1.4,0,0,1,.335.7,1.724,1.724,0,0,0,.376.982,1.13,1.13,0,0,0,.376.2.9.9,0,0,0,1-.124.753.753,0,0,0,.064-.753,5.643,5.643,0,0,0-.376-.677c-.282-.516-.218-1.178-.5-1.656A5.587,5.587,0,0,0,247.628,605.236Z" transform="translate(-155.757 -404.457)" fill="#3f3d56"/>
    <path id="Path_94" data-name="Path 94" d="M246.244,630.611a.643.643,0,0,1,.045.376.606.606,0,0,1-.162.248,4.421,4.421,0,0,1-1.825,1.087.6.6,0,0,0-.256.132.5.5,0,0,0,0,.576,1.426,1.426,0,0,1,.256.553c.034.376-.376.647-.726.779a2.047,2.047,0,0,1-1.562.049,2.322,2.322,0,0,1-.824-.786c-1.546-2.1-2.487-4.594-4.045-6.686a1.652,1.652,0,0,1-.263-.451.5.5,0,0,1,.09-.489c.166-.162.478-.162.564-.376.041-.105,0-.233.038-.342.072-.241.376-.286.576-.448s.222-.335.376-.41a.606.606,0,0,1,.531.1,6.055,6.055,0,0,1,1.735,1.829,26.19,26.19,0,0,0,2.555,2.92,1.977,1.977,0,0,1,.312-1.227c.3-.139.835.327,1.054.5A4.583,4.583,0,0,1,246.244,630.611Z" transform="translate(-153.779 -416.851)" fill="#6c63ff"/>
    <rect id="Rectangle_24" data-name="Rectangle 24" width="30.854" height="30.854" transform="translate(97.219 246.976) rotate(167.2)" opacity="0.1"/>
    <rect id="Rectangle_25" data-name="Rectangle 25" width="30.854" height="30.854" transform="translate(97.783 246.079) rotate(167.2)" fill="#ededf4"/>
    <path id="Path_95" data-name="Path 95" d="M232.292,677.876a8.5,8.5,0,0,0-10.159-6.4c-.214.049-.436.109-.632.169l2.024,8.9,8.9-2.021C232.382,678.316,232.34,678.09,232.292,677.876Z" transform="translate(-144.202 -446.085)" fill="#6c63ff"/>
    <path id="Path_96" data-name="Path 96" d="M219.87,683.3l-8.9,2.021-2.021-8.9a8.492,8.492,0,1,0,10.912,6.875Z" transform="translate(-132.643 -449.305)" fill="#6c63ff"/>
    <path id="Path_97" data-name="Path 97" d="M206.592,691.23a8.562,8.562,0,0,1,1.182.783,2.07,2.07,0,0,1,.73,1.185.681.681,0,0,1-.038.406.331.331,0,0,1-.335.188.531.531,0,0,1-.211-.117,7.746,7.746,0,0,0-.753-.508c-.094-.056-.211-.117-.3-.064a.293.293,0,0,0-.105.109.861.861,0,0,0-.162.444.944.944,0,0,0,.448.689,1.969,1.969,0,0,1,.613.579.294.294,0,0,1,.041.222.32.32,0,0,1-.109.147,2.032,2.032,0,0,1-1.644.489c-.376-.06-.753-.237-1.151-.282a2.383,2.383,0,0,1-.493-.064.963.963,0,0,1-.542-.512,2.539,2.539,0,0,1-.2-.753,8.748,8.748,0,0,1-.023-2.954.406.406,0,0,1,.068-.173.354.354,0,0,1,.162-.087,4.307,4.307,0,0,1,1.607-.482,1.223,1.223,0,0,1,.463.256C205.963,690.82,206.565,691.113,206.592,691.23Z" transform="translate(-132.929 -458.062)" fill="#a1616a"/>
    <path id="Path_98" data-name="Path 98" d="M202.425,661.673c-.09-.433.2-1.6-.662-1.471-.1-.463.482-.9.252-1.358-.075-.151-.241-.256-.3-.418-.162-.459.632-.907.376-1.328-.094-.162-.3-.226-.376-.376-.188-.376.5-.734.421-1.159-.03-.139-.143-.256-.169-.4a1.181,1.181,0,0,1,.135-.516c.132-.444-.117-1.031.241-1.328-.263.087-.444-.29-.376-.557s.233-.531.173-.8a1.193,1.193,0,0,1-.071-.294c0-.275.433-.376.444-.666a1.928,1.928,0,0,0-.056-.293.565.565,0,0,1,.339-.482,1.7,1.7,0,0,0,.523-.331c.1-.12.211-.312.376-.26.056,0,.094.072.143.105.2.147.485,0,.655-.184a2.784,2.784,0,0,0,.595-2.051c-.03-.734-.2-1.456-.2-2.186a5.134,5.134,0,0,1,.045-.681,3.259,3.259,0,0,0,.154-.7c-.06-.414-.839.056-1.148.169a4.941,4.941,0,0,0-.88.376,9.555,9.555,0,0,0-.843.625c-1.151.854-2.675,1.276-3.484,2.453-.267.376-.459.862-.865,1.1a5.567,5.567,0,0,0-.557.29c-.436.339-.376,1-.523,1.528a3.053,3.053,0,0,0-.132.436,1.674,1.674,0,0,0,.041.512l.245,1.234a46.655,46.655,0,0,0,1.505,6.129,5.268,5.268,0,0,1,.436,2.021c0,.184-.049.376-.053.557a3.14,3.14,0,0,0,.079.651l.151.8a.245.245,0,0,0,.083.173.263.263,0,0,0,.226,0c1.08-.35,2.054-1.227,3.183-1.087" transform="translate(-128.702 -428.937)" fill="#3f3d56"/>
    <path id="Path_99" data-name="Path 99" d="M262.516,670.163a.343.343,0,0,1,.147.075.9.9,0,0,1,.252,1.046.328.328,0,0,0-.038.117.286.286,0,0,0,.072.166.6.6,0,0,1,.064.674c-.06.083-.162.139-.2.241-.056.169.117.331.135.508.023.237-.222.41-.444.493a.58.58,0,0,1-.534,0,.437.437,0,0,1-.105-.459,1.287,1.287,0,0,1,.263-.418.534.534,0,0,1-.6-.35.753.753,0,0,1,.147-.707.275.275,0,0,0,.087-.166c0-.083-.083-.139-.154-.184-.3-.2-.658-.786-.2-1.035a1.243,1.243,0,0,1,.508-.094c.135,0,.151.087.26.117S262.4,670.145,262.516,670.163Z" transform="translate(-168.959 -445.337)" fill="#a1616a"/>
    <path id="Path_100" data-name="Path 100" d="M240.47,625.968a.865.865,0,0,1,.73.177,1.957,1.957,0,0,1,.474.817,7.827,7.827,0,0,0,1.682,2.566" transform="translate(-156.034 -417.818)" opacity="0.1"/>
    <path id="Path_101" data-name="Path 101" d="M238.5,628.4a1.031,1.031,0,0,1,.975.32,2.974,2.974,0,0,1,.414.824,4.914,4.914,0,0,0,1.276,1.641" transform="translate(-154.806 -419.337)" opacity="0.1"/>
  </g>
</svg>
