<svg xmlns="http://www.w3.org/2000/svg" xmlns:xlink="http://www.w3.org/1999/xlink" width="416.496" height="283.83" viewBox="0 0 416.496 283.83">
  <defs>
    <linearGradient id="linear-gradient" y1="0.5" x2="1" y2="0.5" gradientUnits="objectBoundingBox">
      <stop offset="0" stop-color="gray" stop-opacity="0.251"/>
      <stop offset="0.54" stop-color="gray" stop-opacity="0.122"/>
      <stop offset="1" stop-color="gray" stop-opacity="0.102"/>
    </linearGradient>
    <linearGradient id="linear-gradient-2" x1="0.5" y1="1" x2="0.5" y2="0" xlink:href="#linear-gradient"/>
    <linearGradient id="linear-gradient-4" x1="0.5" y1="1" x2="0.5" y2="0" xlink:href="#linear-gradient"/>
  </defs>
  <g id="undraw_designer_kcp7" transform="translate(0 0.01)">
    <g id="Group_15" data-name="Group 15" transform="translate(27.431 174.08)" opacity="0.7">
      <path id="Path_304" data-name="Path 304" d="M230.027,558.94a10.11,10.11,0,0,0-4.009-10.719,30.206,30.206,0,0,1-2.684-1.736,9.651,9.651,0,0,1-2.692-4.515c-1.346-4.039-1.771-8.575-4.129-12.223-2.144-3.323-6.328-4.287-10.037-4.626a7.949,7.949,0,0,0-4,.377c-2.067.935-3.053,3.374-3.147,5.642s.5,4.5.643,6.766-.257,4.755-1.925,6.29-4.06,1.715-6.277,2.024a41.559,41.559,0,0,0-8.506,2.114c-2.311.857-4.888,2.362-4.995,4.815-.09,2.006,1.531,3.61,2.748,5.209a13.273,13.273,0,0,1,2.641,10.6c-.789,3.674-3.43,6.95-3.889,10.74a4.665,4.665,0,0,0,.382,2.838,5.192,5.192,0,0,0,1.432,1.522c1.428,1.1,3,1.989,4.373,3.185,2.817,2.5,4.343,6.118,5.518,9.694.111.343.214.695.322,1.038h-2.77A10.29,10.29,0,0,0,178.788,608.2h0a10.29,10.29,0,0,0,10.243,10.243h27.654A10.29,10.29,0,0,0,226.927,608.2h0a10.29,10.29,0,0,0-10.243-10.243H209.1c1.792-2.4,3.666-4.656,6.431-5.574s6.114-.382,8.283-2.311a6.5,6.5,0,0,0,1.882-3.726,11.092,11.092,0,0,0-1.213-7.366c-.857-1.556-2.144-2.967-2.422-4.716a7.01,7.01,0,0,1,1.046-4.369C225.2,566.092,228.9,563.138,230.027,558.94Z" transform="translate(-178.262 -525.04)" fill="url(#linear-gradient)"/>
    </g>
    <path id="Path_305" data-name="Path 305" d="M208.04,530.316a7.533,7.533,0,0,0-3.812.36c-1.968.892-2.907,3.216-3,5.372s.476,4.287.613,6.431-.244,4.527-1.835,6-3.859,1.633-5.977,1.925a39.584,39.584,0,0,0-8.1,2.024c-2.2.8-4.652,2.247-4.755,4.588-.086,1.912,1.458,3.43,2.62,4.961a12.675,12.675,0,0,1,2.512,10.1c-.737,3.5-3.25,6.62-3.7,10.23a4.442,4.442,0,0,0,.364,2.7,4.944,4.944,0,0,0,1.368,1.449c1.359,1.05,2.877,1.895,4.163,3.035,2.684,2.375,4.133,5.827,5.256,9.231a74.747,74.747,0,0,1,2.572,10.234c2.311-1.488,5.3-1.466,7.764-2.675,5.252-2.572,7.018-10.033,12.562-11.889,2.624-.857,5.822-.364,7.889-2.2a6.182,6.182,0,0,0,1.792-3.546,10.564,10.564,0,0,0-1.158-7.014c-.827-1.483-2.045-2.825-2.307-4.506a6.669,6.669,0,0,1,.995-4.159c1.994-3.623,5.518-6.431,6.594-10.431a9.629,9.629,0,0,0-3.816-10.208,28.454,28.454,0,0,1-2.572-1.655,9.487,9.487,0,0,1-2.572-4.287c-1.286-3.859-1.685-8.146-3.932-11.64C215.552,531.555,211.573,530.633,208.04,530.316Z" transform="translate(-152.493 -353.929)" fill="#4db6ac"/>
    <path id="Path_306" data-name="Path 306" d="M233.353,530.73s4.875,65.344-7.8,76.56" transform="translate(-177.844 -354.21)" fill="none" stroke="#535461" stroke-miterlimit="10" stroke-width="1" opacity="0.6"/>
    <rect id="Rectangle_73" data-name="Rectangle 73" width="45.841" height="19.508" rx="9.754" transform="translate(29.176 245.765)" fill="#6c63ff"/>
    <path id="Path_307" data-name="Path 307" d="M181.2,589.759s12.468-1.453,27.692,7.807" transform="translate(-152.509 -387.884)" fill="none" stroke="#535461" stroke-miterlimit="10" stroke-width="1" opacity="0.6"/>
    <path id="Path_308" data-name="Path 308" d="M245.22,608.081a32.2,32.2,0,0,1,21.806-13.651" transform="translate(-189.081 -390.6)" fill="none" stroke="#535461" stroke-miterlimit="10" stroke-width="1" opacity="0.6"/>
    <path id="Path_309" data-name="Path 309" d="M184,650.7s17.283-2.928,25.223,1.951" transform="translate(-154.108 -422.246)" fill="none" stroke="#535461" stroke-miterlimit="10" stroke-width="1" opacity="0.6"/>
    <path id="Path_310" data-name="Path 310" d="M240.57,669.234a28.913,28.913,0,0,1,19.225-.772" transform="translate(-186.424 -432.147)" fill="none" stroke="#535461" stroke-miterlimit="10" stroke-width="1" opacity="0.6"/>
    <g id="Group_16" data-name="Group 16" transform="translate(348.776 226.275)" opacity="0.7">
      <path id="Path_311" data-name="Path 311" d="M962.927,653.811V646.78H927.77v32.507a6.86,6.86,0,0,0,6.86,6.86h21.437a6.86,6.86,0,0,0,6.86-6.86v-7.2a9.136,9.136,0,1,0,0-18.273Zm0,14.762V657.327a5.625,5.625,0,1,1,0,11.246Z" transform="translate(-927.77 -646.78)" fill="url(#linear-gradient-2)"/>
    </g>
    <path id="Path_312" data-name="Path 312" d="M996.023,665.74a8.343,8.343,0,1,0,8.343,8.343A8.343,8.343,0,0,0,996.023,665.74Zm0,13.475a5.145,5.145,0,1,1,5.145-5.145,5.145,5.145,0,0,1-5.145,5.145Z" transform="translate(-613.218 -431.336)" fill="#6c63ff"/>
    <path id="Path_313" data-name="Path 313" d="M996.023,665.74a8.343,8.343,0,1,0,8.343,8.343A8.343,8.343,0,0,0,996.023,665.74Zm0,13.475a5.145,5.145,0,1,1,5.145-5.145,5.145,5.145,0,0,1-5.145,5.145Z" transform="translate(-613.218 -431.336)" opacity="0.1"/>
    <path id="Path_314" data-name="Path 314" d="M818,531.78h32.087v31.757a4.18,4.18,0,0,1-4.18,4.18H822.189a4.18,4.18,0,0,1-4.18-4.18V531.78Z" transform="translate(-467.29 -303.79)" fill="#6c63ff"/>
    <rect id="Rectangle_74" data-name="Rectangle 74" width="416.495" height="14.118" transform="translate(0 263.927)" fill="#e0e0e0"/>
    <g id="Group_17" data-name="Group 17" transform="translate(133.051 -0.01)" opacity="0.7">
      <path id="Path_315" data-name="Path 315" d="M565.511,288.458c-4.463-16.2-29.772-28.035-48.812-30.659V243.573h.06v-.545a47.565,47.565,0,0,0,28.726-30.11,51.4,51.4,0,0,0,3.066-6.611c2.032-.742,3.567-4.09,3.567-8.12a14.178,14.178,0,0,0-.575-4.073,52.11,52.11,0,0,0,.382-6.182A51.526,51.526,0,0,0,534.9,149.611a10.052,10.052,0,0,0,.163-2.521c-.429-6.658-7.542-11.182-14.2-11.482a14.063,14.063,0,0,0,2.371-14.852c-4.249,6.191-12.974,6.86-20.481,6.9a6.13,6.13,0,0,0,2.813-8.665c-7.846,10.517-23.152,12.468-32.481,21.69a27.379,27.379,0,0,0-5.051,6.89A51.552,51.552,0,0,0,448.6,187.927a52.119,52.119,0,0,0,.373,6.127,14.147,14.147,0,0,0-.592,4.129c0,4.047,1.548,7.409,3.6,8.146a51.4,51.4,0,0,0,3.078,6.633,47.556,47.556,0,0,0,28.528,30.012V257.8c-19.113,2.572-44.623,14.5-49.048,30.835-3.82,14.106-7.9,29.583-9.93,38.69,17.394,12.223,53.888,19.4,76.745,19.4,21.733,0,57.25-6.478,74.133-17.6C573.7,319.1,569.5,302.924,565.511,288.458Z" transform="translate(-424.61 -118.99)" fill="url(#linear-gradient-2)"/>
    </g>
    <path id="Path_316" data-name="Path 316" d="M504.948,525.748c20.965,0,55.226-6.247,71.514-16.982-1.762-9.638-5.822-25.24-9.668-39.2-4.9-17.78-35.813-30.106-54.253-30.106H494.769c-18.5,0-49.455,12.395-54.291,30.252-3.687,13.608-7.619,28.55-9.578,37.322C447.664,518.828,482.885,525.748,504.948,525.748Z" transform="translate(-295.152 -302.072)" fill="#6c63ff"/>
    <circle id="Ellipse_64" data-name="Ellipse 64" cx="49.837" cy="49.837" r="49.837" transform="translate(158.878 20.685)" fill="#72351c"/>
    <path id="Path_317" data-name="Path 317" d="M449.29,261.31h31.933v25.544a15.966,15.966,0,0,1-15.966,15.966h0a15.966,15.966,0,0,1-15.966-15.966V261.31Z" transform="translate(-256.661 -149.282)" opacity="0.1"/>
    <path id="Path_318" data-name="Path 318" d="M453.893,258.55h22.77a4.579,4.579,0,0,1,4.579,4.579v20.965a15.966,15.966,0,0,1-15.966,15.966h0a15.966,15.966,0,0,1-15.966-15.966V263.129a4.579,4.579,0,0,1,4.583-4.579Z" transform="translate(-256.673 -147.705)" fill="#fda57d"/>
    <path id="Path_319" data-name="Path 319" d="M563.71,403.323a45.957,45.957,0,0,0,31.933.09V399.49H563.71Z" transform="translate(-371.021 -279.238)" opacity="0.1"/>
    <circle id="Ellipse_65" data-name="Ellipse 65" cx="45.768" cy="45.768" r="45.768" transform="translate(162.947 34.688)" fill="#fda57d"/>
    <path id="Path_320" data-name="Path 320" d="M525,194.222s19.293,39.153,73.7,16.408L586.053,190.77l-22.466-8.06Z" transform="translate(-348.908 -155.401)" opacity="0.1"/>
    <path id="Path_321" data-name="Path 321" d="M525,192.876s19.293,39.153,73.7,16.408L586.053,189.42l-22.466-8.06Z" transform="translate(-348.908 -154.63)" fill="#72351c"/>
    <path id="Path_322" data-name="Path 322" d="M523.371,159.965a26.44,26.44,0,0,1,6.555-10.658c9-8.9,23.761-10.779,31.332-20.927a5.912,5.912,0,0,1-2.714,8.356c7.241-.047,15.658-.682,19.756-6.654a13.565,13.565,0,0,1-2.289,14.324c6.431.292,13.291,4.656,13.72,11.074.279,4.287-2.405,8.33-5.921,10.783s-7.769,3.58-11.958,4.5C559.617,173.466,515.375,184.759,523.371,159.965Z" transform="translate(-347.429 -124.364)" fill="#72351c"/>
    <path id="Path_323" data-name="Path 323" d="M585.893,307.589h-1.218L561.069,328.6c-22.723-10.654-39.444,0-39.444,0l-24.76-20.151-2.5.313a45.766,45.766,0,1,0,91.524-1.179Zm-45.841,29.077c-8.9,0-16.121-1.8-16.121-4.03s7.22-4.03,16.121-4.03,16.121,1.8,16.121,4.03S548.957,336.666,540.052,336.666Z" transform="translate(-331.41 -226.734)" fill="#72351c"/>
    <ellipse id="Ellipse_66" data-name="Ellipse 66" cx="4.257" cy="7.983" rx="4.257" ry="7.983" transform="translate(158.668 72.43)" fill="#fda57d"/>
    <ellipse id="Ellipse_67" data-name="Ellipse 67" cx="4.257" cy="7.983" rx="4.257" ry="7.983" transform="translate(250.221 72.43)" fill="#fda57d"/>
    <g id="Group_18" data-name="Group 18" transform="translate(119.687 161.929)" opacity="0.7">
      <rect id="Rectangle_75" data-name="Rectangle 75" width="177.121" height="101.993" rx="14.5" fill="url(#linear-gradient-4)"/>
    </g>
    <rect id="Rectangle_76" data-name="Rectangle 76" width="170.707" height="100.111" rx="26.84" transform="translate(122.894 163.812)" fill="#535461"/>
    <circle id="Ellipse_68" data-name="Ellipse 68" cx="5.775" cy="5.775" r="5.775" transform="translate(202.473 208.096)" fill="#fff"/>
    <rect id="Rectangle_77" data-name="Rectangle 77" width="381.197" height="5.775" transform="translate(17.647 278.045)" fill="#e0e0e0"/>
    <rect id="Rectangle_78" data-name="Rectangle 78" width="381.197" height="1.925" transform="translate(17.647 278.045)" opacity="0.1"/>
    <path id="Path_324" data-name="Path 324" d="M985.335,650.78v29.677a6.255,6.255,0,0,1-6.255,6.255h3.207a6.255,6.255,0,0,0,6.255-6.255V650.78Z" transform="translate(-608.305 -422.79)" opacity="0.1"/>
    <path id="Path_325" data-name="Path 325" d="M945,593.913a1.889,1.889,0,0,0-1.419.72c-.429.763.343,1.625,1.038,2.144a13.837,13.837,0,0,1,3.516,3.271,4.1,4.1,0,0,1,.193,4.536c-1.248,1.694-4.223,2.054-4.51,4.137-.184,1.338.969,2.478,2.144,3.147,2.89,1.655,6.615,2.1,8.712,4.686a6.75,6.75,0,0,1,4.716-3.25c1.912-.442,3.936-.407,5.9-.7a2.037,2.037,0,0,0,1.625-.857c.549-1.11-1.012-2.444-.476-3.559.429-.857,1.612-.785,2.491-1.123a3.237,3.237,0,0,0,1.616-3.859,7.342,7.342,0,0,0-2.761-3.584,30.746,30.746,0,0,0-11.117-5.145,28.94,28.94,0,0,0-5.908-1.368A27.713,27.713,0,0,0,945,593.913Z" transform="translate(-587.958 -389.839)" fill="#eee"/>
  </g>
</svg>
