<?xml version="1.0" encoding="utf-8"?>
<!-- Generator: Adobe Illustrator 23.0.2, SVG Export Plug-In . SVG Version: 6.00 Build 0)  -->
<svg version="1.1" id="Layer_1" xmlns="http://www.w3.org/2000/svg" xmlns:xlink="http://www.w3.org/1999/xlink" x="0px" y="0px"
	 viewBox="0 0 129 129" style="enable-background:new 0 0 129 129;" xml:space="preserve">
<style type="text/css">
	.st0{fill:#2E001E;}
	.st1{fill:#112914;}
	.st2{fill:#35FA00;}
	.st3{fill:#FF2BC2;}
	.st4{fill:#021D25;}
	.st5{fill:#00C8FF;}
	.st6{fill:#29150E;}
	.st7{fill:#FF7C00;}
</style>
<rect x="428" y="333" class="st0" width="115" height="110"/>
<rect x="566" y="333" class="st1" width="110" height="110"/>
<path class="st2" d="M564.3,330.6v114.8h114.8V330.6H564.3z M674,440.4H569.3V335.6H674V440.4z"/>
<path id="XMLID_34_" class="st2" d="M579.8,358.9c0-0.3,0.1-0.5,0.5-0.6c3.9-0.2,8.9-0.2,13.2-0.2c14.9,0,22.4,10.2,22.4,25.4
	c0,22.5-14.7,26.5-23.7,26.5c-4.7,0-8.1-0.1-11.8-0.2c-0.3,0-0.5-0.2-0.5-0.7V358.9z M587.8,402.4c1.2,0.1,2.8,0.1,4.6,0.1
	c9.2,0,15.3-5.8,15.3-18.8c0-11.9-5.2-18-14.2-18c-3,0-5.1,0.1-5.7,0.2V402.4z"/>
<path id="XMLID_35_" class="st2" d="M649.2,410.3c-0.5,0-0.6-0.2-0.7-0.6c-3.6-17.6-4.8-24.3-5.5-28H643c-0.6,3.9-2.2,11-6.3,28
	c-0.1,0.5-0.3,0.6-0.7,0.6h-7.2c-0.6,0-0.7-0.2-0.8-0.7l-8.5-37c-0.1-0.4,0-0.6,0.4-0.6h6.9c0.4,0,0.5,0.1,0.6,0.5
	c4.4,20.5,5.3,26.2,5.8,29.1h0.1c0.3-1.3,1.9-9.6,6.1-28.9c0.1-0.5,0.1-0.6,0.6-0.6h6.9c0.3,0,0.5,0.2,0.5,0.5
	c4.2,20.1,5.2,26.5,5.7,29.3h0.1c0.8-4.7,2-12.2,6-29.2c0.1-0.4,0.3-0.6,0.5-0.6h6.4c0.3,0,0.5,0.2,0.4,0.6l-9.4,37.2
	c-0.1,0.5-0.2,0.6-0.7,0.6H649.2z"/>
<path class="st3" d="M426.5,330.6v114.8h117.8V330.6H426.5z M431.4,335.5h107.9v105H431.4V335.5z"/>
<path class="st3" d="M512,378.8c-0.7-0.3-1.7-0.5-2.8-0.5c-6.2,0-10.3,4.8-10.3,12.7c0,9,4.2,12.7,9.7,12.7c1.2,0,2.5-0.1,3.4-0.5
	L512,378.8L512,378.8z M490,391.4c0-11.4,7.4-20.4,19.4-20.4c1,0,1.6,0,2.6,0.1v-12.8c0-0.3,0.2-0.5,0.5-0.5h7.9
	c0.4,0,0.5,0.1,0.5,0.4v44.8c0,1.3,0,3,0.2,4.8c0,0.3,0,0.4-0.3,0.5c-4.1,2-8.4,2.8-12.6,2.8C497.6,411.3,490,404.7,490,391.4
	L490,391.4z M473.3,383.4l13.7,26.6c0.2,0.4,0.1,0.8-0.3,0.8h-8.5c-0.5,0-0.8-0.1-1-0.6c-3.1-6.5-6.3-13.2-9.6-20.2h-0.1
	c-2.9,6.6-6.2,13.7-9.3,20.2c-0.2,0.4-0.5,0.5-0.9,0.5h-8.1c-0.5,0-0.5-0.4-0.3-0.7l13.4-25.9l-13-25.7c-0.3-0.4,0-0.7,0.3-0.7h8.4
	c0.5,0,0.7,0.1,0.9,0.5c3.1,6.5,6.2,13,9.2,19.5h0.1c2.8-6.5,6-13,9-19.4c0.2-0.4,0.4-0.6,0.9-0.6h7.9c0.4,0,0.5,0.3,0.3,0.7
	L473.3,383.4L473.3,383.4z"/>
<g>
	<g>
		<rect x="9.4" y="9.5" class="st4" width="111" height="110"/>
		<path class="st5" d="M7.1,7.1v114.8h114.8V7.1H7.1z M116.9,116.9H12.1V12.1h104.7V116.9z"/>
		<path id="XMLID_2_" class="st5" d="M35,34.8c0-0.4,0.1-0.6,0.4-0.6c2.6-0.1,7.7-0.2,12.8-0.2c13.3,0,18.4,7.7,18.5,16.9
			c0,12.6-9.4,17.3-19.3,17.3c-1.9,0-3.7,0-4.2,0v17.9c0,0.5-0.1,0.6-0.5,0.6h-7.2c-0.3,0-0.5-0.2-0.5-0.6V34.8z M43.1,60.7
			c0.5,0.1,1.6,0.2,4.4,0.2c5.4,0,10.5-1.5,10.5-9.4c0-6.3-3.5-9.6-9.9-9.6c-2.6,0-4.6,0.1-5.1,0.2V60.7z"/>
	</g>
	<path id="XMLID_1_" class="st5" d="M83.7,54.8c-3.3,0-4.1,2-4.1,3.5c0,1.9,0.9,2.9,5.9,5.3c6.9,3.3,9.8,6.2,9.8,11.9
		c0,7.9-5.1,12.4-12.5,12.4c-3.5,0-8-0.3-10.8-2.4c-0.3-0.2-0.4-0.4-0.4-0.8v-7.3c0-0.4,0.3-0.6,0.5-0.4c3.5,2.6,7.3,3.3,10.8,3.3
		c3.1,0,4.1-2,4.1-3.8c0-2.1-0.7-3.2-5.5-5.5c-6.9-3.3-9.7-6.2-9.7-11.9c0-6.4,4.8-11.7,12.7-11.7c4.1,0,6.9,0.1,8.8,1.4
		c0.3,0.3,0.4,0.6,0.4,1v6.5c0,0.5-0.3,0.7-0.6,0.5C90.5,55.3,87.1,54.8,83.7,54.8z"/>
</g>
<g>
	<rect x="146.2" y="9.5" class="st6" width="109" height="110"/>
	<path class="st7" d="M143.1,7.1v114.8h114.8V7.1H143.1z M252.8,116.8H148.2V12.2h104.7V116.8z"/>
	<path id="XMLID_7_" class="st7" d="M182.8,72.4l-4.1,13.7c-0.1,0.5-0.3,0.6-0.7,0.6H171c-0.5,0-0.6-0.2-0.5-0.8
		c3.7-12.1,9.8-32.2,14.2-45.9c0.2-0.8,0.4-1.6,0.5-4.3c0-0.3,0.2-0.5,0.4-0.5h9.4c0.3,0,0.4,0.1,0.5,0.4c5,16.2,10.5,34,15.7,50.4
		c0.1,0.5,0,0.7-0.4,0.7h-7.6c-0.3,0-0.5-0.2-0.6-0.5l-4.3-13.9H182.8z M196.5,64.7c-1.4-5.3-4.7-15.9-6-21.5h-0.1
		c-1,5.2-3.8,14.1-5.8,21.5H196.5z"/>
	<path id="XMLID_38_" class="st7" d="M218.2,38.3c0-2.9,1.9-4.9,4.5-4.9c2.7,0,4.4,2,4.4,4.9c0,3-1.8,4.9-4.5,4.9
		C220,43.2,218.2,41.3,218.2,38.3z M218.6,49.1c0-0.5,0.1-0.6,0.5-0.6h7.1c0.4,0,0.5,0.1,0.5,0.6v37.1c0,0.4-0.1,0.6-0.5,0.6h-6.9
		c-0.4,0-0.6-0.2-0.6-0.7V49.1z"/>
</g>
</svg>
